<?xml version="1.0" encoding="UTF-8"?>
<svg width="700pt" height="700pt" version="1.1" viewBox="0 0 700 700" xmlns="http://www.w3.org/2000/svg" xmlns:xlink="http://www.w3.org/1999/xlink">
 <g>
  <path d="m510 152.62c-34.461-3.0781-70.152 0-104 6.7695-18.461 3.6914-12.922 30.77 4.3086 32 33.23 2.4609 66.461 3.6914 99.691 4.3086 28.309-0.003906 27.078-40.617 0-43.078z"/>
  <path d="m277.38 148.92c-34.461-3.0781-70.152 0-104 6.7695-18.461 3.6914-12.922 30.77 4.3086 32 33.23 2.4609 66.461 3.6914 99.691 4.3086 27.695 0 27.078-40.617 0-43.078z"/>
  <path d="m455.23 298.46c-8 6.1523-8.6172 11.691-10.461 20.922-1.8477 8.6172-6.7695 17.23-11.691 24.617-10.461 16.617-24 30.77-40 41.23-32 21.539-70.77 25.23-107.69 30.77-4.9219 0.61719-4.9219 8-1.2305 9.8477 40.617 23.383 91.691 11.691 129.23-12.309 19.078-12.309 35.078-28.309 48-46.77 11.078-16 29.539-41.848 23.383-61.539-4.3086-12.309-19.078-15.383-29.539-6.7695z"/>





































 </g>
</svg>
