<?xml version="1.0" encoding="UTF-8"?>
<svg width="700pt" height="700pt" version="1.1" viewBox="0 0 700 700" xmlns="http://www.w3.org/2000/svg" xmlns:xlink="http://www.w3.org/1999/xlink">
 <g>
  <path d="m155.54 308.31c4.9219-19.691 1.8477-41.23 1.2305-60.922-0.61719-19.691 0.61719-40.617-6.7695-59.078-5.5391-13.539-22.152-13.539-27.691 0-7.3828 18.461-6.7695 39.383-8 59.078-1.2305 20.309-4.9219 41.23 0 60.922 4.9219 20.922 36.309 19.691 41.23 0z"/>
  <path d="m366 188.31c-7.3828 18.461-6.7695 39.383-8 59.078-1.2305 20.309-4.9219 41.23 0 60.922 4.9219 20.922 35.691 19.691 41.23 0 4.9219-19.691 1.8477-41.23 1.2305-60.922-0.61719-19.691 0.61719-40.617-6.7695-59.078-5.5391-13.539-22.152-13.539-27.691 0z"/>
  <path d="m489.08 227.69c-4.3086 6.7695 4.3086 13.539 10.461 10.461 0.61719-0.61719 1.2305-0.61719 2.4609-1.2305 6.1523 25.848 52.309 38.77 75.691 38.152 25.23-1.2305 45.539-19.691 40.617-46.152-12.926-61.539-104-38.77-129.23-1.2305zm64.613 7.3867c-6.7695-4.3086-12.309-9.8477-18.461-14.152 20.922-7.3828 43.691-10.461 52.922 6.7695 11.695 22.766-25.844 12.922-34.461 7.3828z"/>
  <path d="m483.54 34.461c-34.461 19.078-59.691 54.77-68.309 92.922-1.8477 8 8.6172 12.922 13.539 6.1523 3.6914 3.6914 8.6172 6.1523 15.383 7.3828 38.77 4.9219 94.152 11.078 129.23-11.691 31.383-20.922 23.383-62.77 2.4609-88.617-22.766-28.918-63.996-21.531-92.305-6.1484zm81.844 51.078c0 16-15.383 18.461-28.309 19.691-28.922 3.0781-57.848 0-85.539-9.2305 6.1523-9.2305 13.539-18.461 22.152-25.848 17.23-15.383 53.539-36.309 76.309-20.922 9.8516 6.1523 16.004 24.617 15.387 36.309z"/>
  <path d="m102.62 490.46c-1.2305 10.461-3.6914 21.539 2.4609 31.383 8 11.691 20.309 12.309 33.23 12.309 16.617 0 32.617-0.61719 49.23-0.61719 67.078-0.61719 134.15-1.2305 200.62-3.6914 9.8477-0.61719 22.152-9.2305 20.922-20.922-2.4609-19.078-4.3086-38.152-6.1523-57.23-1.2305-14.152-0.61719-32.617-5.5391-46.152-10.461-30.77-58.461-18.461-82.461-17.23-37.539 1.8477-75.691 4.3086-113.23 6.7695-17.848 1.2305-35.078 2.4609-52.922 4.3086-8.6172 0.61719-17.23 1.8477-26.461 3.0781-11.078 1.8477-22.77 6.1523-34.461 6.7695-9.2344-0.003906-9.8516 15.383 0.60938 15.383 8.6172 0 17.848 1.8477 26.461 3.0781-2.4609 2.4609-4.3086 5.5391-4.9219 10.461-2.4609 17.227-4.9219 34.461-7.3828 52.305zm57.23-60.922c24 0 48 0 72-0.61719 22.77-0.61719 45.539-0.61719 67.691-1.2305 12.309 0 25.23-0.61719 37.539-1.2305 7.3828 0 16-1.8477 24-1.8477 2.4609 11.691 1.2305 29.539 1.8477 37.539 0.61719 8.6172 1.2305 17.23 2.4609 25.848-36.922-0.61719-73.23 0-110.15 0-21.539 0-43.078 0-64.617 0.61719h-30.152c-3.6914 0-8 0.61719-12.922 0.61719 0.61719-4.3086 0.61719-8 1.2305-11.691 1.2305-11.078 2.4609-22.77 3.6914-33.848 0.61719-5.5391-1.2305-10.461-4.9219-14.152 4.3047-0.62109 7.9961-0.003907 12.305-0.003907z"/>
  <use x="70" y="652.308594" xlink:href="#v"/>
  <use x="92.582031" y="652.308594" xlink:href="#d"/>
  <use x="107.753906" y="652.308594" xlink:href="#b"/>
  <use x="128.625" y="652.308594" xlink:href="#j"/>
  <use x="149.386719" y="652.308594" xlink:href="#c"/>
  <use x="164.09375" y="652.308594" xlink:href="#b"/>
  <use x="184.964844" y="652.308594" xlink:href="#i"/>
  <use x="217.703125" y="652.308594" xlink:href="#g"/>
  <use x="239.726562" y="652.308594" xlink:href="#f"/>
  <use x="270.496094" y="652.308594" xlink:href="#h"/>
  <use x="293.949219" y="652.308594" xlink:href="#a"/>
  <use x="315.085938" y="652.308594" xlink:href="#e"/>
  <use x="347.148438" y="652.308594" xlink:href="#u"/>
  <use x="369.308594" y="652.308594" xlink:href="#f"/>
  <use x="389.367187" y="652.308594" xlink:href="#e"/>
  <use x="421.425781" y="652.308594" xlink:href="#g"/>
  <use x="443.453125" y="652.308594" xlink:href="#a"/>
  <use x="464.589844" y="652.308594" xlink:href="#t"/>
  <use x="475.136719" y="652.308594" xlink:href="#s"/>
  <use x="70" y="683.078125" xlink:href="#r"/>
  <use x="83.386719" y="683.078125" xlink:href="#d"/>
  <use x="98.5625" y="683.078125" xlink:href="#a"/>
  <use x="119.699219" y="683.078125" xlink:href="#e"/>
  <use x="162.472656" y="683.078125" xlink:href="#c"/>
  <use x="177.179688" y="683.078125" xlink:href="#q"/>
  <use x="199.085937" y="683.078125" xlink:href="#b"/>
  <use x="230.667969" y="683.078125" xlink:href="#p"/>
  <use x="256.417969" y="683.078125" xlink:href="#a"/>
  <use x="277.558594" y="683.078125" xlink:href="#o"/>
  <use x="299.460938" y="683.078125" xlink:href="#n"/>
  <use x="332.078125" y="683.078125" xlink:href="#m"/>
  <use x="354.628906" y="683.078125" xlink:href="#d"/>
  <use x="369.804688" y="683.078125" xlink:href="#a"/>
  <use x="390.945312" y="683.078125" xlink:href="#l"/>
  <use x="401.492187" y="683.078125" xlink:href="#b"/>
  <use x="422.359375" y="683.078125" xlink:href="#k"/>
  <use x="440.597656" y="683.078125" xlink:href="#c"/>
 </g>
</svg>
