<svg width="224" height="158" viewBox="0 0 224 158" fill="none" xmlns="http://www.w3.org/2000/svg">
<g filter="url(#filter0_d_9_2623)">
<path d="M31.5998 59.509C33.8354 50.5653 32.4391 40.7823 32.1587 31.8381C31.8784 22.8944 32.4391 13.3898 29.084 5.00478C26.5681 -1.14466 19.0225 -1.14466 16.5067 5.00478C13.1534 13.3898 13.432 22.8926 12.8731 31.8381C12.3142 41.0625 10.6376 50.5649 12.8731 59.509C15.1086 68.7334 29.084 68.4527 31.5998 59.509Z" fill="white"/>
<path d="M126.632 5.00473C123.279 13.3898 123.558 22.8926 122.999 31.8381C122.44 41.0625 120.763 50.5648 122.999 59.509C125.234 69.0118 139.21 68.4527 141.725 59.509C143.961 50.5653 142.565 40.7822 142.284 31.8381C142.004 22.8944 142.565 13.3898 139.21 5.00473C136.694 -1.42314 129.148 -1.14471 126.632 5.00473Z" fill="white"/>
<path d="M7.55875 137.214C16.7831 139.73 27.684 138.612 37.1863 138.053C47.8069 137.494 58.7078 137.214 69.3302 137.214C79.3917 137.214 89.7339 137.494 99.7972 138.053C110.978 138.612 123.275 138.612 134.176 141.406C148.711 145.32 151.505 121.003 136.971 121.562C125.789 121.842 114.33 119.885 103.15 119.605C91.9691 119.046 80.5092 119.046 69.3299 119.605C58.7093 120.164 47.8084 121.003 37.186 122.399C27.1245 123.517 15.3843 124.915 6.71906 130.506C3.64611 131.904 4.20496 136.097 7.55829 137.214L7.55875 137.214Z" fill="white"/>
<path d="M194.831 13.6709C190.358 16.4653 188.682 20.9381 186.446 25.6896C182.253 34.6332 179.459 44.697 176.104 54.1998C168.556 75.7213 157.096 103.953 167.439 126.032C172.749 137.213 183.93 146.157 196.788 142.243C209.924 138.329 217.191 126.591 218.589 113.454C222.223 84.1049 209.924 54.1989 201.539 26.806C201.259 26.2471 200.98 25.6882 200.7 25.1293C200.98 21.7761 200.98 18.7015 199.861 16.1856C199.304 13.6698 196.788 12.2717 194.831 13.6698L194.831 13.6709ZM202.938 96.6854C203.497 105.351 204.055 123.797 192.037 125.474C178.9 127.431 180.297 102.833 181.695 95.5658C184.489 81.3116 188.962 67.0555 193.154 52.8018C194.272 55.5962 195.111 58.671 196.229 61.467C199.862 73.2073 202.378 84.3865 202.937 96.6854H202.938Z" fill="white"/>
</g>
<defs>
<filter id="filter0_d_9_2623" x="0.700439" y="0.287659" width="222.544" height="156.89" filterUnits="userSpaceOnUse" color-interpolation-filters="sRGB">
<feFlood flood-opacity="0" result="BackgroundImageFix"/>
<feColorMatrix in="SourceAlpha" type="matrix" values="0 0 0 0 0 0 0 0 0 0 0 0 0 0 0 0 0 0 127 0" result="hardAlpha"/>
<feOffset dy="10"/>
<feGaussianBlur stdDeviation="2"/>
<feComposite in2="hardAlpha" operator="out"/>
<feColorMatrix type="matrix" values="0 0 0 0 0 0 0 0 0 0 0 0 0 0 0 0 0 0 0.25 0"/>
<feBlend mode="normal" in2="BackgroundImageFix" result="effect1_dropShadow_9_2623"/>
<feBlend mode="normal" in="SourceGraphic" in2="effect1_dropShadow_9_2623" result="shape"/>
</filter>
</defs>
</svg>
