<?xml version="1.0" encoding="UTF-8"?>
<svg width="700pt" height="700pt" version="1.1" viewBox="0 0 700 700" xmlns="http://www.w3.org/2000/svg" xmlns:xlink="http://www.w3.org/1999/xlink">
 <g>
  <path d="m214.62 184v14.77c0 16-1.2305 32.617 1.8477 48 3.6914 19.691 32.617 13.539 33.848-4.3086 0.61719-12.309-1.2305-25.23-2.4609-37.539-0.61719-5.5391-0.61719-11.691-1.2305-17.23 0-0.61719 0-1.8477-0.61719-3.0781 12.922 0 26.461-0.61719 38.77-3.0781 17.23-3.0781 17.848-32.617 0-35.078-24.617-3.6914-50.461-0.61719-75.691 0-24 0.61719-51.078 0-73.848 8-12.309 4.3086-12.922 21.539 0 25.23 23.383 7.3828 49.848 4.9219 73.848 4.9219 2.457-0.60938 4.3008-0.60938 5.5352-0.60938z"/>
  <path d="m538.31 145.85c-24.617-3.6914-50.461-0.61719-75.691 0-24 0.61719-51.078 0-73.848 8-12.309 4.3086-12.922 21.539 0 25.23 23.383 7.3828 49.848 4.9219 73.848 4.9219h4.9219v14.77c0 16-1.2305 32.617 1.8477 48 3.6914 19.691 32.617 13.539 33.848-4.3086 0.61719-12.309-1.2305-25.23-2.4609-37.539-0.61719-5.5391-0.61719-11.691-1.2305-17.23 0-0.61719 0-1.8477-0.61719-3.0781 12.922 0 26.461-0.61719 38.77-3.0781 17.844-3.6875 18.457-33.227 0.61328-35.688z"/>
  <path d="m484.77 377.23c-51.078-6.7695-101.54-11.078-153.23-9.2305-24.617 0.61719-49.23 2.4609-73.848 5.5391-22.152 3.0781-52.922 4.9219-70.77 19.078-6.7695 5.5391-6.1523 14.77 2.4609 17.848 19.691 7.3828 47.383 3.0781 68.309 2.4609 23.383-0.61719 46.77-1.2305 70.152-1.2305 48 0.61719 96.617 3.6914 144.62 10.461 12.309 1.8477 24.617-3.0781 28.309-16 3.0781-11.695-3.6914-27.695-16-28.926z"/>
  <use x="70" y="652.308594" xlink:href="#v"/>
  <use x="92.582031" y="652.308594" xlink:href="#d"/>
  <use x="107.753906" y="652.308594" xlink:href="#b"/>
  <use x="128.625" y="652.308594" xlink:href="#j"/>
  <use x="149.386719" y="652.308594" xlink:href="#c"/>
  <use x="164.09375" y="652.308594" xlink:href="#b"/>
  <use x="184.964844" y="652.308594" xlink:href="#i"/>
  <use x="217.703125" y="652.308594" xlink:href="#g"/>
  <use x="239.726562" y="652.308594" xlink:href="#f"/>
  <use x="270.496094" y="652.308594" xlink:href="#h"/>
  <use x="293.949219" y="652.308594" xlink:href="#a"/>
  <use x="315.085938" y="652.308594" xlink:href="#e"/>
  <use x="347.148438" y="652.308594" xlink:href="#u"/>
  <use x="369.308594" y="652.308594" xlink:href="#f"/>
  <use x="389.367187" y="652.308594" xlink:href="#e"/>
  <use x="421.425781" y="652.308594" xlink:href="#g"/>
  <use x="443.453125" y="652.308594" xlink:href="#a"/>
  <use x="464.589844" y="652.308594" xlink:href="#t"/>
  <use x="475.136719" y="652.308594" xlink:href="#s"/>
  <use x="70" y="683.078125" xlink:href="#r"/>
  <use x="83.386719" y="683.078125" xlink:href="#d"/>
  <use x="98.5625" y="683.078125" xlink:href="#a"/>
  <use x="119.699219" y="683.078125" xlink:href="#e"/>
  <use x="162.472656" y="683.078125" xlink:href="#c"/>
  <use x="177.179688" y="683.078125" xlink:href="#q"/>
  <use x="199.085937" y="683.078125" xlink:href="#b"/>
  <use x="230.667969" y="683.078125" xlink:href="#p"/>
  <use x="256.417969" y="683.078125" xlink:href="#a"/>
  <use x="277.558594" y="683.078125" xlink:href="#o"/>
  <use x="299.460938" y="683.078125" xlink:href="#n"/>
  <use x="332.078125" y="683.078125" xlink:href="#m"/>
  <use x="354.628906" y="683.078125" xlink:href="#d"/>
  <use x="369.804688" y="683.078125" xlink:href="#a"/>
  <use x="390.945312" y="683.078125" xlink:href="#l"/>
  <use x="401.492187" y="683.078125" xlink:href="#b"/>
  <use x="422.359375" y="683.078125" xlink:href="#k"/>
  <use x="440.597656" y="683.078125" xlink:href="#c"/>
 </g>
</svg>
