<?xml version="1.0" encoding="UTF-8"?>
<svg width="700pt" height="700pt" version="1.1" viewBox="0 0 700 700" xmlns="http://www.w3.org/2000/svg" xmlns:xlink="http://www.w3.org/1999/xlink">
 <g>
  <path d="m171.54 238.77c22.77-9.2305 41.848-25.848 58.461-44.922 12.922 12.922 25.848 25.848 37.539 39.383 17.848 20.922 51.078-12.309 30.152-30.152-19.078-16-36.922-34.461-55.383-51.691-9.2305-8.6172-23.383-6.7695-30.152 3.6914-15.383 22.77-32.617 42.461-53.539 60.309-10.465 9.2305 0 28.922 12.922 23.383z"/>
  <path d="m412.15 238.77c22.77-9.2305 41.848-25.848 58.461-44.922 12.922 12.922 25.848 25.848 37.539 39.383 17.848 20.922 51.078-12.309 30.152-30.152-19.078-16-36.922-34.461-55.383-51.691-9.2305-8.6172-23.383-6.7695-30.152 3.6914-15.383 22.77-32.617 42.461-53.539 60.309-10.461 9.2305 0.61719 28.922 12.922 23.383z"/>
  <path d="m201.69 360c7.3828 9.8477 14.152 19.691 24.617 27.078 11.691 8 24 13.539 36.922 18.461 25.23 9.8477 52.309 15.383 80 17.23 27.691 1.8477 56.617-1.8477 83.691-9.2305 26.461-6.7695 58.461-17.848 77.539-37.539 14.77-15.383-3.6914-35.078-21.539-27.691-22.77 9.8477-41.848 22.77-65.848 30.152-24 6.7695-48.617 9.2305-73.848 9.2305-48.617 0-91.078-19.078-134.77-36.309-4.918-1.8438-9.8398 4.9258-6.7656 8.6172z"/>





































 </g>
</svg>
