<?xml version="1.0" encoding="UTF-8"?>
<svg width="700pt" height="700pt" version="1.1" viewBox="0 0 700 700" xmlns="http://www.w3.org/2000/svg" xmlns:xlink="http://www.w3.org/1999/xlink">
 <g>
  <path d="m171.54 238.77c22.77-9.2305 41.848-25.848 58.461-44.922 12.922 12.922 25.848 25.848 37.539 39.383 17.848 20.922 51.078-12.309 30.152-30.152-19.078-16-36.922-34.461-55.383-51.691-9.2305-8.6172-23.383-6.7695-30.152 3.6914-15.383 22.77-32.617 42.461-53.539 60.309-10.465 9.2305 0 28.922 12.922 23.383z"/>
  <path d="m412.15 238.77c22.77-9.2305 41.848-25.848 58.461-44.922 12.922 12.922 25.848 25.848 37.539 39.383 17.848 20.922 51.078-12.309 30.152-30.152-19.078-16-36.922-34.461-55.383-51.691-9.2305-8.6172-23.383-6.7695-30.152 3.6914-15.383 22.77-32.617 42.461-53.539 60.309-10.461 9.2305 0.61719 28.922 12.922 23.383z"/>
  <path d="m201.69 360c7.3828 9.8477 14.152 19.691 24.617 27.078 11.691 8 24 13.539 36.922 18.461 25.23 9.8477 52.309 15.383 80 17.23 27.691 1.8477 56.617-1.8477 83.691-9.2305 26.461-6.7695 58.461-17.848 77.539-37.539 14.77-15.383-3.6914-35.078-21.539-27.691-22.77 9.8477-41.848 22.77-65.848 30.152-24 6.7695-48.617 9.2305-73.848 9.2305-48.617 0-91.078-19.078-134.77-36.309-4.918-1.8438-9.8398 4.9258-6.7656 8.6172z"/>
  <use x="70" y="652.308594" xlink:href="#v"/>
  <use x="92.582031" y="652.308594" xlink:href="#d"/>
  <use x="107.753906" y="652.308594" xlink:href="#b"/>
  <use x="128.625" y="652.308594" xlink:href="#j"/>
  <use x="149.386719" y="652.308594" xlink:href="#c"/>
  <use x="164.09375" y="652.308594" xlink:href="#b"/>
  <use x="184.964844" y="652.308594" xlink:href="#i"/>
  <use x="217.703125" y="652.308594" xlink:href="#g"/>
  <use x="239.726562" y="652.308594" xlink:href="#f"/>
  <use x="270.496094" y="652.308594" xlink:href="#h"/>
  <use x="293.949219" y="652.308594" xlink:href="#a"/>
  <use x="315.085938" y="652.308594" xlink:href="#e"/>
  <use x="347.148438" y="652.308594" xlink:href="#u"/>
  <use x="369.308594" y="652.308594" xlink:href="#f"/>
  <use x="389.367187" y="652.308594" xlink:href="#e"/>
  <use x="421.425781" y="652.308594" xlink:href="#g"/>
  <use x="443.453125" y="652.308594" xlink:href="#a"/>
  <use x="464.589844" y="652.308594" xlink:href="#t"/>
  <use x="475.136719" y="652.308594" xlink:href="#s"/>
  <use x="70" y="683.078125" xlink:href="#r"/>
  <use x="83.386719" y="683.078125" xlink:href="#d"/>
  <use x="98.5625" y="683.078125" xlink:href="#a"/>
  <use x="119.699219" y="683.078125" xlink:href="#e"/>
  <use x="162.472656" y="683.078125" xlink:href="#c"/>
  <use x="177.179688" y="683.078125" xlink:href="#q"/>
  <use x="199.085937" y="683.078125" xlink:href="#b"/>
  <use x="230.667969" y="683.078125" xlink:href="#p"/>
  <use x="256.417969" y="683.078125" xlink:href="#a"/>
  <use x="277.558594" y="683.078125" xlink:href="#o"/>
  <use x="299.460938" y="683.078125" xlink:href="#n"/>
  <use x="332.078125" y="683.078125" xlink:href="#m"/>
  <use x="354.628906" y="683.078125" xlink:href="#d"/>
  <use x="369.804688" y="683.078125" xlink:href="#a"/>
  <use x="390.945312" y="683.078125" xlink:href="#l"/>
  <use x="401.492187" y="683.078125" xlink:href="#b"/>
  <use x="422.359375" y="683.078125" xlink:href="#k"/>
  <use x="440.597656" y="683.078125" xlink:href="#c"/>
 </g>
</svg>
