<svg width="210" height="158" viewBox="0 0 210 158" fill="none" xmlns="http://www.w3.org/2000/svg">
<g filter="url(#filter0_d_9_2610)">
<path d="M12.9867 48.126C24.7194 43.3697 34.5498 34.8072 43.11 24.9789C49.7684 31.6373 56.4288 38.2977 62.4528 45.2719C71.6494 56.0524 88.7719 38.9294 77.9893 29.7354C68.1589 21.491 58.9644 11.9786 49.452 3.10047C44.6958 -1.33973 37.4034 -0.387658 33.9155 5.00255C25.9891 16.7353 17.1089 26.8815 6.32835 36.0781C0.936033 40.8343 6.32835 50.9808 12.9867 48.1267V48.126Z" fill="white"/>
<path d="M136.966 48.1258C148.699 43.3696 158.529 34.8071 167.09 24.9788C173.748 31.6371 180.408 38.2975 186.432 45.2718C195.629 56.0523 212.751 38.9293 201.969 29.7353C192.139 21.4909 182.944 11.9785 173.432 3.10035C168.675 -1.33985 161.383 -0.38778 157.895 5.00243C149.969 16.7352 141.088 26.8814 130.308 36.078C124.918 40.8342 130.626 50.9806 136.966 48.1266V48.1258Z" fill="white"/>
<path d="M28.5221 110.592C32.3262 115.666 35.8142 120.738 41.2065 124.545C47.2306 128.667 53.573 131.521 60.2314 134.057C73.2317 139.131 87.1847 141.984 101.453 142.935C115.722 143.887 130.626 141.983 144.577 138.179C158.211 134.691 174.7 128.983 184.53 118.836C192.141 110.91 182.628 100.762 173.432 104.568C161.699 109.642 151.869 116.301 139.502 120.104C127.136 123.593 114.451 124.861 101.451 124.861C76.3996 124.861 54.5206 115.03 32.0074 106.152C29.4732 105.202 26.9372 108.69 28.5212 110.592L28.5221 110.592Z" fill="white"/>
</g>
<defs>
<filter id="filter0_d_9_2610" x="0.125488" y="0.287659" width="209.292" height="156.89" filterUnits="userSpaceOnUse" color-interpolation-filters="sRGB">
<feFlood flood-opacity="0" result="BackgroundImageFix"/>
<feColorMatrix in="SourceAlpha" type="matrix" values="0 0 0 0 0 0 0 0 0 0 0 0 0 0 0 0 0 0 127 0" result="hardAlpha"/>
<feOffset dy="10"/>
<feGaussianBlur stdDeviation="2"/>
<feComposite in2="hardAlpha" operator="out"/>
<feColorMatrix type="matrix" values="0 0 0 0 0 0 0 0 0 0 0 0 0 0 0 0 0 0 0.25 0"/>
<feBlend mode="normal" in2="BackgroundImageFix" result="effect1_dropShadow_9_2610"/>
<feBlend mode="normal" in="SourceGraphic" in2="effect1_dropShadow_9_2610" result="shape"/>
</filter>
</defs>
</svg>
