<svg width="135" height="158" viewBox="0 0 135 158" fill="none" xmlns="http://www.w3.org/2000/svg">
  <g filter="url(#filter0_d_9_2609)">
    <path d="M25.4936 48.1911C25.743 39.9836 25.9909 31.7765 25.9909 23.5705C25.9909 17.1044 26.9854 9.39434 24.499 3.42529C23.0072 -0.0572133 17.5358 0.441649 15.7944 3.42529C12.5613 9.14458 13.0586 17.3521 12.3119 23.5705C11.5652 31.7781 11.0679 39.9852 10.3228 48.1911C9.82552 57.6426 25.2458 57.8903 25.4936 48.1911Z" />
    <path d="M89.658 54.1602C94.8802 58.3878 102.59 67.3418 109.553 67.8393C118.009 70.5751 121.989 60.3786 110.797 52.1711C107.067 49.4353 103.337 46.202 99.6066 43.2187C98.8598 42.472 97.8653 41.9747 97.1202 41.2296C105.825 41.9763 115.275 41.2296 123.482 41.2296C132.932 41.479 132.932 26.5559 123.482 26.5559C114.777 26.5559 104.83 25.5614 95.3788 26.5559C100.601 20.0898 105.575 13.6236 109.555 6.41067C111.296 3.1776 107.566 -1.29939 104.333 1.18846C92.8922 9.64373 83.193 20.5869 72.7489 30.5354C70.0132 33.0218 69.7653 38.4932 72.7489 40.9814C78.2173 44.958 83.9386 49.6845 89.6579 54.1598L89.658 54.1602Z" />
    <path d="M33.7015 120.563C38.1785 125.04 42.1568 129.766 45.8869 134.74C48.6227 138.222 51.3585 141.703 55.8355 142.947C60.5602 144.191 64.2908 142.45 68.0209 139.714C73.4925 135.486 78.7147 131.009 83.9369 126.782C89.1591 122.554 94.6307 118.077 99.8529 113.85C105.075 109.622 111.044 105.642 115.271 100.42C120.246 94.2034 114.277 85.4988 106.567 89.2293C96.6182 93.954 87.9152 103.156 79.4583 110.119C75.2307 113.602 71.003 116.835 67.0231 120.316C65.0372 121.558 62.5494 124.543 60.3109 125.538C59.8136 125.787 59.3163 126.035 59.3163 126.035C58.819 125.288 58.0724 124.791 57.5751 124.046C46.1345 110.119 29.9691 93.207 11.8151 88.233C6.59285 86.7412 2.61295 93.4552 6.59285 97.1853C14.8004 105.642 25.246 112.108 33.7013 120.564L33.7015 120.563Z" />
  </g>
  <defs>
    <filter id="filter0_d_9_2609" x="0.974121" y="0.465729" width="133.595" height="156.89" filterUnits="userSpaceOnUse" color-interpolation-filters="sRGB">
      <feFlood flood-opacity="0" result="BackgroundImageFix"/>
      <feColorMatrix in="SourceAlpha" type="matrix" values="0 0 0 0 0 0 0 0 0 0 0 0 0 0 0 0 0 0 127 0" result="hardAlpha"/>
      <feOffset dy="10"/>
      <feGaussianBlur stdDeviation="2"/>
      <feComposite in2="hardAlpha" operator="out"/>
      <feColorMatrix type="matrix" values="0 0 0 0 0 0 0 0 0 0 0 0 0 0 0 0 0 0 0.25 0"/>
      <feBlend mode="normal" in2="BackgroundImageFix" result="effect1_dropShadow_9_2609"/>
      <feBlend mode="normal" in="SourceGraphic" in2="effect1_dropShadow_9_2609" result="shape"/>
    </filter>
  </defs>
</svg>
