<?xml version="1.0" encoding="UTF-8"?>
<svg width="700pt" height="700pt" version="1.1" viewBox="0 0 700 700" xmlns="http://www.w3.org/2000/svg" xmlns:xlink="http://www.w3.org/1999/xlink">
 <g>
  <path d="m255.23 236.92c0.61719-20.309 1.2305-40.617 1.2305-60.922 0-16 2.4609-35.078-3.6914-49.848-3.6914-8.6172-17.23-7.3828-21.539 0-8 14.152-6.7695 34.461-8.6172 49.848-1.8477 20.309-3.0781 40.617-4.9219 60.922-1.2305 23.387 36.926 24 37.539 0z"/>
  <path d="m414 251.69c12.922 10.461 32 32.617 49.23 33.848 20.922 6.7695 30.77-18.461 3.0781-38.77-9.2305-6.7695-18.461-14.77-27.691-22.152-1.8477-1.8477-4.3086-3.0781-6.1523-4.9219 21.539 1.8477 44.922 0 65.23 0 23.383 0.61719 23.383-36.309 0-36.309-21.539 0-46.152-2.4609-69.539 0 12.922-16 25.23-32 35.078-49.848 4.3086-8-4.9219-19.078-12.922-12.922-28.309 20.922-52.309 48-78.152 72.617-6.7695 6.1523-7.3828 19.691 0 25.848 13.531 9.8398 27.688 21.535 41.84 32.609z"/>
  <path d="m275.54 416c11.078 11.078 20.922 22.77 30.152 35.078 6.7695 8.6172 13.539 17.23 24.617 20.309 11.691 3.0781 20.922-1.2305 30.152-8 13.539-10.461 26.461-21.539 39.383-32 12.922-10.461 26.461-21.539 39.383-32 12.922-10.461 27.691-20.309 38.152-33.23 12.309-15.383-2.4609-36.922-21.539-27.691-24.617 11.691-46.152 34.461-67.078 51.691-10.461 8.6172-20.922 16.617-30.77 25.23-4.9141 3.0742-11.07 10.461-16.609 12.922-1.2305 0.61719-2.4609 1.2305-2.4609 1.2305-1.2305-1.8477-3.0781-3.0781-4.3086-4.9219-28.309-34.461-68.309-76.309-113.23-88.617-12.922-3.6914-22.77 12.922-12.922 22.152 20.309 20.926 46.156 36.926 67.078 57.848z"/>





































 </g>
</svg>
