<?xml version="1.0" encoding="UTF-8"?>
<svg width="700pt" height="700pt" version="1.1" viewBox="0 0 700 700" xmlns="http://www.w3.org/2000/svg" xmlns:xlink="http://www.w3.org/1999/xlink">
 <g>
  <path d="m255.23 236.92c0.61719-20.309 1.2305-40.617 1.2305-60.922 0-16 2.4609-35.078-3.6914-49.848-3.6914-8.6172-17.23-7.3828-21.539 0-8 14.152-6.7695 34.461-8.6172 49.848-1.8477 20.309-3.0781 40.617-4.9219 60.922-1.2305 23.387 36.926 24 37.539 0z"/>
  <path d="m414 251.69c12.922 10.461 32 32.617 49.23 33.848 20.922 6.7695 30.77-18.461 3.0781-38.77-9.2305-6.7695-18.461-14.77-27.691-22.152-1.8477-1.8477-4.3086-3.0781-6.1523-4.9219 21.539 1.8477 44.922 0 65.23 0 23.383 0.61719 23.383-36.309 0-36.309-21.539 0-46.152-2.4609-69.539 0 12.922-16 25.23-32 35.078-49.848 4.3086-8-4.9219-19.078-12.922-12.922-28.309 20.922-52.309 48-78.152 72.617-6.7695 6.1523-7.3828 19.691 0 25.848 13.531 9.8398 27.688 21.535 41.84 32.609z"/>
  <path d="m275.54 416c11.078 11.078 20.922 22.77 30.152 35.078 6.7695 8.6172 13.539 17.23 24.617 20.309 11.691 3.0781 20.922-1.2305 30.152-8 13.539-10.461 26.461-21.539 39.383-32 12.922-10.461 26.461-21.539 39.383-32 12.922-10.461 27.691-20.309 38.152-33.23 12.309-15.383-2.4609-36.922-21.539-27.691-24.617 11.691-46.152 34.461-67.078 51.691-10.461 8.6172-20.922 16.617-30.77 25.23-4.9141 3.0742-11.07 10.461-16.609 12.922-1.2305 0.61719-2.4609 1.2305-2.4609 1.2305-1.2305-1.8477-3.0781-3.0781-4.3086-4.9219-28.309-34.461-68.309-76.309-113.23-88.617-12.922-3.6914-22.77 12.922-12.922 22.152 20.309 20.926 46.156 36.926 67.078 57.848z"/>
  <use x="70" y="652.308594" xlink:href="#v"/>
  <use x="92.582031" y="652.308594" xlink:href="#d"/>
  <use x="107.753906" y="652.308594" xlink:href="#b"/>
  <use x="128.625" y="652.308594" xlink:href="#j"/>
  <use x="149.386719" y="652.308594" xlink:href="#c"/>
  <use x="164.09375" y="652.308594" xlink:href="#b"/>
  <use x="184.964844" y="652.308594" xlink:href="#i"/>
  <use x="217.703125" y="652.308594" xlink:href="#g"/>
  <use x="239.726562" y="652.308594" xlink:href="#f"/>
  <use x="270.496094" y="652.308594" xlink:href="#h"/>
  <use x="293.949219" y="652.308594" xlink:href="#a"/>
  <use x="315.085938" y="652.308594" xlink:href="#e"/>
  <use x="347.148438" y="652.308594" xlink:href="#u"/>
  <use x="369.308594" y="652.308594" xlink:href="#f"/>
  <use x="389.367187" y="652.308594" xlink:href="#e"/>
  <use x="421.425781" y="652.308594" xlink:href="#g"/>
  <use x="443.453125" y="652.308594" xlink:href="#a"/>
  <use x="464.589844" y="652.308594" xlink:href="#t"/>
  <use x="475.136719" y="652.308594" xlink:href="#s"/>
  <use x="70" y="683.078125" xlink:href="#r"/>
  <use x="83.386719" y="683.078125" xlink:href="#d"/>
  <use x="98.5625" y="683.078125" xlink:href="#a"/>
  <use x="119.699219" y="683.078125" xlink:href="#e"/>
  <use x="162.472656" y="683.078125" xlink:href="#c"/>
  <use x="177.179688" y="683.078125" xlink:href="#q"/>
  <use x="199.085937" y="683.078125" xlink:href="#b"/>
  <use x="230.667969" y="683.078125" xlink:href="#p"/>
  <use x="256.417969" y="683.078125" xlink:href="#a"/>
  <use x="277.558594" y="683.078125" xlink:href="#o"/>
  <use x="299.460938" y="683.078125" xlink:href="#n"/>
  <use x="332.078125" y="683.078125" xlink:href="#m"/>
  <use x="354.628906" y="683.078125" xlink:href="#d"/>
  <use x="369.804688" y="683.078125" xlink:href="#a"/>
  <use x="390.945312" y="683.078125" xlink:href="#l"/>
  <use x="401.492187" y="683.078125" xlink:href="#b"/>
  <use x="422.359375" y="683.078125" xlink:href="#k"/>
  <use x="440.597656" y="683.078125" xlink:href="#c"/>
 </g>
</svg>
