<svg width="210" height="158" viewBox="0 0 210 158" fill="none" xmlns="http://www.w3.org/2000/svg">
<g filter="url(#filter0_d_41_4)">
<path d="M12.8612 48.126C24.594 43.3697 34.4243 34.8072 42.9845 24.9789C49.6429 31.6373 56.3033 38.2977 62.3273 45.2719C71.5239 56.0524 88.6464 38.9294 77.8638 29.7354C68.0334 21.491 58.8389 11.9786 49.3265 3.10047C44.5703 -1.33973 37.2779 -0.387658 33.79 5.00255C25.8636 16.7353 16.9834 26.8815 6.20287 36.0781C0.810545 40.8343 6.20286 50.9808 12.8612 48.1267V48.126Z" fill="white"/>
<path d="M136.841 48.1258C148.574 43.3696 158.404 34.8071 166.964 24.9788C173.622 31.6371 180.283 38.2975 186.307 45.2718C195.504 56.0523 212.626 38.9293 201.843 29.7353C192.013 21.4909 182.819 11.9785 173.306 3.10035C168.55 -1.33985 161.258 -0.38778 157.77 5.00243C149.843 16.7352 140.963 26.8814 130.182 36.078C124.792 40.8342 130.501 50.9806 136.841 48.1266V48.1258Z" fill="white"/>
<path d="M28.3966 110.592C32.2007 115.666 35.6887 120.738 41.081 124.545C47.1051 128.667 53.4475 131.521 60.1059 134.057C73.1062 139.131 87.0592 141.984 101.328 142.935C115.596 143.887 130.501 141.983 144.451 138.179C158.086 134.691 174.575 128.983 184.405 118.836C192.016 110.91 182.503 100.762 173.306 104.568C161.574 109.642 151.743 116.301 139.377 120.104C127.01 123.593 114.326 124.861 101.325 124.861C76.2741 124.861 54.3951 115.03 31.8819 106.152C29.3478 105.202 26.8117 108.69 28.3957 110.592L28.3966 110.592Z" fill="white"/>
</g>
<defs>
<filter id="filter0_d_41_4" x="0" y="0.287659" width="209.292" height="156.89" filterUnits="userSpaceOnUse" color-interpolation-filters="sRGB">
<feFlood flood-opacity="0" result="BackgroundImageFix"/>
<feColorMatrix in="SourceAlpha" type="matrix" values="0 0 0 0 0 0 0 0 0 0 0 0 0 0 0 0 0 0 127 0" result="hardAlpha"/>
<feOffset dy="10"/>
<feGaussianBlur stdDeviation="2"/>
<feComposite in2="hardAlpha" operator="out"/>
<feColorMatrix type="matrix" values="0 0 0 0 0 0 0 0 0 0 0 0 0 0 0 0 0 0 0.25 0"/>
<feBlend mode="normal" in2="BackgroundImageFix" result="effect1_dropShadow_41_4"/>
<feBlend mode="normal" in="SourceGraphic" in2="effect1_dropShadow_41_4" result="shape"/>
</filter>
</defs>
</svg>
