<?xml version="1.0" encoding="UTF-8"?>
<svg width="700pt" height="700pt" version="1.1" viewBox="0 0 700 700" xmlns="http://www.w3.org/2000/svg" xmlns:xlink="http://www.w3.org/1999/xlink">
 <g>
  <path d="m268.77 129.85c-16.617 15.383-33.23 34.461-51.691 48.617-16.617-15.383-56-70.152-67.078-49.23-5.5391 11.078 6.1523 23.383 12.309 31.383 9.8477 12.922 20.309 25.848 30.152 38.152 9.8477 11.691 21.539 22.77 36.922 12.922 24-14.77 44.922-36.309 67.078-54.152 19.691-16-8.6133-45.539-27.691-27.691z"/>
  <path d="m505.69 129.85c-16.617 15.383-33.23 34.461-51.691 48.617-16.617-15.383-56-70.152-67.078-49.23-5.5391 11.078 6.1523 23.383 12.309 31.383 9.8477 12.922 20.309 25.848 30.152 38.152 9.8477 11.691 21.539 22.77 36.922 12.922 24-14.77 44.922-36.309 67.078-54.152 19.695-16-9.2305-45.539-27.691-27.691z"/>
  <path d="m401.08 394.46c-6.1523 36.309-3.6914 88.617 43.078 93.539 46.152 4.9219 69.539-44.922 68.309-83.691-0.61719-25.23-8-49.23-15.383-73.23-8.6172-27.078-15.383-53.539-20.922-80.617-4.3086-19.078-36.309-15.383-35.078 4.9219 0 3.6914 0.61719 6.7695 1.2305 10.461-9.8477 17.848-15.383 40-22.152 58.461-8.0078 22.773-15.391 46.156-19.082 70.156zm37.539-37.539c4.3086-13.539 10.461-28.922 15.383-43.691 5.5391 16.617 11.691 33.23 17.848 50.461 6.7695 19.078 11.691 40 7.3828 60.309-3.6914 16.617-16.617 35.078-35.691 32-34.461-5.5391-10.461-80-4.9219-99.078z"/>
  <use x="70" y="652.308594" xlink:href="#v"/>
  <use x="92.582031" y="652.308594" xlink:href="#d"/>
  <use x="107.753906" y="652.308594" xlink:href="#b"/>
  <use x="128.625" y="652.308594" xlink:href="#j"/>
  <use x="149.386719" y="652.308594" xlink:href="#c"/>
  <use x="164.09375" y="652.308594" xlink:href="#b"/>
  <use x="184.964844" y="652.308594" xlink:href="#i"/>
  <use x="217.703125" y="652.308594" xlink:href="#g"/>
  <use x="239.726562" y="652.308594" xlink:href="#f"/>
  <use x="270.496094" y="652.308594" xlink:href="#h"/>
  <use x="293.949219" y="652.308594" xlink:href="#a"/>
  <use x="315.085938" y="652.308594" xlink:href="#e"/>
  <use x="347.148438" y="652.308594" xlink:href="#u"/>
  <use x="369.308594" y="652.308594" xlink:href="#f"/>
  <use x="389.367187" y="652.308594" xlink:href="#e"/>
  <use x="421.425781" y="652.308594" xlink:href="#g"/>
  <use x="443.453125" y="652.308594" xlink:href="#a"/>
  <use x="464.589844" y="652.308594" xlink:href="#t"/>
  <use x="475.136719" y="652.308594" xlink:href="#s"/>
  <use x="70" y="683.078125" xlink:href="#r"/>
  <use x="83.386719" y="683.078125" xlink:href="#d"/>
  <use x="98.5625" y="683.078125" xlink:href="#a"/>
  <use x="119.699219" y="683.078125" xlink:href="#e"/>
  <use x="162.472656" y="683.078125" xlink:href="#c"/>
  <use x="177.179688" y="683.078125" xlink:href="#q"/>
  <use x="199.085937" y="683.078125" xlink:href="#b"/>
  <use x="230.667969" y="683.078125" xlink:href="#p"/>
  <use x="256.417969" y="683.078125" xlink:href="#a"/>
  <use x="277.558594" y="683.078125" xlink:href="#o"/>
  <use x="299.460938" y="683.078125" xlink:href="#n"/>
  <use x="332.078125" y="683.078125" xlink:href="#m"/>
  <use x="354.628906" y="683.078125" xlink:href="#d"/>
  <use x="369.804688" y="683.078125" xlink:href="#a"/>
  <use x="390.945312" y="683.078125" xlink:href="#l"/>
  <use x="401.492187" y="683.078125" xlink:href="#b"/>
  <use x="422.359375" y="683.078125" xlink:href="#k"/>
  <use x="440.597656" y="683.078125" xlink:href="#c"/>
 </g>
</svg>
