<?xml version="1.0" encoding="UTF-8"?>
<svg width="700pt" height="700pt" version="1.1" viewBox="0 0 700 700" xmlns="http://www.w3.org/2000/svg" xmlns:xlink="http://www.w3.org/1999/xlink">
 <g>
  <path d="m222 147.08c-17.23 0-40.617-1.2305-54.77 9.2305-6.1523 4.9219-8 14.77 0 19.078 15.383 8.6172 34.461 6.1523 51.078 7.3828 8.6172 0.61719 17.23 1.8477 25.848 3.0781-12.922 13.539-25.23 28.922-32.617 44.309-9.8477 20.309 16 44.309 33.23 25.848 21.539-22.77 36.922-51.078 58.461-73.848 9.2305-9.8477 6.1523-22.77-3.6914-30.152-16-11.691-30.152-24.617-44.309-38.77-10.461-10.461-19.691-28.309-36.309-28.309-4.3086 0-7.3828 3.0781-8.6172 6.7695-6.7695 16.617 11.078 35.078 20.309 47.383 2.4609 3.0781 4.9219 6.1523 7.3828 9.2305-5.5352-1.2305-11.074-1.2305-15.996-1.2305z"/>
  <path d="m177.69 251.69c0-6.1523-3.0781-9.8477-7.3828-11.691-1.2305-3.0781-4.9219-4.9219-8-3.0781-17.23 9.2305-30.152 20.922-44.922 33.23-12.922 11.078-25.848 21.539-35.691 35.691-14.152 20.922-17.23 53.539 4.9219 70.152 21.539 16.617 50.461 3.6914 64.617-16.617 9.2305-13.539 12.922-30.152 16-45.539 4.3047-20.301 9.8438-41.84 10.457-62.148zm-39.383 69.539c-1.8477 9.2305-3.6914 20.922-9.8477 28.309-8.6172 11.078-25.23 14.77-31.383-0.61719-8-20.922 12.922-39.383 26.461-52.922 7.3828-7.3828 14.77-14.77 22.152-22.152-3.0742 15.383-4.3086 32-7.3828 47.383z"/>
  <path d="m533.38 156.31c-14.152-10.461-37.539-9.2305-54.77-9.2305h-16c2.4609-3.0781 4.9219-6.1523 7.3828-9.2305 9.2305-12.309 27.078-30.77 20.309-47.383-1.8477-3.6914-4.3086-6.7695-8.6172-6.7695-16.617 0-25.848 17.848-36.309 28.309-13.539 14.152-27.691 27.691-44.309 38.77-10.461 7.3828-12.922 20.309-3.6914 30.152 21.539 22.77 36.922 51.078 58.461 73.848 17.23 18.461 43.078-4.9219 33.23-25.848-7.3828-15.383-19.691-30.77-32.617-44.309 8.6172-1.2305 17.23-2.4609 25.848-3.0781 17.23-1.2305 36.309 1.2305 51.078-7.3828 7.3906-3.0781 6.1602-12.926 0.003906-17.848z"/>
  <path d="m585.69 272.62c-15.383-13.539-29.539-25.848-47.383-35.691-3.0781-1.8477-7.3828 0-8 3.0781-4.3086 1.8477-7.3828 5.5391-7.3828 11.691 0 19.691 5.5391 40 9.8477 59.078 3.6914 16 6.7695 32.617 15.383 46.77 13.539 21.539 43.691 35.691 65.848 19.078 20.922-16 19.078-47.383 6.1523-67.691-8.6172-14.777-21.539-25.852-34.465-36.312zm17.23 76.305c-5.5391 13.539-19.691 12.922-28.922 3.0781-8-8-10.461-20.309-12.309-30.77-3.0781-15.383-4.3086-32-6.7695-47.383 7.3828 7.3828 14.77 14.77 22.152 22.152 12.926 13.539 33.848 32 25.848 52.922z"/>
  <path d="m515.54 380.92c1.8438-60.922-47.387-86.152-100.92-96-64.617-12.309-131.08-1.8477-189.54 28.922-22.152 11.691-2.4609 44.309 19.078 33.23 49.848-25.848 108.31-35.691 163.08-24.617 21.539 4.3086 55.383 9.8477 67.691 31.383 12.309 21.539 6.1523 59.691-15.383 73.23-25.23 16-43.691-9.2305-63.383-21.539-19.691-12.922-44.309-19.078-67.691-16-25.848 3.6914-39.383 19.078-59.078 33.848-24.617 19.078-48.617 3.0781-54.152-24.617-2.4609-12.922-24.617-13.539-26.461 0-8 52.309 49.848 88 94.77 60.922 23.383-14.152 35.691-38.77 67.078-33.23 26.461 4.9219 42.461 27.691 66.461 37.539 54.762 21.547 96.605-33.84 98.453-83.07z"/>
  <use x="70" y="652.308594" xlink:href="#v"/>
  <use x="92.582031" y="652.308594" xlink:href="#d"/>
  <use x="107.753906" y="652.308594" xlink:href="#b"/>
  <use x="128.625" y="652.308594" xlink:href="#j"/>
  <use x="149.386719" y="652.308594" xlink:href="#c"/>
  <use x="164.09375" y="652.308594" xlink:href="#b"/>
  <use x="184.964844" y="652.308594" xlink:href="#i"/>
  <use x="217.703125" y="652.308594" xlink:href="#g"/>
  <use x="239.726562" y="652.308594" xlink:href="#f"/>
  <use x="270.496094" y="652.308594" xlink:href="#h"/>
  <use x="293.949219" y="652.308594" xlink:href="#a"/>
  <use x="315.085938" y="652.308594" xlink:href="#e"/>
  <use x="347.148438" y="652.308594" xlink:href="#u"/>
  <use x="369.308594" y="652.308594" xlink:href="#f"/>
  <use x="389.367187" y="652.308594" xlink:href="#e"/>
  <use x="421.425781" y="652.308594" xlink:href="#g"/>
  <use x="443.453125" y="652.308594" xlink:href="#a"/>
  <use x="464.589844" y="652.308594" xlink:href="#t"/>
  <use x="475.136719" y="652.308594" xlink:href="#s"/>
  <use x="70" y="683.078125" xlink:href="#r"/>
  <use x="83.386719" y="683.078125" xlink:href="#d"/>
  <use x="98.5625" y="683.078125" xlink:href="#a"/>
  <use x="119.699219" y="683.078125" xlink:href="#e"/>
  <use x="162.472656" y="683.078125" xlink:href="#c"/>
  <use x="177.179688" y="683.078125" xlink:href="#q"/>
  <use x="199.085937" y="683.078125" xlink:href="#b"/>
  <use x="230.667969" y="683.078125" xlink:href="#p"/>
  <use x="256.417969" y="683.078125" xlink:href="#a"/>
  <use x="277.558594" y="683.078125" xlink:href="#o"/>
  <use x="299.460938" y="683.078125" xlink:href="#n"/>
  <use x="332.078125" y="683.078125" xlink:href="#m"/>
  <use x="354.628906" y="683.078125" xlink:href="#d"/>
  <use x="369.804688" y="683.078125" xlink:href="#a"/>
  <use x="390.945312" y="683.078125" xlink:href="#l"/>
  <use x="401.492187" y="683.078125" xlink:href="#b"/>
  <use x="422.359375" y="683.078125" xlink:href="#k"/>
  <use x="440.597656" y="683.078125" xlink:href="#c"/>
 </g>
</svg>
