<?xml version="1.0" encoding="UTF-8"?>
<svg width="700pt" height="700pt" version="1.1" viewBox="0 0 700 700" xmlns="http://www.w3.org/2000/svg" xmlns:xlink="http://www.w3.org/1999/xlink">
 <g>
  <path d="m388.15 241.85c12.922 10.461 32 32.617 49.23 33.848 13.539 1.2305 30.77-18.461 3.0781-38.77-9.2305-6.7695-18.461-14.77-27.691-22.152-1.8477-1.8477-4.3086-3.0781-6.1523-4.9219 21.539 1.8477 44.922 0 65.23 0 23.383 0.61719 23.383-36.309 0-36.309-21.539 0-46.152-2.4609-69.539 0 12.922-16 25.23-32 35.078-49.848 4.3086-8-4.9219-19.078-12.922-12.922-28.309 20.922-52.309 48-78.152 72.617-6.7695 6.1523-7.3828 19.691 0 25.848 13.535 10.453 27.688 21.531 41.84 32.609z"/>
  <path d="m210.31 238.77c0.61719-20.309 1.2305-40.617 1.2305-60.922 0-16 2.4609-35.078-3.6914-49.848-3.6914-8.6172-17.23-7.3828-21.539 0-8 14.152-6.7695 34.461-8.6172 49.848-1.8477 20.309-3.0781 40.617-4.9219 60.922-1.2305 24 36.922 24 37.539 0z"/>
  <path d="m265.08 449.23c17.23 14.152 46.152 9.8477 65.23 1.8477 19.078-8.6172 34.461-24 40-44.922 6.1523-22.77-4.3086-47.383-22.152-59.691 12.922-12.309 19.691-29.539 9.8477-48.617-13.539-28.309-62.152-33.23-80.617-8-3.6914 4.9219 0.61719 11.078 4.9219 12.309 14.152 4.9219 32-6.1523 44.922 2.4609 21.539 14.152-4.9219 31.383-19.691 35.691-16 4.9219-9.2305 29.539 6.7695 25.23 22.152-5.5391 36.922 16.617 26.461 36.309-9.8477 17.848-32 19.078-48.617 10.461-21.535-11.691-48 19.074-27.074 36.922z"/>
  <path d="m486 304.62c-6.1523-4.9219-14.77-8.6172-22.77-8.6172-19.078 0-30.77 16.617-32 34.461-3.0781 40 28.309 74.461 61.539 92.309 5.5391 6.1523 15.383 8 22.152 0.61719 24-25.848 76.309-67.691 56.617-108.31-7.3828-16-24.617-22.152-41.23-19.691-9.2305 1.2305-18.461 4.9219-25.848 11.078-3.0781 2.4609-5.5391 6.7695-8.6172 11.078-3.6914-4.9258-6.1523-9.8516-9.8438-12.926zm35.078 28.305c11.691-14.152 33.23-9.8477 24 11.078-9.8477 21.539-35.691 39.383-52.309 56-11.078-12.922-19.691-28.922-24-45.539-0.61719-1.8477-5.5391-22.152-3.0781-22.77 1.2305-0.61719 17.848 21.539 20.922 23.383 4.3086 3.0781 11.691 3.0781 16.617 0 8.6172-5.5352 11.078-14.152 17.848-22.152z"/>





































 </g>
</svg>
