<svg width="222" height="158" viewBox="0 0 222 158" fill="none" xmlns="http://www.w3.org/2000/svg">
<g filter="url(#filter0_d_9_2617)">
<path d="M98.0964 139.477C105.98 145.952 119.214 143.983 127.944 140.322C136.673 136.379 143.712 129.341 146.247 119.767C149.062 109.348 144.275 98.0862 136.11 92.4545C142.023 86.8222 145.121 78.9382 140.617 70.2087C134.421 57.2553 112.178 55.0036 103.728 66.5481C102.039 68.8002 104.011 71.6171 105.981 72.1804C112.456 74.4325 120.623 69.3652 126.536 73.3064C136.391 79.782 124.284 87.6664 117.526 89.6376C110.204 91.8897 113.302 103.154 120.623 101.182C130.759 98.6476 137.518 108.786 132.731 117.796C128.225 125.963 118.089 126.526 110.485 122.583C100.912 117.514 88.5236 131.31 98.0969 139.477L98.0964 139.477Z" />
<path d="M48.2575 35.8552C51.3551 40.9242 57.8309 40.3612 60.9282 35.8552C67.4037 27.1257 75.8528 20.9306 84.0177 14.1741C91.0565 8.26136 82.0462 -2.43987 74.4444 1.78397C66.8409 6.00759 60.3649 12.4834 54.7331 19.524C47.9748 10.7945 39.2452 2.34724 29.1091 2.06675C24.6031 2.06675 22.3507 7.699 25.4485 11.0768C33.6152 19.5222 42.0625 25.7173 48.2575 35.8552Z" />
<path d="M155.819 38.1065C158.916 43.1755 165.392 42.6125 168.49 38.1065C174.965 29.3769 183.414 23.1819 191.579 16.4254C198.618 10.5126 189.608 -0.18858 182.006 4.03526C174.402 8.25888 167.926 14.7347 162.294 21.7753C155.536 13.0458 146.807 4.59854 136.67 4.31805C132.164 4.31805 129.912 9.95029 133.01 13.3281C140.896 21.493 149.343 27.9685 155.819 38.1065Z" />
<path d="M11.6519 88.508C15.3125 84.5651 19.5358 80.9046 23.4792 77.244C27.4222 73.301 32.772 69.9228 32.772 64.0101C32.772 60.632 29.9569 57.815 26.577 57.815C20.3819 58.0975 16.7213 63.7278 13.3431 68.5144C9.96491 73.0205 7.14801 78.0878 4.61352 83.1567C2.0772 87.3821 7.99167 92.1686 11.6523 88.508H11.6519Z" />
<path d="M41.4992 90.1963C45.4422 87.0988 49.3832 84.2836 53.3265 80.9035C56.9871 77.8059 62.0561 74.7084 64.0259 70.2041C66.5605 64.009 60.9284 56.6879 54.1703 60.3484C49.6643 62.883 46.8492 68.2324 44.0342 72.4562C41.2192 76.6801 38.6847 81.1858 35.8674 85.4096C33.3329 89.6333 38.402 92.7308 41.4997 90.1963H41.4992Z" />
<path d="M164.549 88.508C168.21 84.5651 172.433 80.9046 176.377 77.244C180.32 73.301 185.67 69.9228 185.67 64.0101C185.67 60.632 182.854 57.815 179.474 57.815C173.279 58.0975 169.619 63.7278 166.241 68.5144C162.862 73.0205 160.046 78.0878 157.511 83.1567C155.257 87.3821 160.889 92.1686 164.55 88.508H164.549Z" />
<path d="M194.397 90.1963C198.34 87.0988 202.281 84.2836 206.224 80.9035C209.885 77.8059 214.954 74.7084 216.924 70.2041C219.458 64.009 213.826 56.6879 207.068 60.3484C202.562 62.883 199.747 68.2324 196.932 72.4562C194.117 76.6801 191.582 81.1858 188.765 85.4096C186.513 89.6333 191.3 92.7308 194.397 90.1963H194.397Z" />
</g>
<defs>
<filter id="filter0_d_9_2617" x="0" y="0.821884" width="221.543" height="156.89" filterUnits="userSpaceOnUse" color-interpolation-filters="sRGB">
<feFlood flood-opacity="0" result="BackgroundImageFix"/>
<feColorMatrix in="SourceAlpha" type="matrix" values="0 0 0 0 0 0 0 0 0 0 0 0 0 0 0 0 0 0 127 0" result="hardAlpha"/>
<feOffset dy="10"/>
<feGaussianBlur stdDeviation="2"/>
<feComposite in2="hardAlpha" operator="out"/>
<feColorMatrix type="matrix" values="0 0 0 0 0 0 0 0 0 0 0 0 0 0 0 0 0 0 0.25 0"/>
<feBlend mode="normal" in2="BackgroundImageFix" result="effect1_dropShadow_9_2617"/>
<feBlend mode="normal" in="SourceGraphic" in2="effect1_dropShadow_9_2617" result="shape"/>
</filter>
</defs>
</svg>
