<?xml version="1.0" encoding="UTF-8"?>
<svg width="700pt" height="700pt" version="1.1" viewBox="0 0 700 700" xmlns="http://www.w3.org/2000/svg" xmlns:xlink="http://www.w3.org/1999/xlink">
 <g>
  <path d="m297.69 217.85c1.2305-16-11.078-27.691-20.309-39.383-5.5391-6.7695-11.078-13.539-16.617-20.309 11.078-10.461 22.152-21.539 33.23-32.617 17.23-17.23-9.2305-43.691-27.078-27.078-11.078 10.461-21.539 20.922-32 32-16-14.77-33.848-28.309-54.77-32.617-13.539-3.0781-24.617 13.539-14.152 24 13.539 13.539 28.309 24.617 41.23 37.539-17.23 18.461-37.539 38.152-46.77 62.152-4.3086 9.8477 9.2305 17.23 17.23 12.922 20.309-10.461 37.539-30.77 53.539-48 5.5391 7.3828 11.078 14.77 16 22.152 2.4609 3.0781 11.078 15.383 11.078 15.383 19.078 20.316 38.156 6.7773 39.387-6.1445z"/>
  <path d="m510.62 98.461c-11.078 10.461-21.539 20.922-32 32-16-14.77-33.848-28.309-54.77-32.617-13.539-3.0781-24.617 13.539-14.152 24 13.539 13.539 28.309 24.617 41.23 37.539-17.23 18.461-37.539 38.152-46.77 62.152-4.3086 9.8477 9.2305 17.23 17.23 12.922 20.309-10.461 37.539-30.77 53.539-48 5.5391 7.3828 11.078 14.77 16 22.152 2.4609 3.0781 11.078 15.383 11.078 15.383 20.309 19.691 38.152 6.1523 39.383-6.7695 1.2305-16-11.078-27.691-20.309-39.383-5.5391-6.7695-11.078-13.539-16.617-20.309 11.078-10.461 22.152-21.539 33.23-32.617 17.23-16.605-9.2305-43.066-27.074-26.453z"/>
  <path d="m404.15 355.69c17.23 23.383 21.539 54.77 1.2305 77.539-19.078 22.152-60.922 24.617-85.539 11.078-22.152-12.309-27.078-43.691-22.77-66.461 6.1523-33.848 27.078-45.539 57.848-54.77 4.3086-1.2305 5.5391-6.7695 2.4609-10.461-14.152-15.383-36.309-13.539-53.539-4.9219-20.922 9.8477-33.848 30.152-40.617 51.691-12.309 39.383-2.4609 90.461 33.23 114.46 37.539 25.23 99.078 20.922 131.69-9.8477 35.691-33.848 36.309-89.23 8.6172-127.38-14.148-19.695-47.383-0.61719-32.613 19.074z"/>
  <path d="m387.54 302.15c-6.1523-0.61719-12.309 3.6914-14.77 8.6172-3.0781 5.5391-3.0781 12.309 0 17.23 3.0781 5.5391 8.6172 8.6172 14.77 8.6172 6.1523 0 11.691-3.6914 14.77-8.6172 0 0 0-0.61719 0.61719-0.61719 3.0781-4.9219 3.0781-12.309 0-17.23-3.0781-5.5391-8.6172-8-14.77-8.6172-0.003906 0.61719-0.61719 0.61719-0.61719 0.61719z"/>





































 </g>
</svg>
