<?xml version="1.0" encoding="UTF-8"?>
<svg width="700pt" height="700pt" version="1.1" viewBox="0 0 700 700" xmlns="http://www.w3.org/2000/svg" xmlns:xlink="http://www.w3.org/1999/xlink">
 <g>
  <path d="m202.31 243.69c4.9219-19.691 1.8477-41.23 1.2305-60.922-0.61719-19.691 0.61719-40.617-6.7695-59.078-5.5391-13.539-22.152-13.539-27.691 0-7.3828 18.461-6.7695 39.383-8 59.078-1.2305 20.309-4.9219 41.23 0 60.922 4.9219 20.309 35.691 19.691 41.23 0z"/>
  <path d="m411.54 123.69c-7.3828 18.461-6.7695 39.383-8 59.078-1.2305 20.309-4.9219 41.23 0 60.922 4.9219 20.922 35.691 19.691 41.23 0 4.9219-19.691 1.8477-41.23 1.2305-60.922-0.61719-19.691 0.61719-40.617-6.7695-59.078-5.5391-14.152-22.152-13.539-27.691 0z"/>
  <path d="m149.38 414.77c20.309 5.5391 44.309 3.0781 65.23 1.8477 23.383-1.2305 47.383-1.8477 70.77-1.8477 22.152 0 44.922 0.61719 67.078 1.8477 24.617 1.2305 51.691 1.2305 75.691 7.3828 32 8.6172 38.152-44.922 6.1523-43.691-24.617 0.61719-49.848-3.6914-74.461-4.3086-24.617-1.2305-49.848-1.2305-74.461 0-23.383 1.2305-47.383 3.0781-70.77 6.1523-22.152 2.4609-48 5.5391-67.078 17.848-6.7656 3.0781-5.5352 12.309 1.8477 14.77z"/>
  <path d="m561.69 142.77c-9.8477 6.1523-13.539 16-18.461 26.461-9.2305 19.691-15.383 41.848-22.77 62.77-16.617 47.383-41.848 109.54-19.078 158.15 11.691 24.617 36.309 44.309 64.617 35.691 28.922-8.6172 44.922-34.461 48-63.383 8-64.617-19.078-130.46-37.539-190.77-0.61719-1.2305-1.2305-2.4609-1.8477-3.6914 0.61719-7.3828 0.61719-14.152-1.8477-19.691-1.2266-5.5391-6.7656-8.6172-11.074-5.5391zm17.848 182.77c1.2305 19.078 2.4609 59.691-24 63.383-28.922 4.3086-25.848-49.848-22.77-65.848 6.1523-31.383 16-62.77 25.23-94.152 2.4609 6.1523 4.3086 12.922 6.7695 19.078 8 25.848 13.539 50.461 14.77 77.539z"/>





































 </g>
</svg>
