<?xml version="1.0" encoding="UTF-8"?>
<svg width="700pt" height="700pt" version="1.1" viewBox="0 0 700 700" xmlns="http://www.w3.org/2000/svg" xmlns:xlink="http://www.w3.org/1999/xlink">
 <g>
  <path d="m174 256c24.617-2.4609 46.152-26.461 63.383-43.078 20.309-19.078 41.848-40.617 57.23-64 12.309-19.078-15.383-40-31.383-24-19.078 19.078-35.691 40.617-53.539 60.309-15.383 16.617-41.23 33.848-46.77 56-1.8438 6.7695 3.6953 15.387 11.078 14.77z"/>
  <path d="m531.54 214.77c-11.078-8-20.922-17.23-30.77-27.078-9.2305-10.461-17.848-21.539-25.23-33.23-6.7695-11.691-9.8477-25.23-23.383-30.77-11.078-4.9219-24-1.2305-27.691 11.078-8.6172 28.309 28.309 64.617 48 81.23 16 13.539 54.77 46.77 76.922 32.617 3.6914-2.4609 4.3086-5.5391 3.6914-9.2305-1.8477-12.309-12.926-17.848-21.539-24.617z"/>
  <path d="m480.46 341.54c-8.6172-12.309-25.23-12.922-33.848 0-14.152 21.539-28.309 43.078-42.461 64.617-10.461-19.691-21.539-38.77-33.848-57.23-8.6172-12.309-25.23-12.309-33.848 0-12.922 19.078-27.078 38.152-41.23 56-10.461-17.848-20.309-36.309-28.922-54.77-6.1523-14.152-24.617-9.8477-32 0-22.152 30.77-38.152 65.848-60.309 96-6.7695 9.2305 8.6172 18.461 16 9.2305 16.617-22.152 36.922-41.23 56-61.539 9.2305 18.461 19.078 36.922 30.77 54.152 6.7695 9.2305 21.539 14.152 30.152 3.6914 16-18.461 31.383-38.152 45.539-57.848 12.309 20.309 22.77 40.617 32.617 62.152 6.1523 14.152 26.461 11.078 33.848 0 15.383-23.383 30.77-46.77 46.152-69.539 16.617 23.383 32.617 46.77 48 70.77 14.152 21.539 49.23 1.2305 35.078-20.309-22.77-32.609-44.922-63.996-67.691-95.379z"/>





































 </g>
</svg>
