<?xml version="1.0" encoding="UTF-8"?>
<svg width="700pt" height="700pt" version="1.1" viewBox="0 0 700 700" xmlns="http://www.w3.org/2000/svg" xmlns:xlink="http://www.w3.org/1999/xlink">
 <g>
  <path d="m174 256c24.617-2.4609 46.152-26.461 63.383-43.078 20.309-19.078 41.848-40.617 57.23-64 12.309-19.078-15.383-40-31.383-24-19.078 19.078-35.691 40.617-53.539 60.309-15.383 16.617-41.23 33.848-46.77 56-1.8438 6.7695 3.6953 15.387 11.078 14.77z"/>
  <path d="m531.54 214.77c-11.078-8-20.922-17.23-30.77-27.078-9.2305-10.461-17.848-21.539-25.23-33.23-6.7695-11.691-9.8477-25.23-23.383-30.77-11.078-4.9219-24-1.2305-27.691 11.078-8.6172 28.309 28.309 64.617 48 81.23 16 13.539 54.77 46.77 76.922 32.617 3.6914-2.4609 4.3086-5.5391 3.6914-9.2305-1.8477-12.309-12.926-17.848-21.539-24.617z"/>
  <path d="m480.46 341.54c-8.6172-12.309-25.23-12.922-33.848 0-14.152 21.539-28.309 43.078-42.461 64.617-10.461-19.691-21.539-38.77-33.848-57.23-8.6172-12.309-25.23-12.309-33.848 0-12.922 19.078-27.078 38.152-41.23 56-10.461-17.848-20.309-36.309-28.922-54.77-6.1523-14.152-24.617-9.8477-32 0-22.152 30.77-38.152 65.848-60.309 96-6.7695 9.2305 8.6172 18.461 16 9.2305 16.617-22.152 36.922-41.23 56-61.539 9.2305 18.461 19.078 36.922 30.77 54.152 6.7695 9.2305 21.539 14.152 30.152 3.6914 16-18.461 31.383-38.152 45.539-57.848 12.309 20.309 22.77 40.617 32.617 62.152 6.1523 14.152 26.461 11.078 33.848 0 15.383-23.383 30.77-46.77 46.152-69.539 16.617 23.383 32.617 46.77 48 70.77 14.152 21.539 49.23 1.2305 35.078-20.309-22.77-32.609-44.922-63.996-67.691-95.379z"/>
  <use x="70" y="652.308594" xlink:href="#v"/>
  <use x="92.582031" y="652.308594" xlink:href="#d"/>
  <use x="107.753906" y="652.308594" xlink:href="#b"/>
  <use x="128.625" y="652.308594" xlink:href="#j"/>
  <use x="149.386719" y="652.308594" xlink:href="#c"/>
  <use x="164.09375" y="652.308594" xlink:href="#b"/>
  <use x="184.964844" y="652.308594" xlink:href="#i"/>
  <use x="217.703125" y="652.308594" xlink:href="#g"/>
  <use x="239.726562" y="652.308594" xlink:href="#f"/>
  <use x="270.496094" y="652.308594" xlink:href="#h"/>
  <use x="293.949219" y="652.308594" xlink:href="#a"/>
  <use x="315.085938" y="652.308594" xlink:href="#e"/>
  <use x="347.148438" y="652.308594" xlink:href="#u"/>
  <use x="369.308594" y="652.308594" xlink:href="#f"/>
  <use x="389.367187" y="652.308594" xlink:href="#e"/>
  <use x="421.425781" y="652.308594" xlink:href="#g"/>
  <use x="443.453125" y="652.308594" xlink:href="#a"/>
  <use x="464.589844" y="652.308594" xlink:href="#t"/>
  <use x="475.136719" y="652.308594" xlink:href="#s"/>
  <use x="70" y="683.078125" xlink:href="#r"/>
  <use x="83.386719" y="683.078125" xlink:href="#d"/>
  <use x="98.5625" y="683.078125" xlink:href="#a"/>
  <use x="119.699219" y="683.078125" xlink:href="#e"/>
  <use x="162.472656" y="683.078125" xlink:href="#c"/>
  <use x="177.179688" y="683.078125" xlink:href="#q"/>
  <use x="199.085937" y="683.078125" xlink:href="#b"/>
  <use x="230.667969" y="683.078125" xlink:href="#p"/>
  <use x="256.417969" y="683.078125" xlink:href="#a"/>
  <use x="277.558594" y="683.078125" xlink:href="#o"/>
  <use x="299.460938" y="683.078125" xlink:href="#n"/>
  <use x="332.078125" y="683.078125" xlink:href="#m"/>
  <use x="354.628906" y="683.078125" xlink:href="#d"/>
  <use x="369.804688" y="683.078125" xlink:href="#a"/>
  <use x="390.945312" y="683.078125" xlink:href="#l"/>
  <use x="401.492187" y="683.078125" xlink:href="#b"/>
  <use x="422.359375" y="683.078125" xlink:href="#k"/>
  <use x="440.597656" y="683.078125" xlink:href="#c"/>
 </g>
</svg>
