<?xml version="1.0" encoding="UTF-8"?>
<svg width="700pt" height="700pt" version="1.1" viewBox="0 0 700 700" xmlns="http://www.w3.org/2000/svg" xmlns:xlink="http://www.w3.org/1999/xlink">
 <g>
  <path d="m170.92 151.38c-19.078 2.4609-12.922 31.383 4.3086 32.617 33.23 1.8477 67.691 4.3086 100.92 4.3086 20.309 0 26.461-33.848 4.9219-36.922-35.691-6.1562-74.457-5.5391-110.15-0.003907z"/>
  <path d="m532.77 150.77c-36.309-5.5391-74.461-4.9219-110.77 0-19.078 2.4609-12.922 31.383 4.3086 32.617 33.23 1.8477 67.691 4.3086 100.92 4.3086 21.539-0.003906 27.078-33.234 5.5391-36.926z"/>
  <path d="m183.85 225.23c-3.6914-1.2305-9.8477 0-12.309 3.0781-14.77 19.078-32.617 36.309-50.461 52.922-7.3867 7.3867 1.8438 18.461 10.461 14.152 22.77-11.691 41.23-28.922 57.848-48.617 3.6914-4.3086 5.5391-10.461 1.8477-15.383-1.8516-3.0742-3.6953-4.9219-7.3867-6.1523z"/>
  <path d="m210.92 294.77c11.691-5.5391 21.539-16.617 31.383-25.848 9.2305-8.6172 22.152-17.848 28.922-28.922 6.1523-11.078-5.5391-21.539-16.617-16.617-11.691 6.1523-20.922 18.461-30.152 27.691s-20.922 18.461-26.461 30.152c-4.918 9.2344 4.3125 17.852 12.926 13.543z"/>
  <path d="m494 219.08c-10.461 6.7695-18.461 17.848-27.691 26.461-8.6172 8-19.691 16.617-25.23 27.078-3.0781 5.5391 2.4609 12.922 8.6172 11.078 11.691-3.0781 22.152-12.922 31.383-20.309 9.8477-8 22.152-16.617 28.922-27.691 6.7695-9.8477-6.1523-22.773-16-16.617z"/>
  <path d="m573.38 222.77c-9.8477 8.6172-17.848 20.309-26.461 29.539-8.6172 9.2305-17.23 18.461-24 29.539-3.6914 6.1523 3.6914 12.309 9.8477 9.8477 12.309-6.1523 21.539-14.77 31.383-24.617 9.2305-9.2305 20.309-19.078 27.078-30.152 6.7695-12.309-8.6133-22.156-17.848-14.156z"/>
  <path d="m351.85 299.08c-64.617-1.2305-136.62 42.461-152.62 107.69-1.8477 7.3828 7.3828 12.922 12.309 7.3828 39.383-39.383 80.617-78.152 139.69-79.383 48-1.2305 89.23 24 116.92 60.922-64-1.2305-128-2.4609-192.62-3.0781-25.23 0-25.23 38.77 0 38.77 74.461 0.61719 149.54 0 224-0.61719 13.539 0 21.539-14.77 14.77-25.848-31.383-59.07-93.535-105.23-162.46-105.84z"/>
  <use x="70" y="652.308594" xlink:href="#v"/>
  <use x="92.582031" y="652.308594" xlink:href="#d"/>
  <use x="107.753906" y="652.308594" xlink:href="#b"/>
  <use x="128.625" y="652.308594" xlink:href="#j"/>
  <use x="149.386719" y="652.308594" xlink:href="#c"/>
  <use x="164.09375" y="652.308594" xlink:href="#b"/>
  <use x="184.964844" y="652.308594" xlink:href="#i"/>
  <use x="217.703125" y="652.308594" xlink:href="#g"/>
  <use x="239.726562" y="652.308594" xlink:href="#f"/>
  <use x="270.496094" y="652.308594" xlink:href="#h"/>
  <use x="293.949219" y="652.308594" xlink:href="#a"/>
  <use x="315.085938" y="652.308594" xlink:href="#e"/>
  <use x="347.148438" y="652.308594" xlink:href="#u"/>
  <use x="369.308594" y="652.308594" xlink:href="#f"/>
  <use x="389.367187" y="652.308594" xlink:href="#e"/>
  <use x="421.425781" y="652.308594" xlink:href="#g"/>
  <use x="443.453125" y="652.308594" xlink:href="#a"/>
  <use x="464.589844" y="652.308594" xlink:href="#t"/>
  <use x="475.136719" y="652.308594" xlink:href="#s"/>
  <use x="70" y="683.078125" xlink:href="#r"/>
  <use x="83.386719" y="683.078125" xlink:href="#d"/>
  <use x="98.5625" y="683.078125" xlink:href="#a"/>
  <use x="119.699219" y="683.078125" xlink:href="#e"/>
  <use x="162.472656" y="683.078125" xlink:href="#c"/>
  <use x="177.179688" y="683.078125" xlink:href="#q"/>
  <use x="199.085937" y="683.078125" xlink:href="#b"/>
  <use x="230.667969" y="683.078125" xlink:href="#p"/>
  <use x="256.417969" y="683.078125" xlink:href="#a"/>
  <use x="277.558594" y="683.078125" xlink:href="#o"/>
  <use x="299.460938" y="683.078125" xlink:href="#n"/>
  <use x="332.078125" y="683.078125" xlink:href="#m"/>
  <use x="354.628906" y="683.078125" xlink:href="#d"/>
  <use x="369.804688" y="683.078125" xlink:href="#a"/>
  <use x="390.945312" y="683.078125" xlink:href="#l"/>
  <use x="401.492187" y="683.078125" xlink:href="#b"/>
  <use x="422.359375" y="683.078125" xlink:href="#k"/>
  <use x="440.597656" y="683.078125" xlink:href="#c"/>
 </g>
</svg>
