<svg width="247" height="158" viewBox="0 0 247 158" fill="none" xmlns="http://www.w3.org/2000/svg">
<g filter="url(#filter0_d_9_2624)">
<path d="M30.5048 2.74172C20.9328 3.97643 24.0214 18.4875 32.6665 19.1066C49.339 20.0337 66.6291 21.2684 83.301 21.2684C93.4907 21.2684 96.5773 4.28584 85.7705 2.74353C67.8633 -0.345216 48.4132 -0.035599 30.505 2.74157L30.5048 2.74172Z" fill="white"/>
<path d="M212.056 2.43566C193.838 -0.343469 174.696 -0.0338014 156.479 2.43566C146.907 3.67037 149.996 18.1814 158.641 18.8006C175.313 19.7276 192.603 20.9623 209.275 20.9623C220.082 20.9604 222.861 4.28785 212.054 2.43546L212.056 2.43566Z" fill="white"/>
<path d="M36.9922 39.7945C35.1401 39.1771 32.0513 39.7945 30.8164 41.3389C23.4059 50.9109 14.4515 59.5561 5.49864 67.8914C1.79252 71.5975 6.42373 77.1538 10.7472 74.9919C22.1716 69.1261 31.4335 60.4808 39.7713 50.5993C41.6234 48.4375 42.5504 45.3507 40.6983 42.8812C39.7693 41.3388 38.8443 40.4117 36.9922 39.7944V39.7945Z" fill="white"/>
<path d="M50.574 74.6847C56.4397 71.9056 61.3807 66.3475 66.3198 61.716C70.951 57.3925 77.4341 52.7611 80.8308 47.205C83.9176 41.6468 78.0516 36.3983 72.4935 38.8678C66.6278 41.9546 61.9964 48.1302 57.3654 52.7612C52.7344 57.3921 46.8682 62.0236 44.0891 67.8893C41.6216 72.5225 46.2528 76.8462 50.5745 74.6842L50.574 74.6847Z" fill="white"/>
<path d="M192.604 36.7088C187.355 40.1053 183.341 45.6637 178.71 49.9851C174.387 53.9989 168.831 58.3223 166.051 63.5709C164.507 66.35 167.286 70.0543 170.375 69.1291C176.241 67.5847 181.489 62.6457 186.121 58.9394C191.062 54.9256 197.235 50.6022 200.632 45.0461C204.028 40.1052 197.545 33.6202 192.604 36.7088H192.604Z" fill="white"/>
<path d="M232.431 38.5602C227.49 42.8837 223.476 48.7498 219.155 53.3808C214.831 58.012 210.51 62.6432 207.113 68.2013C205.261 71.2881 208.965 74.3771 212.054 73.1422C218.23 70.0554 222.861 65.7317 227.8 60.7912C232.431 56.16 237.989 51.2192 241.386 45.663C244.782 39.4872 237.064 34.5467 232.431 38.5605L232.431 38.5602Z" fill="white"/>
<path d="M121.283 76.8472C88.8623 76.2298 52.7363 98.1511 44.7086 130.878C43.7816 134.583 48.4128 137.362 50.8844 134.583C70.644 114.823 91.3324 95.3714 120.971 94.7538C145.054 94.1364 165.74 106.795 179.633 125.32C147.523 124.703 115.412 124.085 82.9901 123.776C70.3315 123.776 70.3315 143.228 82.9901 143.228C120.349 143.537 158.019 143.228 195.377 142.918C202.17 142.918 206.184 135.508 202.788 129.949C187.042 100.312 155.859 77.1525 121.277 76.8465L121.283 76.8472Z" fill="white"/>
</g>
<defs>
<filter id="filter0_d_9_2624" x="0.146484" y="0.465729" width="246.078" height="156.89" filterUnits="userSpaceOnUse" color-interpolation-filters="sRGB">
<feFlood flood-opacity="0" result="BackgroundImageFix"/>
<feColorMatrix in="SourceAlpha" type="matrix" values="0 0 0 0 0 0 0 0 0 0 0 0 0 0 0 0 0 0 127 0" result="hardAlpha"/>
<feOffset dy="10"/>
<feGaussianBlur stdDeviation="2"/>
<feComposite in2="hardAlpha" operator="out"/>
<feColorMatrix type="matrix" values="0 0 0 0 0 0 0 0 0 0 0 0 0 0 0 0 0 0 0.25 0"/>
<feBlend mode="normal" in2="BackgroundImageFix" result="effect1_dropShadow_9_2624"/>
<feBlend mode="normal" in="SourceGraphic" in2="effect1_dropShadow_9_2624" result="shape"/>
</filter>
</defs>
</svg>
