<svg width="159" height="178" viewBox="0 0 159 178" fill="none" xmlns="http://www.w3.org/2000/svg">
  <g filter="url(#filter0_d_41_8)">
    <path d="M37.085 54.9384C39.2412 56.8543 42.8345 57.0946 44.7501 54.9384C50.7382 48.2313 47.624 37.4517 47.145 29.0673C46.666 21.6409 47.3852 10.1423 41.6361 4.63302C40.1991 3.43482 38.0429 3.19608 36.8446 4.63302C31.3357 10.6211 32.7725 21.4019 33.0112 29.0673C33.0127 37.2116 30.6163 48.9487 37.0849 54.9384H37.085Z" />
    <path d="M90.0256 39.3678C102.482 39.6081 108.71 50.147 114.939 59.4894C120.688 68.1125 134.822 59.9684 128.832 51.3452C122.604 42.2429 115.897 33.1391 106.793 28.1094C110.626 25.7145 114.458 23.3179 118.051 20.9232C124.52 16.6109 132.424 12.0596 135.538 4.63312C136.257 2.71719 134.34 1.03999 132.664 1.03999C124.041 0.320739 114.699 7.02808 107.272 10.8612C99.1279 15.1735 90.7435 19.4842 84.275 26.1917C79.4851 30.7426 83.0783 39.127 90.0257 39.3676L90.0256 39.3678Z" />
    <path d="M147.754 85.601C124.039 83.2061 100.084 81.7676 76.1288 81.7676C52.6525 81.7676 29.4168 82.2466 6.66025 88.236C3.54611 89.194 4.50406 93.5063 7.3795 93.7449C15.5237 94.7029 23.6695 94.9431 31.8138 95.1819C30.8558 106.202 31.5735 117.7 34.2087 128.479C38.0421 144.29 48.102 154.591 63.4341 160.34C79.2449 166.328 100.804 162.735 112.54 149.8C125.475 135.666 125.955 116.263 125.237 98.2956C132.663 98.7746 140.088 99.4938 147.515 100.452C157.096 101.41 157.096 86.5585 147.753 85.6005L147.754 85.601ZM101.283 138.541C92.181 148.842 75.172 149.082 63.6735 143.092C46.666 133.988 46.427 113.147 44.75 95.4226H68.4649C67.2667 100.693 66.7878 106.202 66.3088 111.713C65.5895 118.42 64.3928 123.45 69.1826 128.961C71.8178 131.835 76.8477 131.596 79.7232 128.961C84.7533 123.931 83.3163 118.181 83.0776 111.713C82.8374 106.204 82.5986 101.172 81.6407 95.6631C90.5043 95.9034 99.6061 96.3824 108.47 96.8613C109.907 110.994 111.105 127.522 101.283 138.54L101.283 138.541Z" />
  </g>
  <defs>
    <filter id="filter0_d_41_8" x="0.730469" y="0.986511" width="158" height="176.168" filterUnits="userSpaceOnUse" color-interpolation-filters="sRGB">
      <feFlood flood-opacity="0" result="BackgroundImageFix"/>
      <feColorMatrix in="SourceAlpha" type="matrix" values="0 0 0 0 0 0 0 0 0 0 0 0 0 0 0 0 0 0 127 0" result="hardAlpha"/>
      <feOffset dy="10"/>
      <feGaussianBlur stdDeviation="2"/>
      <feComposite in2="hardAlpha" operator="out"/>
      <feColorMatrix type="matrix" values="0 0 0 0 0 0 0 0 0 0 0 0 0 0 0 0 0 0 0.25 0"/>
      <feBlend mode="normal" in2="BackgroundImageFix" result="effect1_dropShadow_41_8"/>
      <feBlend mode="normal" in="SourceGraphic" in2="effect1_dropShadow_41_8" result="shape"/>
    </filter>
  </defs>
</svg>
