<?xml version="1.0" encoding="UTF-8"?>
<svg width="700pt" height="700pt" version="1.1" viewBox="0 0 700 700" xmlns="http://www.w3.org/2000/svg" xmlns:xlink="http://www.w3.org/1999/xlink">
 <g>
  <path d="m186.92 161.23c43.691 14.152 97.23-6.7695 126.77-40.617 14.152-16 24-36.922 19.691-58.461-3.6914-19.078-16.617-40.617-36.922-44.309-4.9219-1.2305-9.8477 0-13.539 2.4609-12.922-1.8477-27.691 1.8477-38.152 4.9219-22.77 6.7695-43.691 19.691-61.539 35.078-16.617 14.152-31.383 33.23-30.77 56 0 20.926 13.539 38.156 34.461 44.926zm41.848-93.539c11.691-6.7695 24-12.309 36.922-15.383 4.3086-1.2305 8.6172-1.8477 12.922-1.8477 1.8477 1.8477 4.9219 3.0781 8 3.6914 12.309 2.4609 11.691 22.152 8 30.77-4.9219 11.078-15.383 20.922-25.23 27.691-17.848 12.922-51.691 25.848-73.848 15.383-31.383-15.379 19.695-52.918 33.234-60.305z"/>
  <path d="m514.92 161.23c19.078-6.1523 33.848-22.152 34.461-42.461 1.2305-24-13.539-43.691-30.77-58.461-17.848-15.383-38.77-27.691-61.539-35.078-11.078-3.0781-25.848-6.7695-38.152-4.9219-3.6914-2.4609-8-3.0781-13.539-2.4609-20.309 3.6914-33.23 25.23-36.922 44.309-4.3086 22.152 6.1523 42.461 19.691 58.461 28.926 33.844 83.078 54.152 126.77 40.613zm-42.461-93.539c12.922 7.3828 65.23 46.152 33.23 59.691-22.77 9.2305-55.383-2.4609-73.848-15.383-9.8477-6.7695-20.309-16.617-25.23-27.691-3.6914-9.2305-4.3047-28.926 8.0039-30.77 3.6914-0.61719 6.1523-1.8477 8-3.6914 4.3086 0.61719 8.6172 1.2305 12.922 1.8477 12.922 3.6875 25.844 9.2266 36.922 15.996z"/>
  <path d="m328.46 179.08c-1.2305 0-3.0781 0.61719-4.3086 1.2305-12.309 3.6914-22.152 11.078-30.152 20.922-18.461 22.77-24.617 52.309-22.152 80.617 3.0781 35.078 9.8477 70.152 14.77 105.23 4.9219 33.848 8.6172 68.309 15.383 102.15 4.3086 22.152 16.617 47.383 42.461 46.77 26.461-0.61719 44.309-27.078 53.539-48.617 11.078-27.691 14.152-57.23 14.77-86.77 1.2305-36.309 3.0781-70.77 10.461-107.08 6.1523-31.383 8-66.461-11.691-94.152-16-22.152-42.461-28.922-68.309-28.309-7.3828 0.61719-12.309 3.6953-14.77 8.0039zm64.617 60.922c6.1523 29.539-6.7695 59.691-10.461 89.23-3.6914 30.77-1.8477 60.922-4.3086 91.691-1.2305 14.77-3.0781 30.152-8 44.309-3.0781 9.8477-11.691 33.23-23.383 35.078-9.2305 1.2305-10.461-14.77-11.691-22.77-2.4609-14.77-4.3086-30.152-6.1523-44.922-4.3086-31.383-9.8477-62.77-14.77-94.152-4.9219-30.152-14.152-63.383-6.7695-93.539 3.6914-14.152 9.8477-26.461 22.152-34.461 1.8477-1.2305 3.6914-2.4609 6.1523-4.3086 1.8477 0.61719 3.6914 0.61719 5.5391 0 27.074-3.6953 46.152 6.1523 51.691 33.844z"/>
  <path d="m516.77 232.62c-20.309 24.617-39.383 48.617-50.461 78.77-12.309 31.383-16 65.848-18.461 99.078-1.2305 18.461-1.8477 37.539-3.0781 56.617-0.61719 18.461-4.9219 37.539-4.3086 56.617 0.61719 22.77 32 26.461 38.77 5.5391 10.461-32 6.1523-70.77 6.1523-104 0-34.461 1.8477-68.309 12.922-100.92 9.8477-30.152 30.152-53.539 49.23-78.152 12.309-16 41.848-48.617 34.461-70.77-1.2305-4.3086-5.5391-6.1523-9.8477-5.5391-12.309 1.8477-19.691 14.77-26.461 24.617-9.2266 12.297-18.457 25.219-28.918 38.145z"/>
  <path d="m258.92 470.15c-1.2305-15.383-2.4609-30.77-4.3086-45.539-3.6914-31.383-8.6172-63.383-17.848-93.539-18.461-62.77-52.922-122.46-102.15-166.15-7.3828-6.7695-18.461 1.8477-13.539 10.461 15.383 28.922 35.691 54.77 49.848 83.691 14.152 27.691 23.383 57.848 28.922 88 6.1523 29.539 8.6172 59.691 9.2305 89.848 1.2305 28.922-5.5391 64.617 6.1523 91.078 8.6172 20.309 35.691 10.461 41.848-5.5391 7.3867-15.383 3.0781-35.078 1.8477-52.309z"/>





































 </g>
</svg>
