<svg width="135" height="157" viewBox="0 0 135 157" fill="none" xmlns="http://www.w3.org/2000/svg">
  <g filter="url(#filter0_d_9_2635)">
    <path d="M23.0321 39.1068C34.9083 42.9536 49.4613 37.2667 57.4909 28.0663C61.3377 23.7171 64.0146 18.0301 62.8433 12.1753C61.8399 6.98954 58.3265 1.13478 52.8072 0.131217C51.4693 -0.203259 50.1303 0.131217 49.127 0.800142C45.6145 0.297898 41.6 1.30239 38.7565 2.13802C32.5671 3.97811 26.8803 7.49045 22.0289 11.673C17.512 15.5198 13.4983 20.7056 13.6649 26.8949C13.6649 32.5831 17.3451 37.2666 23.0321 39.1068V39.1068ZM34.4073 13.681C37.5852 11.8409 40.931 10.3351 44.4435 9.49953C45.6147 9.16506 46.7858 8.99729 47.956 8.99729C48.4582 9.49953 49.2938 9.83398 50.1305 10.0007C53.4764 10.6696 53.3084 16.0221 52.3051 18.3646C50.9672 21.3759 48.1237 24.0517 45.4471 25.8916C40.5956 29.4041 31.3964 32.9177 25.3736 30.073C16.8431 25.8927 30.7271 15.6888 34.4073 13.6809V13.681Z" />
    <path d="M112.189 39.1068C117.375 37.4345 121.39 33.0854 121.557 27.565C121.891 21.0413 117.877 15.6889 113.193 11.6741C108.341 7.49266 102.654 4.14709 96.4652 2.13915C93.4539 1.30245 89.4391 0.299054 86.0946 0.801271C85.0912 0.132346 83.9201 -0.0354213 82.4145 0.132347C76.894 1.13575 73.3818 6.99039 72.3783 12.1765C71.2071 18.1979 74.0506 23.7183 77.7307 28.0674C85.5934 37.2669 100.313 42.7871 112.189 39.1069V39.1068ZM100.648 13.6809C104.16 15.6877 118.379 26.226 109.68 29.9062C103.491 32.4153 94.626 29.2373 89.6068 25.7248C86.93 23.8847 84.0864 21.2079 82.7488 18.1978C81.7454 15.6888 81.5787 10.3351 84.9244 9.83386C85.9278 9.66609 86.5967 9.33162 87.099 8.83046C88.2702 8.99823 89.4413 9.16494 90.6115 9.3327C94.1239 10.335 97.6364 11.8407 100.648 13.6808L100.648 13.6809Z" />
    <path d="M61.5061 43.9589C61.1716 43.9589 60.6694 44.1266 60.3349 44.2933C56.9891 45.2967 54.3135 47.3046 52.1389 49.9804C47.1209 56.1697 45.4475 64.1991 46.1176 71.8938C46.9543 81.4287 48.7944 90.9626 50.1324 100.498C51.4702 109.698 52.4747 119.065 54.3138 128.264C55.485 134.285 58.8306 141.144 65.8556 140.977C73.0482 140.809 77.8997 133.617 80.4086 127.762C83.4198 120.235 84.2554 112.206 84.4234 104.176C84.7579 94.3065 85.2601 84.9393 87.2669 75.0695C88.9393 66.5389 89.4415 57.004 84.0891 49.477C79.7399 43.4556 72.5473 41.6154 65.5213 41.782C63.5145 41.9497 62.1754 42.7864 61.5064 43.9576L61.5061 43.9589ZM79.0703 60.5188C80.7427 68.5481 77.2302 76.744 76.2268 84.7733C75.2234 93.1373 75.7246 101.333 75.0556 109.697C74.7212 113.712 74.219 117.893 72.8811 121.741C72.0444 124.418 69.7032 130.774 66.5251 131.276C64.016 131.61 63.6816 127.261 63.3472 125.087C62.6783 121.072 62.1761 116.891 61.6749 112.876C60.5037 104.345 58.9981 95.8136 57.6601 87.2833C56.3222 79.0874 53.8133 70.0545 55.82 61.8575C56.8234 58.0107 58.4968 54.6648 61.8414 52.4902C62.3436 52.1558 62.8448 51.8213 63.5137 51.3191C64.016 51.4868 64.5171 51.4868 65.0194 51.3191C72.3786 50.3146 77.5644 52.9914 79.0701 60.5186L79.0703 60.5188Z" />
    <path d="M112.692 58.5122C107.172 65.2036 101.987 71.7273 98.9761 79.9235C95.6303 88.4541 94.627 97.8224 93.958 106.855C93.6236 111.873 93.4558 117.059 93.1213 122.245C92.9536 127.263 91.7835 132.449 91.9502 137.634C92.1179 143.824 100.648 144.827 102.489 139.14C105.332 130.442 104.161 119.903 104.161 110.871C104.161 101.503 104.663 92.3028 107.673 83.4385C110.35 75.2425 115.869 68.8854 121.055 62.1951C124.401 57.846 132.43 48.98 130.422 42.9583C130.088 41.7871 128.917 41.286 127.746 41.4527C124.4 41.9549 122.393 45.4675 120.553 48.1441C118.045 51.4867 115.536 54.9992 112.692 58.5127L112.692 58.5122Z" />
    <path d="M42.6034 123.078C42.269 118.896 41.9345 114.714 41.4323 110.699C40.4289 102.169 39.0899 93.4705 36.5808 85.2735C31.5627 68.2113 22.1955 51.9862 8.81428 40.1104C6.80748 38.2703 3.79619 40.6126 5.13409 42.9539C9.31552 50.8155 14.8357 57.8416 18.6838 65.7029C22.5306 73.2299 25.0398 81.4272 26.5454 89.6231C28.2178 97.6525 28.8878 105.848 29.0545 114.046C29.389 121.907 27.5488 131.61 30.7268 138.803C33.0692 144.323 40.4284 141.646 42.102 137.297C44.1098 133.116 42.9387 127.762 42.6042 123.078L42.6034 123.078Z" />
  </g>
  <defs>
    <filter id="filter0_d_9_2635" x="0.80249" y="0" width="133.938" height="156.89" filterUnits="userSpaceOnUse" color-interpolation-filters="sRGB">
      <feFlood flood-opacity="0" result="BackgroundImageFix"/>
      <feColorMatrix in="SourceAlpha" type="matrix" values="0 0 0 0 0 0 0 0 0 0 0 0 0 0 0 0 0 0 127 0" result="hardAlpha"/>
      <feOffset dy="10"/>
      <feGaussianBlur stdDeviation="2"/>
      <feComposite in2="hardAlpha" operator="out"/>
      <feColorMatrix type="matrix" values="0 0 0 0 0 0 0 0 0 0 0 0 0 0 0 0 0 0 0.25 0"/>
      <feBlend mode="normal" in2="BackgroundImageFix" result="effect1_dropShadow_9_2635"/>
      <feBlend mode="normal" in="SourceGraphic" in2="effect1_dropShadow_9_2635" result="shape"/>
    </filter>
  </defs>
</svg>
