<?xml version="1.0" encoding="UTF-8"?>
<svg width="700pt" height="700pt" version="1.1" viewBox="0 0 700 700" xmlns="http://www.w3.org/2000/svg" xmlns:xlink="http://www.w3.org/1999/xlink">
 <g>
  <path d="m182 308.31c-8 2.4609-8.6172 14.77 0 16.617 1.8477 0.61719 3.6914 0.61719 5.5391 1.2305-2.4609 2.4609-3.6914 6.1523-3.6914 11.078-0.61719 27.078-3.6914 53.539-9.2305 80-1.8477 8.6172 2.4609 20.922 12.922 22.152 105.85 16.617 212.92 14.152 319.38 1.2305 8-1.2305 16.617-6.7695 16-16-2.4609-36.922-6.1523-76.922-2.4609-113.85 0.61719-7.3828-6.7695-14.152-14.152-14.152-54.77 0.61719-109.54 0-164.31 1.2305-27.078 0.61719-54.77 1.2305-82.461 2.4609-25.848 1.2305-52.922 0.61328-77.539 8zm243.69 105.84c3.0781-27.691-0.61719-58.461-3.6914-86.77 22.77-0.61719 46.152-1.8477 68.922-2.4609-2.4609 28.309-2.4609 56.617-1.2305 84.926-21.539 1.8438-42.461 3.0742-64 4.3047zm-27.074-86.152c-3.0781 28.309-6.7695 59.691-3.6914 87.383-25.848 0.61719-51.691 0.61719-77.539 0 4.3086-28.309 2.4609-57.848-4.9219-85.539 9.8477 0 19.078 0 28.922-0.61719 19.074 0.003907 38.152-0.60937 57.23-1.2266zm-112.62 2.4609c1.8477 28.309 0.61719 55.383-3.0781 83.691-23.383-1.2305-46.77-3.6914-69.539-6.7695 3.6914-23.383 6.1523-46.152 6.1523-70.152 0-2.4609-0.61719-4.9219-1.2305-7.3828 13.539 0.61719 27.691 0 41.23 0 8.6172 0.61328 17.234 0.61328 26.465 0.61328z"/>
  <path d="m180.15 211.08c22.77-9.2305 41.848-25.848 58.461-44.922 12.922 12.922 25.848 25.848 37.539 39.383 17.848 20.922 51.078-12.309 30.152-30.152-19.078-16-36.922-34.461-55.383-51.691-9.2305-8.6172-23.383-6.7695-30.152 3.6914-15.383 22.77-32.617 42.461-53.539 60.309-10.461 8.6133 0 28.305 12.922 23.383z"/>
  <path d="m410.92 211.08c22.77-9.2305 41.848-25.848 58.461-44.922 12.922 12.922 25.848 25.848 37.539 39.383 17.848 20.922 51.078-12.309 30.152-30.152-19.078-16-36.922-34.461-55.383-51.691-9.2305-8.6172-23.383-6.7695-30.152 3.6914-15.383 22.77-32.617 42.461-53.539 60.309-10.461 8.6133 0 28.305 12.922 23.383z"/>





































 </g>
</svg>
