<svg width="172" height="157" viewBox="0 0 172 157" fill="none" xmlns="http://www.w3.org/2000/svg">
<g filter="url(#filter0_d_9_2709)">
<path d="M12.6207 81.7069C9.1863 82.7633 8.92133 88.0476 12.6207 88.8405C13.4139 89.1055 14.2054 89.1055 14.9986 89.3688C13.9422 90.4253 13.4139 92.01 13.4139 94.1246C13.149 105.749 11.8292 117.109 9.45126 128.469C8.65805 132.168 10.5077 137.45 14.9987 137.978C60.44 145.112 106.405 144.054 152.108 138.507C155.543 137.978 159.242 135.601 158.977 131.638C157.921 115.787 156.336 98.6153 157.921 82.7621C158.186 79.5927 155.015 76.6866 151.845 76.6866C128.333 76.9516 104.82 76.6866 81.307 77.2149C69.6825 77.4799 57.7943 77.7432 45.9066 78.2714C34.81 78.7996 23.1872 78.5346 12.6191 81.7058L12.6207 81.7069ZM117.237 127.144C118.558 115.256 116.972 102.047 115.652 89.8936C125.427 89.6287 135.465 89.1004 145.24 88.8372C144.184 100.99 144.184 113.143 144.712 125.296C135.465 126.087 126.483 126.616 117.237 127.144L117.237 127.144ZM105.614 90.1589C104.292 102.312 102.708 115.784 104.029 127.672C92.9326 127.937 81.8382 127.937 70.7417 127.672C72.5914 115.519 71.7981 102.838 68.6287 90.9506C72.8563 90.9506 76.8189 90.9506 81.0449 90.6856C89.2334 90.6873 97.4235 90.424 105.614 90.159L105.614 90.1589ZM57.2661 91.2154C58.0594 103.368 57.5311 114.991 55.9447 127.144C45.9064 126.616 35.8664 125.559 26.0916 124.238C27.6764 114.199 28.7328 104.425 28.7328 94.1215C28.7328 93.0651 28.4679 92.0086 28.2046 90.9521C34.0169 91.2171 40.0923 90.9521 45.9046 90.9521C49.604 91.2154 53.3031 91.2154 57.266 91.2154H57.2661Z" />
<path d="M11.8263 39.9661C21.6015 36.0034 29.7916 28.8695 36.9236 20.6811C42.471 26.2285 48.0201 31.7776 53.0391 37.5882C60.7012 46.57 74.9669 32.3039 65.9833 24.6439C57.7931 17.7752 50.1327 9.84985 42.2074 2.45302C38.2448 -1.24634 32.1691 -0.453126 29.2632 4.03773C22.6593 13.8129 15.2607 22.2662 6.27891 29.9284C1.788 33.626 6.2789 42.0797 11.8263 39.9667V39.9661Z" />
<path d="M110.896 39.966C120.671 36.0034 128.861 28.8695 135.993 20.681C141.541 26.2284 147.09 31.7775 152.109 37.5881C159.771 46.5699 174.036 32.3039 165.053 24.6439C156.863 17.7751 149.202 9.84979 141.277 2.45296C137.314 -1.2464 131.239 -0.453187 128.333 4.03767C121.729 13.8128 114.33 22.2662 105.348 29.9283C100.858 33.626 105.348 42.0796 110.896 39.9666V39.966Z" />
</g>
<defs>
<filter id="filter0_d_9_2709" x="0.444336" y="0.109558" width="171.482" height="156.89" filterUnits="userSpaceOnUse" color-interpolation-filters="sRGB">
<feFlood flood-opacity="0" result="BackgroundImageFix"/>
<feColorMatrix in="SourceAlpha" type="matrix" values="0 0 0 0 0 0 0 0 0 0 0 0 0 0 0 0 0 0 127 0" result="hardAlpha"/>
<feOffset dy="10"/>
<feGaussianBlur stdDeviation="2"/>
<feComposite in2="hardAlpha" operator="out"/>
<feColorMatrix type="matrix" values="0 0 0 0 0 0 0 0 0 0 0 0 0 0 0 0 0 0 0.25 0"/>
<feBlend mode="normal" in2="BackgroundImageFix" result="effect1_dropShadow_9_2709"/>
<feBlend mode="normal" in="SourceGraphic" in2="effect1_dropShadow_9_2709" result="shape"/>
</filter>
</defs>
</svg>
