<?xml version="1.0" encoding="UTF-8"?>
<svg width="700pt" height="700pt" version="1.1" viewBox="0 0 700 700" xmlns="http://www.w3.org/2000/svg" xmlns:xlink="http://www.w3.org/1999/xlink">
 <g>
  <path d="m588.77 202.46c-27.078 26.461-69.539 34.461-105.85 40.617-43.691 7.3828-89.23 8-133.54 7.3828-51.078-1.2305-102.77-7.3828-152-21.539-33.23-9.2305-64.617-22.77-96-36.309-9.2305-3.6914-17.848 8.6172-12.922 16.617 19.691 32.617 64 48 98.461 58.461h0.61719c0 3.0781-0.61719 5.5391-0.61719 8.6172-3.0781 23.383-4.9219 47.383-6.1523 70.77-1.2305 22.77-2.4609 45.539-3.0781 68.309 0 5.5391-1.2305 11.691-1.2305 18.461-36.922 14.152-69.539 37.535-94.152 67.074-9.2305 10.461 2.4609 28.309 15.383 20.309 32-18.461 62.77-40 98.461-51.078 34.461-11.078 70.77-11.691 107.08-12.309 97.23 0 201.85 13.539 280.62 75.691 20.922 16 50.461-12.922 29.539-29.539-30.152-23.383-62.77-40.617-96.617-54.152 1.2305-11.691 0.61719-23.383 0.61719-35.078 0-18.461 0-36.922-0.61719-54.77 0-26.461 1.2305-54.152-1.8477-81.23 37.539-8 75.078-20.922 102.77-48 17.848-18.457-10.461-46.148-28.922-28.305zm-283.08 214.77c-29.539 0-59.691 1.2305-88.617 6.1523v-6.1523c0.61719-23.383 1.2305-46.77 1.2305-69.539 0.61719-23.383 0-46.152-1.2305-69.539v-1.8477c44.309 10.461 89.23 15.383 134.77 16 43.078 0.61719 86.77-1.2305 129.23-8-3.0781 25.23-3.0781 51.078-4.3086 75.691-0.61719 17.23-1.8477 34.461-2.4609 51.078-0.61719 8-1.2305 16.617-1.2305 25.23-54.152-14.152-111.38-19.074-167.38-19.074z"/>
  <path d="m246 157.54c-3.0781 7.3828-3.6914 15.383-4.3086 22.77-0.61719 7.3828-2.4609 15.383-1.8477 22.77 0.61719 8.6172 6.1523 16.617 15.383 17.848 8 1.2305 17.848-3.6914 19.691-12.922 1.8477-8.6172 1.2305-17.23 0.61719-25.848 0-8-0.61719-16.617-2.4609-24.617-4.3047-14.156-22.152-12.309-27.074 0z"/>
  <path d="m430 152c-4.3086 9.8477-5.5391 19.691-6.7695 30.152-1.2305 11.691-3.6914 20.922 1.2305 32 6.1523 12.922 25.848 11.078 32 0 5.5391-9.8477 4.3086-19.691 3.6914-30.77-0.61719-9.8477 0-19.691-3.0781-28.922-3.6914-9.8438-20.922-15.383-27.074-2.4609z"/>
  <path d="m257.08 27.078c-35.691 31.383-72.617 62.152-111.38 90.461-8 5.5391-1.2305 16.617 7.3828 12.922 45.539-19.078 88-42.461 128.62-72 23.383-16.613-2.4648-50.461-24.617-31.383z"/>
  <path d="m549.38 127.38c4.3086-0.61719 6.1523-6.1523 4.3086-9.8477-9.2305-16.617-25.848-25.848-40-38.152-15.383-13.539-29.539-28.922-41.848-45.539-20.305-26.461-57.844 1.8477-36.305 27.695 24 29.539 72 73.23 113.84 65.844z"/>
  <use x="70" y="652.308594" xlink:href="#v"/>
  <use x="92.582031" y="652.308594" xlink:href="#d"/>
  <use x="107.753906" y="652.308594" xlink:href="#b"/>
  <use x="128.625" y="652.308594" xlink:href="#j"/>
  <use x="149.386719" y="652.308594" xlink:href="#c"/>
  <use x="164.09375" y="652.308594" xlink:href="#b"/>
  <use x="184.964844" y="652.308594" xlink:href="#i"/>
  <use x="217.703125" y="652.308594" xlink:href="#g"/>
  <use x="239.726562" y="652.308594" xlink:href="#f"/>
  <use x="270.496094" y="652.308594" xlink:href="#h"/>
  <use x="293.949219" y="652.308594" xlink:href="#a"/>
  <use x="315.085938" y="652.308594" xlink:href="#e"/>
  <use x="347.148438" y="652.308594" xlink:href="#u"/>
  <use x="369.308594" y="652.308594" xlink:href="#f"/>
  <use x="389.367187" y="652.308594" xlink:href="#e"/>
  <use x="421.425781" y="652.308594" xlink:href="#g"/>
  <use x="443.453125" y="652.308594" xlink:href="#a"/>
  <use x="464.589844" y="652.308594" xlink:href="#t"/>
  <use x="475.136719" y="652.308594" xlink:href="#s"/>
  <use x="70" y="683.078125" xlink:href="#r"/>
  <use x="83.386719" y="683.078125" xlink:href="#d"/>
  <use x="98.5625" y="683.078125" xlink:href="#a"/>
  <use x="119.699219" y="683.078125" xlink:href="#e"/>
  <use x="162.472656" y="683.078125" xlink:href="#c"/>
  <use x="177.179688" y="683.078125" xlink:href="#q"/>
  <use x="199.085937" y="683.078125" xlink:href="#b"/>
  <use x="230.667969" y="683.078125" xlink:href="#p"/>
  <use x="256.417969" y="683.078125" xlink:href="#a"/>
  <use x="277.558594" y="683.078125" xlink:href="#o"/>
  <use x="299.460938" y="683.078125" xlink:href="#n"/>
  <use x="332.078125" y="683.078125" xlink:href="#m"/>
  <use x="354.628906" y="683.078125" xlink:href="#d"/>
  <use x="369.804688" y="683.078125" xlink:href="#a"/>
  <use x="390.945312" y="683.078125" xlink:href="#l"/>
  <use x="401.492187" y="683.078125" xlink:href="#b"/>
  <use x="422.359375" y="683.078125" xlink:href="#k"/>
  <use x="440.597656" y="683.078125" xlink:href="#c"/>
 </g>
</svg>
