<?xml version="1.0" encoding="UTF-8"?>
<svg width="700pt" height="700pt" version="1.1" viewBox="0 0 700 700" xmlns="http://www.w3.org/2000/svg" xmlns:xlink="http://www.w3.org/1999/xlink">
 <g>
  <path d="m241.08 209.85c5.5391 4.9219 14.77 5.5391 19.691 0 15.383-17.23 7.3828-44.922 6.1523-66.461-1.2305-19.078 0.61719-48.617-14.152-62.77-3.6914-3.0781-9.2305-3.6914-12.309 0-14.152 15.383-10.461 43.078-9.8477 62.77 0.003907 20.922-6.1523 51.074 10.465 66.461z"/>
  <path d="m377.08 169.85c32 0.61719 48 27.691 64 51.691 14.77 22.152 51.078 1.2305 35.691-20.922-16-23.383-33.23-46.77-56.617-59.691 9.8477-6.1523 19.691-12.309 28.922-18.461 16.617-11.078 36.922-22.77 44.922-41.848 1.8477-4.9219-3.0781-9.2305-7.3828-9.2305-22.152-1.8477-46.152 15.383-65.23 25.23-20.922 11.078-42.461 22.152-59.078 39.383-12.305 11.691-3.0742 33.23 14.773 33.848z"/>
  <path d="m525.38 288.62c-60.922-6.1523-122.46-9.8477-184-9.8477-60.309 0-120 1.2305-178.46 16.617-8 2.4609-5.5391 13.539 1.8477 14.152 20.922 2.4609 41.848 3.0781 62.77 3.6914-2.4609 28.309-0.61719 57.848 6.1523 85.539 9.8477 40.617 35.691 67.078 75.078 81.848 40.617 15.383 96 6.1523 126.15-27.078 33.23-36.309 34.461-86.152 32.617-132.31 19.078 1.2305 38.152 3.0781 57.23 5.5391 24.613 2.4609 24.613-35.691 0.61328-38.152zm-119.38 136c-23.383 26.461-67.078 27.078-96.617 11.691-43.691-23.387-44.305-76.926-48.613-122.46h60.922c-3.0781 13.539-4.3086 27.691-5.5391 41.848-1.8477 17.23-4.9219 30.152 7.3828 44.309 6.7695 7.3828 19.691 6.7695 27.078 0 12.922-12.922 9.2305-27.691 8.6172-44.309-0.61719-14.152-1.2305-27.078-3.6914-41.23 22.77 0.61719 46.152 1.8477 68.922 3.0781 3.6914 36.305 6.7695 78.766-18.461 107.07z"/>





































 </g>
</svg>
