<svg width="158" height="177" viewBox="0 0 158 177" fill="none" xmlns="http://www.w3.org/2000/svg">
<g filter="url(#filter0_d_41_12)">
<path d="M36.3546 53.9519C38.5108 55.8679 42.104 56.1081 44.0196 53.9519C50.0077 47.2449 46.8935 36.4653 46.4145 28.0809C45.9355 20.6544 46.6548 9.15587 40.9056 3.64657C39.4687 2.44837 37.3125 2.20963 36.1141 3.64657C30.6052 9.63467 32.042 20.4154 32.2807 28.0809C32.2823 36.2251 29.8859 47.9623 36.3544 53.9519H36.3546Z" />
<path d="M89.295 38.3813C101.752 38.6215 107.98 49.1605 114.208 58.5029C119.958 67.1259 134.091 58.9819 128.101 50.3587C121.873 41.2564 115.166 32.1526 106.062 27.1229C109.896 24.728 113.727 22.3314 117.321 19.9367C123.789 15.6244 131.693 11.073 134.807 3.64661C135.527 1.73067 133.609 0.053476 131.933 0.053476C123.31 -0.665773 113.968 6.04157 106.542 9.87468C98.3973 14.187 90.0129 18.4977 83.5444 25.2052C78.7545 29.7561 82.3477 38.1405 89.2951 38.3811L89.295 38.3813Z" />
<path d="M147.023 84.6145C123.309 82.2196 99.3539 80.7811 75.3984 80.7811C51.9221 80.7811 28.6863 81.2601 5.92978 87.2496C2.81565 88.2075 3.77359 92.5199 6.64903 92.7585C14.7933 93.7164 22.9391 93.9567 31.0833 94.1954C30.1254 105.215 30.8431 116.714 33.4782 127.493C37.3116 143.304 47.3715 153.604 62.7036 159.354C78.5145 165.342 100.073 161.749 111.81 148.813C124.745 134.679 125.224 115.277 124.506 97.3092C131.933 97.7882 139.358 98.5074 146.784 99.4654C156.365 100.423 156.365 85.572 147.023 84.614L147.023 84.6145ZM100.553 137.555C91.4506 147.855 74.4415 148.095 62.943 142.106C45.9355 133.002 45.6965 112.161 44.0196 94.4361H67.7345C66.5363 99.7064 66.0573 105.215 65.5783 110.726C64.859 117.433 63.6624 122.463 68.4522 127.974C71.0873 130.848 76.1172 130.609 78.9927 127.974C84.0229 122.944 82.5859 117.195 82.3471 110.726C82.1069 105.217 81.8681 100.186 80.9102 94.6767C89.7738 94.9169 98.8756 95.3959 107.739 95.8749C109.176 110.007 110.374 126.536 100.553 137.554L100.553 137.555Z" />
</g>
<defs>
<filter id="filter0_d_41_12" x="0" y="0" width="158" height="176.168" filterUnits="userSpaceOnUse" color-interpolation-filters="sRGB">
<feFlood flood-opacity="0" result="BackgroundImageFix"/>
<feColorMatrix in="SourceAlpha" type="matrix" values="0 0 0 0 0 0 0 0 0 0 0 0 0 0 0 0 0 0 127 0" result="hardAlpha"/>
<feOffset dy="10"/>
<feGaussianBlur stdDeviation="2"/>
<feComposite in2="hardAlpha" operator="out"/>
<feColorMatrix type="matrix" values="0 0 0 0 0 0 0 0 0 0 0 0 0 0 0 0 0 0 0.25 0"/>
<feBlend mode="normal" in2="BackgroundImageFix" result="effect1_dropShadow_41_12"/>
<feBlend mode="normal" in="SourceGraphic" in2="effect1_dropShadow_41_12" result="shape"/>
</filter>
</defs>
</svg>
