<svg width="160" height="157" viewBox="0 0 160 157" fill="none" xmlns="http://www.w3.org/2000/svg">
<g filter="url(#filter0_d_9_2721)">
<path d="M145.876 50.059C138.389 57.3753 126.649 59.5873 116.609 61.2894C104.529 63.3307 91.9376 63.5013 79.6861 63.3307C65.5633 62.9905 51.2707 61.2894 37.6589 57.3753C28.471 54.8231 19.7926 51.0795 11.1154 47.336C8.56321 46.3154 6.18052 49.7186 7.54253 51.9305C12.987 60.949 25.2382 65.2023 34.7665 68.0947H34.9371C34.9371 68.9458 34.7665 69.6262 34.7665 70.4773C33.9154 76.9426 33.4056 83.5785 33.0654 90.0448C32.7252 96.3406 32.385 102.636 32.2143 108.932C32.2143 110.463 31.8741 112.164 31.8741 114.036C21.6654 117.949 12.6469 124.415 5.84156 132.582C3.28938 135.474 6.52199 140.409 10.0949 138.197C18.9427 133.093 27.4505 127.137 37.3188 124.074C46.8471 121.011 56.8863 120.842 66.9259 120.671C93.8094 120.671 122.736 124.415 144.516 141.599C150.301 146.023 158.468 138.026 152.683 133.432C144.346 126.967 135.328 122.201 125.969 118.459C126.309 115.227 126.14 111.994 126.14 108.76C126.14 103.656 126.14 98.5515 125.969 93.6166C125.969 86.3003 126.309 78.6439 125.458 71.1569C135.838 68.945 146.217 65.3721 153.874 57.8852C158.808 52.7819 150.981 45.1255 145.877 50.059H145.876ZM67.606 109.442C59.4386 109.442 51.1018 109.782 43.1039 111.143V109.442C43.2745 102.976 43.4441 96.5101 43.4441 90.2146C43.6148 83.7493 43.4441 77.4538 43.1039 70.9874V70.4766C55.3551 73.369 67.7755 74.7299 80.3671 74.9005C92.2779 75.0711 104.359 74.5602 116.098 72.6885C115.247 79.6645 115.247 86.8113 114.907 93.6167C114.737 98.3807 114.396 103.145 114.227 107.739C114.056 109.951 113.887 112.334 113.887 114.715C98.9138 110.802 83.0906 109.442 67.6068 109.442L67.606 109.442Z" />
<path d="M51.1021 37.6389C50.2511 39.6802 50.0815 41.8922 49.9108 43.9347C49.7402 45.976 49.2304 48.188 49.4 50.2304C49.5706 52.6131 51.101 54.825 53.6533 55.1653C55.8652 55.5055 58.5882 54.1447 59.0977 51.5925C59.6086 49.2098 59.438 46.8285 59.2684 44.4456C59.2684 42.2337 59.0977 39.8511 58.588 37.6392C57.3977 33.7251 52.4631 34.2358 51.1021 37.6392L51.1021 37.6389Z" />
<path d="M101.977 36.1071C100.786 38.8299 100.446 41.5515 100.105 44.4439C99.7652 47.6764 99.0847 50.2287 100.446 53.2918C102.147 56.8646 107.592 56.3548 109.293 53.2918C110.825 50.5689 110.485 47.8473 110.314 44.784C110.143 42.0612 110.314 39.3396 109.463 36.7872C108.442 34.0655 103.678 32.5339 101.977 36.1068L101.977 36.1071Z" />
<path d="M54.1657 1.56686C44.2974 10.2441 34.0875 18.7516 23.3698 26.5788C21.1578 28.1104 23.0295 31.1734 25.4111 30.1517C38.0024 24.8767 49.7426 18.4115 60.9738 10.2441C67.4391 5.65068 60.2923 -3.70811 54.1673 1.56686H54.1657Z" />
<path d="M134.985 29.2998C136.176 29.1292 136.686 27.5988 136.176 26.577C133.624 21.9825 129.029 19.4302 125.116 16.0282C120.863 12.2847 116.949 8.03141 113.546 3.43689C107.931 -3.87943 97.5522 3.94777 103.508 11.0944C110.143 19.2618 123.415 31.3421 134.984 29.2999L134.985 29.2998Z" />
</g>
<defs>
<filter id="filter0_d_9_2721" x="0.927002" y="0" width="158.516" height="156.89" filterUnits="userSpaceOnUse" color-interpolation-filters="sRGB">
<feFlood flood-opacity="0" result="BackgroundImageFix"/>
<feColorMatrix in="SourceAlpha" type="matrix" values="0 0 0 0 0 0 0 0 0 0 0 0 0 0 0 0 0 0 127 0" result="hardAlpha"/>
<feOffset dy="10"/>
<feGaussianBlur stdDeviation="2"/>
<feComposite in2="hardAlpha" operator="out"/>
<feColorMatrix type="matrix" values="0 0 0 0 0 0 0 0 0 0 0 0 0 0 0 0 0 0 0.25 0"/>
<feBlend mode="normal" in2="BackgroundImageFix" result="effect1_dropShadow_9_2721"/>
<feBlend mode="normal" in="SourceGraphic" in2="effect1_dropShadow_9_2721" result="shape"/>
</filter>
</defs>
</svg>
