<?xml version="1.0" encoding="UTF-8"?>
<svg width="700pt" height="700pt" version="1.1" viewBox="0 0 700 700" xmlns="http://www.w3.org/2000/svg" xmlns:xlink="http://www.w3.org/1999/xlink">
 <g>
  <path d="m183.23 213.54c21.539-8.6172 39.383-24.617 54.152-41.848 11.691 11.691 24 24 35.078 36.922 17.23 19.691 48-11.691 28.309-28.309-17.848-15.383-35.078-32-51.691-48-8.6172-8-21.539-6.1523-28.309 3.6914-14.152 21.539-30.77 40-49.848 56.617-9.2305 7.3867 0.61719 25.848 12.309 20.926z"/>
  <path d="m399.23 213.54c21.539-8.6172 39.383-24.617 54.152-41.848 11.691 11.691 24 24 35.078 36.922 17.23 19.691 48-11.691 28.309-28.309-17.848-15.383-35.078-32-51.691-48-8.6172-8-21.539-6.1523-28.309 3.6914-14.152 21.539-30.77 40-49.848 56.617-9.8438 7.3867 0.61719 25.848 12.309 20.926z"/>
  <path d="m237.38 321.23c-1.2305 0.61719-2.4609 1.2305-3.0781 2.4609-7.3828 6.7695-11.078 18.461-1.8477 30.152 16.617 21.539 35.078 41.23 56.617 58.461 15.383 12.309 37.539 35.078 59.078 30.152 21.539-4.9219 44.922-28.922 60.922-43.691 20.309-18.461 38.152-38.77 54.77-60.309 4.9219-6.1523 0-17.848-8-19.078-67.691-9.2305-141.54-19.691-208-1.2305-3.6914-0.60938-7.3828 0.62109-10.461 3.082zm104.62 11.691c28.309 1.2305 56.617 4.3086 84.309 8-23.383 24.617-50.461 48.617-79.383 64-9.2305 4.9219-12.922-1.2305-20.922-8-7.3828-6.1523-14.152-12.309-20.922-19.078-13.539-13.539-25.848-28.309-36.922-44.922 24.609-0.61328 49.223-1.2305 73.84 0z"/>
  <path d="m519.23 244.31c-3.6914 22.77-2.4609 48.617 8 68.922 12.922 24 41.848 40 68.309 28.309 22.152-9.8477 32.617-38.152 20.922-60.309-6.1523-11.691-17.848-19.691-28.309-27.078-14.77-9.8477-30.77-19.691-46.152-28.309-12.922-7.3828-27.691 6.7734-22.77 18.465zm52.309 32.613c7.3828 3.6914 16 8 21.539 14.152 8 9.8477 4.3086 22.152-7.3828 27.078-20.309 8.6172-37.539-12.309-41.848-29.539-2.4609-8.6172-3.0781-17.848-3.0781-26.461 9.8477 4.9258 20.309 9.2305 30.77 14.77z"/>
  <path d="m104.46 341.54c25.23 11.691 53.539-3.0781 67.078-25.848 12.309-20.922 12.922-48 9.2305-71.383 4.3086-11.691-9.8477-25.848-22.77-18.461-14.77 8-29.539 17.23-43.691 26.461-11.078 7.3828-22.77 15.383-29.539 26.461-12.922 22.152-3.6914 51.691 19.691 62.77zm0-48c4.9219-8 16-12.922 24-16.617 9.8477-4.9219 20.922-9.8477 30.77-14.77 0 9.2305-0.61719 18.461-3.0781 26.461-4.3086 17.23-21.539 38.152-41.848 29.539-9.2266-4.3047-15.383-15.383-9.8438-24.613z"/>
  <use x="70" y="652.308594" xlink:href="#v"/>
  <use x="92.582031" y="652.308594" xlink:href="#d"/>
  <use x="107.753906" y="652.308594" xlink:href="#b"/>
  <use x="128.625" y="652.308594" xlink:href="#j"/>
  <use x="149.386719" y="652.308594" xlink:href="#c"/>
  <use x="164.09375" y="652.308594" xlink:href="#b"/>
  <use x="184.964844" y="652.308594" xlink:href="#i"/>
  <use x="217.703125" y="652.308594" xlink:href="#g"/>
  <use x="239.726562" y="652.308594" xlink:href="#f"/>
  <use x="270.496094" y="652.308594" xlink:href="#h"/>
  <use x="293.949219" y="652.308594" xlink:href="#a"/>
  <use x="315.085938" y="652.308594" xlink:href="#e"/>
  <use x="347.148438" y="652.308594" xlink:href="#u"/>
  <use x="369.308594" y="652.308594" xlink:href="#f"/>
  <use x="389.367187" y="652.308594" xlink:href="#e"/>
  <use x="421.425781" y="652.308594" xlink:href="#g"/>
  <use x="443.453125" y="652.308594" xlink:href="#a"/>
  <use x="464.589844" y="652.308594" xlink:href="#t"/>
  <use x="475.136719" y="652.308594" xlink:href="#s"/>
  <use x="70" y="683.078125" xlink:href="#r"/>
  <use x="83.386719" y="683.078125" xlink:href="#d"/>
  <use x="98.5625" y="683.078125" xlink:href="#a"/>
  <use x="119.699219" y="683.078125" xlink:href="#e"/>
  <use x="162.472656" y="683.078125" xlink:href="#c"/>
  <use x="177.179688" y="683.078125" xlink:href="#q"/>
  <use x="199.085937" y="683.078125" xlink:href="#b"/>
  <use x="230.667969" y="683.078125" xlink:href="#p"/>
  <use x="256.417969" y="683.078125" xlink:href="#a"/>
  <use x="277.558594" y="683.078125" xlink:href="#o"/>
  <use x="299.460938" y="683.078125" xlink:href="#n"/>
  <use x="332.078125" y="683.078125" xlink:href="#m"/>
  <use x="354.628906" y="683.078125" xlink:href="#d"/>
  <use x="369.804688" y="683.078125" xlink:href="#a"/>
  <use x="390.945312" y="683.078125" xlink:href="#l"/>
  <use x="401.492187" y="683.078125" xlink:href="#b"/>
  <use x="422.359375" y="683.078125" xlink:href="#k"/>
  <use x="440.597656" y="683.078125" xlink:href="#c"/>
 </g>
</svg>
