<?xml version="1.0" encoding="UTF-8"?>
<svg width="700pt" height="700pt" version="1.1" viewBox="0 0 700 700" xmlns="http://www.w3.org/2000/svg" xmlns:xlink="http://www.w3.org/1999/xlink">
 <g>
  <path d="m420.15 59.078c-3.6914 9.8477-3.0781 20.922-4.3086 31.383-1.2305 14.77-3.0781 29.539-1.8477 44.309 1.2305 21.539 31.383 20.922 33.23 0 1.2305-14.77 0-29.539-0.61719-44.309-0.61719-10.461 0-21.539-3.0781-31.383-3.6836-11.695-19.07-11.078-23.379 0z"/>
  <path d="m484.77 142.15c3.6914 9.8477 17.848 11.078 21.539 0 4.3086-14.152-0.61719-34.461-1.2305-49.23-0.61719-11.078 0-28.309-6.1523-37.539-2.4609-3.6914-8.6172-4.3086-11.078 0-6.1523 9.8477-4.3086 26.461-4.3086 37.539-0.61719 14.77-4.3086 35.695 1.2305 49.23z"/>
  <path d="m574.62 155.08c-0.61719-23.383-1.2305-46.77-5.5391-70.152-1.8477-9.8477-1.8477-23.383-9.8477-30.152-2.4609-1.8477-5.5391-2.4609-8 0-7.3828 6.7695-8 19.691-9.2305 28.922-3.6914 24-4.3086 47.383-4.9219 71.383-0.61719 22.77-0.61719 46.152-0.61719 68.922 0 14.152-3.0781 34.461 11.078 42.461v-0.61719c5.5391 3.0781 12.922 3.0781 18.461 0 1.2305-0.61719 1.8477-1.2305 3.0781-2.4609l0.61719-0.61719c9.8477-9.2305 7.3828-25.848 7.3828-38.152-1.2305-22.766-1.8477-46.152-2.4609-69.535z"/>
  <path d="m313.69 372.31c-60.309 6.7695-112.62 46.77-134.15 104-4.9219 12.309 12.922 20.309 20.922 12.309 17.23-16 31.383-35.078 49.848-50.461 17.848-14.77 39.383-24 62.77-26.461 41.23-4.3086 80 12.922 108.31 41.848-49.848 0-100.31 0.61719-150.15 0.61719-27.691 0-27.691 43.078 0 43.078 64.617 0 128.62 0 193.23-0.61719 16.617 0 27.078-18.461 18.461-32.617-33.848-59.082-100.31-99.082-169.23-91.695z"/>
  <path d="m269.38 280.62c19.078-30.152 7.3828-65.23-17.23-88-8-7.3828-15.383-7.3828-20.922-4.3086-10.461-7.3828-23.383-10.461-38.152-9.2305-19.078 1.8477-36.309 12.922-48 28.309-25.23 35.078-12.309 85.539 26.461 104.62 36.309 18.457 76.309 1.8438 97.844-31.387zm-88.613-49.234c8-13.539 24-16 40-16.617 1.8477 4.9219 5.5391 9.2305 12.922 9.8477 14.77 1.8477 13.539 28.309 8 36.922-9.8477 16-31.383 23.383-48 12.922-16.613-9.2266-22.77-26.457-12.922-43.074z"/>
  <path d="m487.85 192.62c-8-7.3828-15.383-7.3828-20.922-4.3086-10.461-7.3828-23.383-10.461-38.152-9.2305-19.078 1.8477-36.309 12.922-48 28.309-25.23 35.078-12.309 85.539 26.461 104.62 36.922 18.461 76.922 1.8477 97.848-31.383 19.07-30.16 7.3789-65.238-17.234-88.004zm-11.078 69.535c-9.8477 16-31.383 23.383-48 12.922-16-9.8477-22.152-27.078-12.309-43.691 8-13.539 24-16 40-16.617 1.8477 4.9219 5.5391 9.2305 12.922 9.8477 14.156 2.4648 12.926 28.309 7.3867 37.539z"/>
  <use x="70" y="652.308594" xlink:href="#v"/>
  <use x="92.582031" y="652.308594" xlink:href="#d"/>
  <use x="107.753906" y="652.308594" xlink:href="#b"/>
  <use x="128.625" y="652.308594" xlink:href="#j"/>
  <use x="149.386719" y="652.308594" xlink:href="#c"/>
  <use x="164.09375" y="652.308594" xlink:href="#b"/>
  <use x="184.964844" y="652.308594" xlink:href="#i"/>
  <use x="217.703125" y="652.308594" xlink:href="#g"/>
  <use x="239.726562" y="652.308594" xlink:href="#f"/>
  <use x="270.496094" y="652.308594" xlink:href="#h"/>
  <use x="293.949219" y="652.308594" xlink:href="#a"/>
  <use x="315.085938" y="652.308594" xlink:href="#e"/>
  <use x="347.148438" y="652.308594" xlink:href="#u"/>
  <use x="369.308594" y="652.308594" xlink:href="#f"/>
  <use x="389.367187" y="652.308594" xlink:href="#e"/>
  <use x="421.425781" y="652.308594" xlink:href="#g"/>
  <use x="443.453125" y="652.308594" xlink:href="#a"/>
  <use x="464.589844" y="652.308594" xlink:href="#t"/>
  <use x="475.136719" y="652.308594" xlink:href="#s"/>
  <use x="70" y="683.078125" xlink:href="#r"/>
  <use x="83.386719" y="683.078125" xlink:href="#d"/>
  <use x="98.5625" y="683.078125" xlink:href="#a"/>
  <use x="119.699219" y="683.078125" xlink:href="#e"/>
  <use x="162.472656" y="683.078125" xlink:href="#c"/>
  <use x="177.179688" y="683.078125" xlink:href="#q"/>
  <use x="199.085937" y="683.078125" xlink:href="#b"/>
  <use x="230.667969" y="683.078125" xlink:href="#p"/>
  <use x="256.417969" y="683.078125" xlink:href="#a"/>
  <use x="277.558594" y="683.078125" xlink:href="#o"/>
  <use x="299.460938" y="683.078125" xlink:href="#n"/>
  <use x="332.078125" y="683.078125" xlink:href="#m"/>
  <use x="354.628906" y="683.078125" xlink:href="#d"/>
  <use x="369.804688" y="683.078125" xlink:href="#a"/>
  <use x="390.945312" y="683.078125" xlink:href="#l"/>
  <use x="401.492187" y="683.078125" xlink:href="#b"/>
  <use x="422.359375" y="683.078125" xlink:href="#k"/>
  <use x="440.597656" y="683.078125" xlink:href="#c"/>
 </g>
</svg>
