<svg width="152" height="158" viewBox="0 0 152 158" fill="none" xmlns="http://www.w3.org/2000/svg">
<g filter="url(#filter0_d_9_2634)">
<path d="M97.035 3.5541C95.8542 6.70415 96.0504 10.2466 95.6568 13.5928C95.2632 18.3174 94.6722 23.0417 95.0657 27.7662C95.4594 34.6561 105.104 34.4587 105.695 27.7662C106.089 23.0417 105.695 18.3174 105.498 13.5928C105.3 10.2466 105.498 6.70297 104.513 3.5541C103.335 -0.186867 98.4132 0.0104971 97.0348 3.5541H97.035Z" fill="white"/>
<path d="M117.705 30.1269C118.886 33.277 123.414 33.6705 124.595 30.1269C125.973 25.6 124.398 19.1036 124.201 14.3794C124.004 10.8358 124.201 5.32397 122.233 2.3715C121.446 1.19071 119.477 0.993279 118.69 2.3715C116.722 5.52156 117.312 10.8358 117.312 14.3794C117.114 19.104 115.933 25.7974 117.705 30.1269H117.705Z" fill="white"/>
<path d="M146.446 34.263C146.249 26.7833 146.053 19.3023 144.675 11.8229C144.084 8.67288 144.084 4.34324 141.525 2.17799C140.737 1.58696 139.753 1.39081 138.966 2.17799C136.604 4.3434 136.407 8.47669 136.013 11.4295C134.832 19.1065 134.635 26.5862 134.439 34.2633C134.241 41.5469 134.241 49.0262 134.241 56.3098C134.241 60.8368 133.256 67.3331 137.785 69.8922V69.6947C139.557 70.6793 141.918 70.6793 143.69 69.6947C144.084 69.4973 144.281 69.3011 144.675 68.9075L144.872 68.7101C148.022 65.7575 147.234 60.4419 147.234 56.5062C146.84 49.2238 146.643 41.7432 146.446 34.2635L146.446 34.263Z" fill="white"/>
<path d="M62.9805 103.75C43.689 105.915 26.9559 118.711 20.069 137.017C18.4946 140.954 24.2024 143.513 26.7615 140.954C32.2729 135.836 36.8002 129.734 42.7067 124.813C48.4159 120.089 55.3044 117.136 62.7854 116.349C75.9739 114.971 88.3756 120.482 97.4313 129.735C81.4861 129.735 65.3444 129.933 49.4017 129.933C40.544 129.933 40.544 143.712 49.4017 143.712C70.0712 143.712 90.5443 143.712 111.212 143.515C116.527 143.515 119.873 137.61 117.117 133.081C106.29 114.182 85.03 101.387 62.984 103.75L62.9805 103.75Z" fill="white"/>
<path d="M48.8069 74.4203C54.9095 64.7754 51.1685 53.5548 43.2954 46.2712C40.7364 43.9096 38.3747 43.9096 36.6029 44.8929C33.2567 42.5313 29.1232 41.5467 24.399 41.9403C18.2964 42.5314 12.7846 46.0738 9.04488 50.9957C0.974378 62.2164 5.10751 78.3577 17.5091 84.4613C29.1236 90.3652 41.9187 85.051 48.8072 74.4213L48.8069 74.4203ZM20.4616 58.6715C23.0206 54.3407 28.1387 53.5535 33.2567 53.3561C33.8477 54.9305 35.0285 56.3087 37.3902 56.5062C42.1147 57.0972 41.721 65.5616 39.9492 68.3167C36.7991 73.4347 29.9105 75.7964 24.5951 72.4501C19.2809 69.4987 17.3115 63.9871 20.4616 58.6717V58.6715Z" fill="white"/>
<path d="M118.691 46.2712C116.132 43.9096 113.77 43.9096 111.998 44.8929C108.652 42.5313 104.518 41.5467 99.7941 41.9403C93.6915 42.5314 88.1797 46.0738 84.44 50.9957C76.3695 62.2164 80.5027 78.3577 92.9043 84.4613C104.715 90.3665 117.51 85.0523 124.204 74.4226C130.304 64.7751 126.564 53.5544 118.691 46.2721L118.691 46.2712ZM115.147 68.5138C111.997 73.6319 105.108 75.9935 99.7928 72.6473C94.6748 69.4972 92.7069 63.9856 95.8555 58.6715C98.4145 54.3407 103.533 53.5535 108.651 53.3561C109.242 54.9305 110.422 56.3087 112.784 56.5062C117.312 57.2946 116.919 65.5616 115.147 68.514L115.147 68.5138Z" fill="white"/>
</g>
<defs>
<filter id="filter0_d_9_2634" x="0.886963" y="0.821884" width="150.434" height="156.89" filterUnits="userSpaceOnUse" color-interpolation-filters="sRGB">
<feFlood flood-opacity="0" result="BackgroundImageFix"/>
<feColorMatrix in="SourceAlpha" type="matrix" values="0 0 0 0 0 0 0 0 0 0 0 0 0 0 0 0 0 0 127 0" result="hardAlpha"/>
<feOffset dy="10"/>
<feGaussianBlur stdDeviation="2"/>
<feComposite in2="hardAlpha" operator="out"/>
<feColorMatrix type="matrix" values="0 0 0 0 0 0 0 0 0 0 0 0 0 0 0 0 0 0 0.25 0"/>
<feBlend mode="normal" in2="BackgroundImageFix" result="effect1_dropShadow_9_2634"/>
<feBlend mode="normal" in="SourceGraphic" in2="effect1_dropShadow_9_2634" result="shape"/>
</filter>
</defs>
</svg>
