<svg width="174" height="158" viewBox="0 0 174 158" fill="none" xmlns="http://www.w3.org/2000/svg">
  <g filter="url(#filter0_d_9_2615)">
    <path d="M92.4292 54.964C97.7123 59.2409 105.512 68.2992 112.557 68.8025C118.092 69.3056 125.137 61.2549 113.815 52.9517C110.041 50.184 106.267 46.9131 102.494 43.895C101.738 43.1396 100.732 42.6365 99.9784 41.8827C108.784 42.6381 118.344 41.8827 126.647 41.8827C136.207 42.1351 136.207 27.038 126.647 27.038C117.841 27.038 107.778 26.0319 98.2167 27.038C103.5 20.4966 108.532 13.9551 112.558 6.65804C114.32 3.3873 110.546 -1.14186 107.275 1.37498C95.7011 9.92879 85.8889 20.9994 75.3231 31.0639C72.5555 33.5793 72.3047 39.1144 75.3231 41.6317C80.8568 45.9053 86.6432 50.4345 92.4291 54.9637L92.4292 54.964Z" />
    <path d="M19.7208 53.7047C19.9731 45.4015 20.2239 37.0988 20.2239 28.7972C20.2239 22.2557 21.23 14.4558 18.7147 8.41721C17.2055 4.89413 11.6703 5.3988 9.90861 8.41721C6.63786 14.2032 7.14094 22.5063 6.38553 28.7972C5.63011 37.1004 5.12706 45.4032 4.37324 53.7047C3.87016 63.517 19.4685 63.517 19.7208 53.7047Z" />
    <path d="M42.1132 139.75C49.1576 145.536 60.9822 143.776 68.7821 140.505C76.582 136.982 82.8712 130.693 85.1358 122.139C87.6511 112.83 83.3742 102.767 76.0791 97.735C81.3622 92.7025 84.1296 85.6582 80.1053 77.8583C74.5699 66.2843 54.6949 64.2724 47.1456 74.5875C45.6364 76.5998 47.3979 79.1167 49.1579 79.62C54.9438 81.6323 62.2408 77.1047 67.5239 80.6261C76.33 86.4121 65.5116 93.4568 59.4734 95.2181C52.9319 97.2304 55.6996 107.295 62.241 105.533C71.2977 103.269 77.3363 112.327 73.0594 120.378C69.0333 127.675 59.9765 128.178 53.1827 124.655C44.3783 119.875 33.5582 132.453 42.1137 139.75L42.1132 139.75Z" />
    <path d="M132.435 80.6271C129.919 78.6148 126.396 77.104 123.125 77.104C115.325 77.104 110.545 83.8978 110.042 91.1932C108.784 107.547 121.616 121.636 135.202 128.933C137.467 131.448 141.491 132.204 144.259 129.185C154.071 118.618 175.457 101.51 167.406 84.9036C164.388 78.3621 157.342 75.8469 150.55 76.8531C146.776 77.3562 143.002 78.8654 139.982 81.3822C138.723 82.3884 137.717 84.1499 136.459 85.9114C134.949 83.8975 133.943 81.8836 132.434 80.6267L132.435 80.6271ZM146.776 92.1994C151.556 86.4135 160.362 88.1732 156.588 96.7286C152.562 105.535 141.996 112.83 135.202 119.624C130.673 114.341 127.151 107.799 125.39 101.005C125.137 100.25 123.125 91.9488 124.131 91.6961C124.634 91.4438 131.428 100.502 132.685 101.256C134.447 102.515 137.465 102.515 139.479 101.256C143.002 98.9931 144.008 95.4701 146.776 92.1994H146.776Z" />
  </g>
  <defs>
    <filter id="filter0_d_9_2615" x="0.361328" y="0.643829" width="172.82" height="156.89" filterUnits="userSpaceOnUse" color-interpolation-filters="sRGB">
      <feFlood flood-opacity="0" result="BackgroundImageFix"/>
      <feColorMatrix in="SourceAlpha" type="matrix" values="0 0 0 0 0 0 0 0 0 0 0 0 0 0 0 0 0 0 127 0" result="hardAlpha"/>
      <feOffset dy="10"/>
      <feGaussianBlur stdDeviation="2"/>
      <feComposite in2="hardAlpha" operator="out"/>
      <feColorMatrix type="matrix" values="0 0 0 0 0 0 0 0 0 0 0 0 0 0 0 0 0 0 0.25 0"/>
      <feBlend mode="normal" in2="BackgroundImageFix" result="effect1_dropShadow_9_2615"/>
      <feBlend mode="normal" in="SourceGraphic" in2="effect1_dropShadow_9_2615" result="shape"/>
    </filter>
  </defs>
</svg>
