<?xml version="1.0" encoding="UTF-8"?>
<svg width="700pt" height="700pt" version="1.1" viewBox="0 0 700 700" xmlns="http://www.w3.org/2000/svg" xmlns:xlink="http://www.w3.org/1999/xlink">
 <g>
  <path d="m250.31 132.92c-10.461-11.078-20.309-28.922-36.922-28.922-4.3086 0-7.3828 3.0781-9.2305 6.7695-6.7695 16.617 11.078 35.691 20.922 48 2.4609 3.0781 4.9219 6.1523 8 9.2305h-16.617c-17.848 0-41.23-1.8477-56 9.2305-6.7695 4.9219-8 14.77 0 19.691 15.383 8.6172 35.078 6.1523 52.309 7.3828 8.6172 0.61719 17.23 1.8477 25.848 3.0781-13.539 14.152-25.23 28.922-33.23 44.922-9.8477 20.922 16 44.922 33.848 25.848 21.539-23.383 37.539-51.691 59.078-75.078 9.2305-9.8477 6.1523-23.383-3.6914-30.77-16.004-11.074-30.773-24.613-44.312-39.383z"/>
  <path d="m399.23 172.92c-10.461 7.3828-12.922 20.922-3.6914 30.77 22.152 23.383 37.539 51.691 59.078 75.078 17.23 19.078 43.691-4.9219 33.848-25.848-7.3828-16-19.691-30.77-33.23-44.922 8.6172-1.2305 17.848-2.4609 25.848-3.0781 17.23-1.2305 36.922 1.2305 52.309-7.3828 8-4.3086 6.7695-14.77 0-19.691-14.77-11.078-38.152-9.2305-56-9.2305h-16.617c2.4609-3.0781 5.5391-6.1523 8-9.2305 9.8477-12.309 27.691-31.383 20.922-48-1.8477-3.6914-4.3086-6.7695-9.2305-6.7695-16.617 0-25.848 17.848-36.922 28.922-13.543 14.152-28.312 27.691-44.312 39.383z"/>
  <path d="m421.38 392c25.848 16 41.848 36.922 59.078 61.539 12.922 18.461 39.383 3.0781 30.152-17.23-28.305-60.926-104.61-97.848-169.23-97.23-33.848 0-68.309 10.461-97.23 27.691-22.152 13.539-62.152 41.848-61.539 71.383 0 6.1523 6.1523 8.6172 10.461 6.1523 12.922-5.5391 20.309-19.078 30.77-28.309 10.461-9.8477 21.539-18.461 34.461-25.23 25.23-14.152 54.152-22.152 83.691-21.539 27.695 0.003907 55.387 8.6211 79.387 22.773z"/>
  <use x="70" y="652.308594" xlink:href="#v"/>
  <use x="92.582031" y="652.308594" xlink:href="#d"/>
  <use x="107.753906" y="652.308594" xlink:href="#b"/>
  <use x="128.625" y="652.308594" xlink:href="#j"/>
  <use x="149.386719" y="652.308594" xlink:href="#c"/>
  <use x="164.09375" y="652.308594" xlink:href="#b"/>
  <use x="184.964844" y="652.308594" xlink:href="#i"/>
  <use x="217.703125" y="652.308594" xlink:href="#g"/>
  <use x="239.726562" y="652.308594" xlink:href="#f"/>
  <use x="270.496094" y="652.308594" xlink:href="#h"/>
  <use x="293.949219" y="652.308594" xlink:href="#a"/>
  <use x="315.085938" y="652.308594" xlink:href="#e"/>
  <use x="347.148438" y="652.308594" xlink:href="#u"/>
  <use x="369.308594" y="652.308594" xlink:href="#f"/>
  <use x="389.367187" y="652.308594" xlink:href="#e"/>
  <use x="421.425781" y="652.308594" xlink:href="#g"/>
  <use x="443.453125" y="652.308594" xlink:href="#a"/>
  <use x="464.589844" y="652.308594" xlink:href="#t"/>
  <use x="475.136719" y="652.308594" xlink:href="#s"/>
  <use x="70" y="683.078125" xlink:href="#r"/>
  <use x="83.386719" y="683.078125" xlink:href="#d"/>
  <use x="98.5625" y="683.078125" xlink:href="#a"/>
  <use x="119.699219" y="683.078125" xlink:href="#e"/>
  <use x="162.472656" y="683.078125" xlink:href="#c"/>
  <use x="177.179688" y="683.078125" xlink:href="#q"/>
  <use x="199.085937" y="683.078125" xlink:href="#b"/>
  <use x="230.667969" y="683.078125" xlink:href="#p"/>
  <use x="256.417969" y="683.078125" xlink:href="#a"/>
  <use x="277.558594" y="683.078125" xlink:href="#o"/>
  <use x="299.460938" y="683.078125" xlink:href="#n"/>
  <use x="332.078125" y="683.078125" xlink:href="#m"/>
  <use x="354.628906" y="683.078125" xlink:href="#d"/>
  <use x="369.804688" y="683.078125" xlink:href="#a"/>
  <use x="390.945312" y="683.078125" xlink:href="#l"/>
  <use x="401.492187" y="683.078125" xlink:href="#b"/>
  <use x="422.359375" y="683.078125" xlink:href="#k"/>
  <use x="440.597656" y="683.078125" xlink:href="#c"/>
 </g>
</svg>
