<svg width="222" height="157" viewBox="0 0 222 157" fill="none" xmlns="http://www.w3.org/2000/svg">
  <g filter="url(#filter0_d_41_24)">
    <path d="M98.0964 138.655C105.98 145.131 119.214 143.161 127.944 139.501C136.673 135.558 143.712 128.519 146.247 118.945C149.062 108.527 144.275 97.2644 136.11 91.6326C142.023 86.0003 145.121 78.1164 140.617 69.3868C134.421 56.4334 112.178 54.1817 103.728 65.7262C102.039 67.9783 104.011 70.7952 105.981 71.3585C112.456 73.6106 120.623 68.5434 126.536 72.4845C136.391 78.9601 124.284 86.8445 117.526 88.8157C110.204 91.0678 113.302 102.332 120.623 100.36C130.759 97.8257 137.518 107.964 132.731 116.974C128.225 125.141 118.089 125.704 110.485 121.761C100.912 116.692 88.5236 130.489 98.0969 138.655L98.0964 138.655Z" />
    <path d="M48.2575 35.0333C51.3551 40.1023 57.8309 39.5393 60.9282 35.0333C67.4037 26.3038 75.8528 20.1087 84.0177 13.3522C91.0565 7.43946 82.0462 -3.26177 74.4444 0.962074C66.8409 5.18569 60.3649 11.6615 54.7331 18.7021C47.9748 9.97258 39.2452 1.52534 29.1091 1.24485C24.6031 1.24485 22.3507 6.87711 25.4485 10.2549C33.6152 18.7003 42.0625 24.8954 48.2575 35.0333V35.0333Z" />
    <path d="M155.819 37.2846C158.916 42.3536 165.392 41.7906 168.49 37.2846C174.965 28.555 183.414 22.36 191.579 15.6035C198.618 9.69075 189.608 -1.01048 182.006 3.21336C174.402 7.43698 167.926 13.9128 162.294 20.9534C155.536 12.2239 146.807 3.77664 136.67 3.49615C132.164 3.49615 129.912 9.12839 133.01 12.5062C140.896 20.6711 149.343 27.1466 155.819 37.2846V37.2846Z" />
    <path d="M11.6519 87.6861C15.3125 83.7432 19.5358 80.0827 23.4792 76.4221C27.4222 72.4791 32.772 69.101 32.772 63.1882C32.772 59.8101 29.9569 56.9931 26.577 56.9931C20.3819 57.2756 16.7213 62.9059 13.3431 67.6925C9.96491 72.1986 7.14801 77.2659 4.61352 82.3348C2.0772 86.5602 7.99167 91.3467 11.6523 87.6861H11.6519Z" />
    <path d="M41.4992 89.3744C45.4422 86.2769 49.3832 83.4617 53.3265 80.0816C56.9871 76.984 62.0561 73.8865 64.0259 69.3822C66.5605 63.1871 60.9284 55.866 54.1703 59.5265C49.6643 62.0611 46.8492 67.4105 44.0342 71.6343C41.2192 75.8582 38.6847 80.3639 35.8674 84.5877C33.3329 88.8114 38.402 91.9089 41.4997 89.3744H41.4992Z" />
    <path d="M164.549 87.6861C168.21 83.7432 172.433 80.0827 176.377 76.4221C180.32 72.4791 185.67 69.101 185.67 63.1882C185.67 59.8101 182.854 56.9931 179.474 56.9931C173.279 57.2756 169.619 62.9059 166.241 67.6925C162.862 72.1986 160.046 77.2659 157.511 82.3348C155.257 86.5602 160.889 91.3467 164.55 87.6861H164.549Z" />
    <path d="M194.397 89.3744C198.34 86.2769 202.281 83.4617 206.224 80.0816C209.885 76.984 214.954 73.8865 216.924 69.3822C219.458 63.1871 213.826 55.866 207.068 59.5265C202.562 62.0611 199.747 67.4105 196.932 71.6343C194.117 75.8582 191.582 80.3639 188.765 84.5877C186.513 88.8114 191.3 91.9089 194.397 89.3744H194.397Z" />
  </g>
  <defs>
    <filter id="filter0_d_41_24" x="0" y="-1.52588e-05" width="221.543" height="156.89" filterUnits="userSpaceOnUse" color-interpolation-filters="sRGB">
      <feFlood flood-opacity="0" result="BackgroundImageFix"/>
      <feColorMatrix in="SourceAlpha" type="matrix" values="0 0 0 0 0 0 0 0 0 0 0 0 0 0 0 0 0 0 127 0" result="hardAlpha"/>
      <feOffset dy="10"/>
      <feGaussianBlur stdDeviation="2"/>
      <feComposite in2="hardAlpha" operator="out"/>
      <feColorMatrix type="matrix" values="0 0 0 0 0 0 0 0 0 0 0 0 0 0 0 0 0 0 0.25 0"/>
      <feBlend mode="normal" in2="BackgroundImageFix" result="effect1_dropShadow_41_24"/>
      <feBlend mode="normal" in="SourceGraphic" in2="effect1_dropShadow_41_24" result="shape"/>
    </filter>
  </defs>
</svg>
