<?xml version="1.0" encoding="UTF-8"?>
<svg width="700pt" height="700pt" version="1.1" viewBox="0 0 700 700" xmlns="http://www.w3.org/2000/svg" xmlns:xlink="http://www.w3.org/1999/xlink">
 <g>
  <path d="m326 443.08c17.23 14.152 46.152 9.8477 65.23 1.8477 19.078-8.6172 34.461-24 40-44.922 6.1523-22.77-4.3086-47.383-22.152-59.691 12.922-12.309 19.691-29.539 9.8477-48.617-13.539-28.309-62.152-33.23-80.617-8-3.6914 4.9219 0.61719 11.078 4.9219 12.309 14.152 4.9219 32-6.1523 44.922 2.4609 21.539 14.152-4.9219 31.383-19.691 35.691-16 4.9219-9.2305 29.539 6.7695 25.23 22.152-5.5391 36.922 16.617 26.461 36.309-9.8477 17.848-32 19.078-48.617 10.461-20.922-11.078-47.996 19.074-27.074 36.922z"/>
  <path d="m217.08 216.62c6.7695 11.078 20.922 9.8477 27.691 0 14.152-19.078 32.617-32.617 50.461-47.383 15.383-12.922-4.3086-36.309-20.922-27.078-16.617 9.2305-30.77 23.383-43.078 38.77-14.77-19.078-33.848-37.539-56-38.152-9.8477 0-14.77 12.309-8 19.691 17.848 18.457 36.309 31.996 49.848 54.152z"/>
  <path d="m452.15 221.54c6.7695 11.078 20.922 9.8477 27.691 0 14.152-19.078 32.617-32.617 50.461-47.383 15.383-12.922-4.3086-36.309-20.922-27.078-16.617 9.2305-30.77 23.383-43.078 38.77-14.77-19.078-33.848-37.539-56-38.152-9.8477 0-14.77 12.309-8 19.691 17.234 17.844 35.695 31.996 49.848 54.152z"/>
  <path d="m137.08 331.69c8-8.6172 17.23-16.617 25.848-24.617 8.6172-8.6172 20.309-16 20.309-28.922 0-7.3828-6.1523-13.539-13.539-13.539-13.539 0.61719-21.539 12.922-28.922 23.383-7.3828 9.8477-13.539 20.922-19.078 32-5.543 9.2344 7.3828 19.695 15.383 11.695z"/>
  <path d="m202.31 335.38c8.6172-6.7695 17.23-12.922 25.848-20.309 8-6.7695 19.078-13.539 23.383-23.383 5.5391-13.539-6.7695-29.539-21.539-21.539-9.8477 5.5391-16 17.23-22.152 26.461s-11.691 19.078-17.848 28.309c-5.5391 9.2305 5.5391 16 12.309 10.461z"/>
  <path d="m471.23 331.69c8-8.6172 17.23-16.617 25.848-24.617 8.6172-8.6172 20.309-16 20.309-28.922 0-7.3828-6.1523-13.539-13.539-13.539-13.539 0.61719-21.539 12.922-28.922 23.383-7.3828 9.8477-13.539 20.922-19.078 32-4.9258 9.2344 7.3828 19.695 15.383 11.695z"/>
  <path d="m536.46 335.38c8.6172-6.7695 17.23-12.922 25.848-20.309 8-6.7695 19.078-13.539 23.383-23.383 5.5391-13.539-6.7695-29.539-21.539-21.539-9.8477 5.5391-16 17.23-22.152 26.461s-11.691 19.078-17.848 28.309c-4.9219 9.2305 5.5391 16 12.309 10.461z"/>





































 </g>
</svg>
