<svg width="134" height="157" viewBox="0 0 134 157" fill="none" xmlns="http://www.w3.org/2000/svg">
  <g filter="url(#filter0_d_41_20)">
    <path d="M24.5195 47.7254C24.7689 39.5179 25.0167 31.3108 25.0167 23.1048C25.0167 16.6387 26.0113 8.92864 23.5249 2.95959C22.0331 -0.522912 16.5617 -0.0240494 14.8203 2.95959C11.5872 8.67888 12.0845 16.8864 11.3378 23.1048C10.5911 31.3124 10.0938 39.5195 9.34869 47.7254C8.8514 57.1769 24.2717 57.4247 24.5195 47.7254V47.7254Z" />
    <path d="M88.6838 53.6945C93.9061 57.9221 101.616 66.8761 108.579 67.3736C117.035 70.1094 121.015 59.9129 109.823 51.7054C106.093 48.9696 102.363 45.7363 98.6324 42.753C97.8857 42.0063 96.8912 41.509 96.1461 40.7639C104.851 41.5106 114.301 40.7639 122.508 40.7639C131.958 41.0133 131.958 26.0902 122.508 26.0902C113.803 26.0902 103.856 25.0957 94.4047 26.0902C99.6269 19.6241 104.601 13.1579 108.581 5.94497C110.322 2.7119 106.592 -1.76509 103.359 0.722757C91.918 9.17804 82.2188 20.1212 71.7748 30.0697C69.039 32.5561 68.7912 38.0275 71.7748 40.5158C77.2431 44.4923 82.9645 49.2188 88.6838 53.6941L88.6838 53.6945Z" />
    <path d="M32.7274 120.098C37.2044 124.575 41.1827 129.3 44.9128 134.274C47.6486 137.756 50.3844 141.237 54.8614 142.481C59.5861 143.725 63.3167 141.984 67.0468 139.248C72.5184 135.021 77.7406 130.544 82.9628 126.316C88.185 122.088 93.6566 117.611 98.8788 113.384C104.101 109.156 110.07 105.176 114.297 99.9545C119.272 93.7377 113.303 85.0331 105.593 88.7636C95.6441 93.4883 86.9411 102.69 78.4842 109.654C74.2565 113.136 70.0289 116.369 66.049 119.85C64.0631 121.092 61.5752 124.078 59.3368 125.072C58.8395 125.322 58.3422 125.569 58.3422 125.569C57.8449 124.823 57.0983 124.326 56.601 123.58C45.1604 109.654 28.995 92.7413 10.8409 87.7673C5.61873 86.2755 1.63883 92.9895 5.61873 96.7196C13.8263 105.177 24.2719 111.643 32.7272 120.098L32.7274 120.098Z" />
  </g>
  <defs>
    <filter id="filter0_d_41_20" x="0" y="3.05176e-05" width="133.595" height="156.89" filterUnits="userSpaceOnUse" color-interpolation-filters="sRGB">
      <feFlood flood-opacity="0" result="BackgroundImageFix"/>
      <feColorMatrix in="SourceAlpha" type="matrix" values="0 0 0 0 0 0 0 0 0 0 0 0 0 0 0 0 0 0 127 0" result="hardAlpha"/>
      <feOffset dy="10"/>
      <feGaussianBlur stdDeviation="2"/>
      <feComposite in2="hardAlpha" operator="out"/>
      <feColorMatrix type="matrix" values="0 0 0 0 0 0 0 0 0 0 0 0 0 0 0 0 0 0 0.25 0"/>
      <feBlend mode="normal" in2="BackgroundImageFix" result="effect1_dropShadow_41_20"/>
      <feBlend mode="normal" in="SourceGraphic" in2="effect1_dropShadow_41_20" result="shape"/>
    </filter>
  </defs>
</svg>
