<?xml version="1.0" encoding="UTF-8"?>
<svg width="700pt" height="700pt" version="1.1" viewBox="0 0 700 700" xmlns="http://www.w3.org/2000/svg" xmlns:xlink="http://www.w3.org/1999/xlink">
 <g>
  <path d="m521.69 117.54c-18.461 2.4609-32.617 13.539-43.691 27.078-9.2305-14.152-22.77-25.848-39.383-30.152-25.848-6.7695-49.23 14.77-55.383 38.152-13.539 52.309 34.461 115.08 79.383 138.46 4.3086 4.9219 11.078 8 17.23 3.0781 38.77-27.691 102.15-85.539 91.691-139.69-3.6914-24.004-24.617-40.004-49.848-36.926zm15.387 75.691c-16 30.152-41.848 51.078-67.078 73.23-19.078-20.922-41.23-38.152-52.309-65.848-6.1523-14.77-12.922-40 1.2305-52.309 17.848-16 37.539 14.152 42.461 28.922 3.6914 11.691 19.691 14.152 27.078 3.6914 8.6172-13.539 18.461-30.77 35.691-33.848 30.156-6.1484 20.926 32.008 12.926 46.16z"/>
  <path d="m209.08 291.08c4.3086 4.9219 11.078 8 17.23 3.0781 38.77-27.691 102.15-85.539 91.691-139.69-4.9219-24.617-25.848-40.617-51.078-37.539-18.461 2.4609-32.617 13.539-43.691 27.078-9.2305-14.152-22.77-25.848-39.383-30.152-25.848-6.7695-49.23 14.77-55.383 38.152-12.312 52.918 35.688 116.3 80.613 139.07zm-43.695-142.77c17.848-16 37.539 14.152 42.461 28.922 3.6914 11.691 19.691 14.152 27.078 3.6914 8.6172-13.539 18.461-30.77 35.691-33.848 30.152-5.5391 20.922 32.617 13.539 46.77-16 30.152-41.848 51.078-67.078 73.23-19.078-20.922-41.23-38.152-52.309-65.848-6.7656-15.379-13.535-39.996 0.61719-52.918z"/>
  <path d="m244.77 347.69c-20.922-19.691-54.77 14.77-33.848 39.383 28.309 32.617 59.691 62.152 92.922 89.23 14.152 11.691 30.152 27.078 50.461 24 14.77-2.4609 24.617-14.152 34.461-24 32-33.23 63.383-65.848 96.617-97.848 12.309-12.309 2.4609-30.77-13.539-32-43.691-3.0781-87.383-3.0781-130.46-2.4609-22.77 0-45.539 0.61719-68.309 2.4609-9.2266 0.003907-19.074 0.003907-28.305 1.2344zm99.078 33.23c28.309 0 56 0.61719 83.691 1.2305-17.23 17.23-35.078 34.461-52.309 51.691-6.7695 6.7695-12.922 14.152-19.691 19.691-6.1523 4.9219-7.3828 5.5391-14.152 0.61719s-12.922-12.309-18.461-18.461c-17.23-17.23-33.848-35.691-49.848-54.152h4.9219c22.152 0 44.309-0.61719 65.848-0.61719z"/>


























 </g>
</svg>
