<svg width="173" height="158" viewBox="0 0 173 158" fill="none" xmlns="http://www.w3.org/2000/svg">
<g filter="url(#filter0_d_9_2713)">
<path d="M150.141 1.82997C143.314 2.74003 138.079 6.83679 133.984 11.8436C130.571 6.6101 125.564 2.28483 119.42 0.693182C109.861 -1.81023 101.214 6.15523 98.9389 14.8021C93.9321 34.1463 111.683 57.3595 128.295 66.0056C129.889 67.8257 132.392 68.964 134.667 67.1439C149.005 56.9036 172.443 35.5109 168.575 15.4855C167.21 6.60865 159.472 0.691739 150.141 1.83001L150.141 1.82997ZM155.832 29.8211C149.915 40.9715 140.356 48.7101 131.026 56.902C123.97 49.1649 115.778 42.7932 111.681 32.551C109.406 27.0889 106.903 17.7587 112.136 13.2067C118.737 7.2898 126.019 18.4402 127.839 23.9023C129.204 28.2257 135.121 29.1358 137.852 25.2674C141.039 20.2606 144.679 13.8884 151.051 12.7502C162.203 10.4764 158.79 24.5869 155.831 29.8205L155.832 29.8211Z" fill="white"/>
<path d="M34.5359 66.0064C36.1293 67.8265 38.6326 68.9648 40.9077 67.1447C55.2451 56.9043 78.6835 35.5117 74.8157 15.4863C72.9955 6.38273 65.2569 0.465811 55.9267 1.60408C49.0997 2.51414 43.8647 6.6109 39.7694 11.6177C36.3559 6.38421 31.3489 2.05894 25.2053 0.467291C15.6465 -2.03612 6.99969 5.92934 4.72427 14.5762C0.171203 34.1456 17.922 57.5848 34.5355 66.0053L34.5359 66.0064ZM18.3772 13.209C24.9775 7.29205 32.2594 18.4425 34.0796 23.9045C35.4447 28.2279 41.3614 29.138 44.0932 25.2696C47.2799 20.2628 50.9202 13.8907 57.292 12.7524C68.4424 10.704 65.0291 24.8144 62.2988 30.0483C56.3819 41.1987 46.8231 48.9373 37.4929 57.1293C30.4377 49.3922 22.2457 43.0204 18.1486 32.7782C15.6467 27.0909 13.1433 17.9874 18.3769 13.2087L18.3772 13.209Z" fill="white"/>
<path d="M47.7344 86.9412C39.9973 79.6593 27.48 92.4032 35.2171 101.505C45.686 113.567 57.2913 124.49 69.5804 134.503C74.8139 138.827 80.7308 144.517 88.2412 143.379C93.7033 142.469 97.3448 138.145 100.985 134.503C112.819 122.214 124.425 110.152 136.715 98.3183C141.267 93.7663 137.625 86.9393 131.708 86.4844C115.551 85.3461 99.3931 85.3461 83.4629 85.5744C75.0424 85.5744 66.6223 85.8026 58.2018 86.4844C54.7897 86.4859 51.1481 86.4859 47.7344 86.9409V86.9412ZM84.3741 99.2299C94.843 99.2299 105.083 99.4581 115.324 99.6849C108.952 106.057 102.352 112.429 95.9794 118.801C93.476 121.304 91.2008 124.034 88.6976 126.082C86.4224 127.903 85.9674 128.131 83.4641 126.311C80.9608 124.491 78.6854 121.759 76.637 119.484C70.2653 113.112 64.1198 106.285 58.2029 99.4579H60.023C68.215 99.4579 76.4088 99.2297 84.3741 99.2297L84.3741 99.2299Z" fill="white"/>
</g>
<defs>
<filter id="filter0_d_9_2713" x="0" y="0" width="173" height="157.526" filterUnits="userSpaceOnUse" color-interpolation-filters="sRGB">
<feFlood flood-opacity="0" result="BackgroundImageFix"/>
<feColorMatrix in="SourceAlpha" type="matrix" values="0 0 0 0 0 0 0 0 0 0 0 0 0 0 0 0 0 0 127 0" result="hardAlpha"/>
<feOffset dy="10"/>
<feGaussianBlur stdDeviation="2"/>
<feComposite in2="hardAlpha" operator="out"/>
<feColorMatrix type="matrix" values="0 0 0 0 0 0 0 0 0 0 0 0 0 0 0 0 0 0 0.25 0"/>
<feBlend mode="normal" in2="BackgroundImageFix" result="effect1_dropShadow_9_2713"/>
<feBlend mode="normal" in="SourceGraphic" in2="effect1_dropShadow_9_2713" result="shape"/>
</filter>
</defs>
</svg>
