<svg width="173" height="159" viewBox="0 0 173 159" fill="none" xmlns="http://www.w3.org/2000/svg">
  <g filter="url(#filter0_d_41_32)">
    <path d="M8.5283 39.0706C18.7974 35.6364 27.7494 26.3903 35.1218 17.409C39.0713 25.0707 44.3378 32.2022 50.1309 38.5421C58.2939 47.7883 72.2483 33.7867 63.559 25.0703C56.1866 17.6739 46.7079 12.6548 41.7038 2.88073C39.5978 -1.34662 33.8048 -0.55345 31.4347 2.88073C27.2228 9.21937 22.7467 14.7664 17.4804 20.3131C13.0043 24.8037 8.00201 28.7659 4.57899 33.7849C2.73544 36.4276 5.63196 40.1266 8.52852 39.0701L8.5283 39.0706Z" />
    <path d="M111.219 39.0706C121.488 35.6364 130.44 26.3903 137.813 17.409C141.762 25.0707 147.029 32.2022 152.822 38.5421C160.985 47.7883 174.939 33.7867 166.25 25.0703C158.877 17.6739 149.399 12.6548 144.395 2.88073C142.289 -1.34662 136.496 -0.55345 134.126 2.88073C129.914 9.21937 125.437 14.7664 120.171 20.3131C115.695 24.8037 110.693 28.7659 107.27 33.7849C105.426 36.4276 108.323 40.1266 111.219 39.0701L111.219 39.0706Z" />
    <path d="M16.1658 82.9207C12.7428 83.9771 12.4787 89.2611 16.1658 90.0539C16.9564 90.3189 17.7453 90.3189 18.5359 90.5822C17.4829 91.6385 16.9564 93.2232 16.9564 95.3376C16.6923 106.961 15.3769 118.32 13.0069 129.679C12.2163 133.379 14.0599 138.661 18.5359 139.189C63.8268 146.322 109.64 145.264 155.192 139.717C158.615 139.189 162.302 136.811 162.038 132.849C160.985 116.999 159.405 99.828 160.985 83.9759C161.249 80.8066 158.088 77.9008 154.929 77.9008C131.494 78.1657 108.06 77.9008 84.6247 78.429C73.0386 78.694 61.1898 78.9572 49.3415 79.4854C38.5444 80.2786 26.6956 79.7504 16.1642 82.9196L16.1658 82.9207ZM84.361 92.1668C105.69 91.9019 127.017 90.8455 148.081 90.3172C147.29 102.47 147.29 114.621 147.816 126.772C108.584 129.941 68.5607 130.999 29.5896 125.451C31.169 115.413 32.222 105.639 32.222 95.3363C32.222 94.2799 31.9579 93.2234 31.6955 92.167C37.4885 92.432 43.5438 92.167 49.3369 92.167C60.9247 92.6952 72.773 92.4303 84.3596 92.167L84.361 92.1668Z" />
  </g>
  <defs>
    <filter id="filter0_d_41_32" x="0" y="0" width="173" height="158.21" filterUnits="userSpaceOnUse" color-interpolation-filters="sRGB">
      <feFlood flood-opacity="0" result="BackgroundImageFix"/>
      <feColorMatrix in="SourceAlpha" type="matrix" values="0 0 0 0 0 0 0 0 0 0 0 0 0 0 0 0 0 0 127 0" result="hardAlpha"/>
      <feOffset dy="10"/>
      <feGaussianBlur stdDeviation="2"/>
      <feComposite in2="hardAlpha" operator="out"/>
      <feColorMatrix type="matrix" values="0 0 0 0 0 0 0 0 0 0 0 0 0 0 0 0 0 0 0.25 0"/>
      <feBlend mode="normal" in2="BackgroundImageFix" result="effect1_dropShadow_41_32"/>
      <feBlend mode="normal" in="SourceGraphic" in2="effect1_dropShadow_41_32" result="shape"/>
    </filter>
  </defs>
</svg>
