<svg width="175" height="158" viewBox="0 0 175 158" fill="none" xmlns="http://www.w3.org/2000/svg">
<g filter="url(#filter0_d_9_2727)">
<path d="M154.436 11.8561C158.727 3.95121 149.016 -2.82403 142.466 2.5966C137.948 6.43581 134.336 12.0829 130.722 17.0503C126.882 22.0191 123.268 26.9879 119.656 32.1818C115.365 38.5052 125.076 45.7322 130.27 40.3116C134.561 35.7942 138.627 31.0521 142.692 26.5347C146.757 21.7923 151.501 17.0499 154.437 11.8561H154.436Z" fill="white"/>
<path d="M41.2856 17.0491C37.6715 12.3067 34.0589 6.65967 29.5415 2.59548C23.2181 -2.82515 13.28 3.95023 17.571 11.855C20.507 17.2756 25.2494 21.7926 29.3151 26.3086C33.3807 31.051 37.4449 35.7949 41.7374 40.0855C46.9312 45.5061 56.8689 38.2792 52.3518 31.9557C48.7391 26.9868 44.8998 22.018 41.286 17.0491H41.2856Z" fill="white"/>
<path d="M83.7441 63.5741C72.4514 63.8006 50.9965 73.0604 54.3839 87.5137C54.8355 89.7716 57.5465 90.4497 59.5777 89.5465C62.9654 87.7402 65.2233 84.3527 68.1594 81.8681C71.9986 78.7056 76.516 76.8993 81.4848 76.4475C90.7443 75.5443 100.907 78.9319 104.07 88.1916C106.103 94.2901 116.492 93.8372 116.04 86.6103C114.459 71.4788 97.7475 63.5736 83.7441 63.5736V63.5741Z" fill="white"/>
<path d="M9.89216 49.1178C5.60153 48.2146 2.43871 54.3116 6.72962 56.5712C18.7001 62.6697 27.5082 75.317 27.96 88.8674C28.4116 103.096 20.0551 118.228 8.08607 125.905C-1.40021 132.004 9.21573 145.779 17.5723 138.101C31.801 124.55 43.3183 107.611 41.2869 87.0581C39.4792 69.217 27.9603 52.5056 9.89245 49.1174L9.89216 49.1178Z" fill="white"/>
<path d="M166.18 129.069C154.21 121.391 145.854 106.259 146.306 92.0315C146.758 78.481 155.566 65.8337 167.537 59.7352C171.827 57.4773 168.666 51.6054 164.374 52.2818C146.307 55.6694 134.787 72.3825 133.207 90.2225C131.175 110.775 142.694 127.939 156.922 141.265C165.05 148.944 175.892 135.168 166.18 129.07L166.18 129.069Z" fill="white"/>
</g>
<defs>
<filter id="filter0_d_9_2727" x="0.354736" y="0.643829" width="173.66" height="156.89" filterUnits="userSpaceOnUse" color-interpolation-filters="sRGB">
<feFlood flood-opacity="0" result="BackgroundImageFix"/>
<feColorMatrix in="SourceAlpha" type="matrix" values="0 0 0 0 0 0 0 0 0 0 0 0 0 0 0 0 0 0 127 0" result="hardAlpha"/>
<feOffset dy="10"/>
<feGaussianBlur stdDeviation="2"/>
<feComposite in2="hardAlpha" operator="out"/>
<feColorMatrix type="matrix" values="0 0 0 0 0 0 0 0 0 0 0 0 0 0 0 0 0 0 0.25 0"/>
<feBlend mode="normal" in2="BackgroundImageFix" result="effect1_dropShadow_9_2727"/>
<feBlend mode="normal" in="SourceGraphic" in2="effect1_dropShadow_9_2727" result="shape"/>
</filter>
</defs>
</svg>
