<?xml version="1.0" encoding="UTF-8"?>
<svg width="700pt" height="700pt" version="1.1" viewBox="0 0 700 700" xmlns="http://www.w3.org/2000/svg" xmlns:xlink="http://www.w3.org/1999/xlink">
 <g>
  <path d="m538.31 121.85c11.691-21.539-14.77-40-32.617-25.23-12.309 10.461-22.152 25.848-32 39.383-10.461 13.539-20.309 27.078-30.152 41.23-11.691 17.23 14.77 36.922 28.922 22.152 11.691-12.309 22.77-25.23 33.848-37.539 11.074-12.922 24-25.844 32-39.996z"/>
  <path d="m230 136c-9.8477-12.922-19.691-28.309-32-39.383-17.23-14.77-44.309 3.6914-32.617 25.23 8 14.77 20.922 27.078 32 39.383 11.078 12.922 22.152 25.848 33.848 37.539 14.152 14.77 41.23-4.9219 28.922-22.152-9.8438-13.539-20.305-27.078-30.152-40.617z"/>
  <path d="m345.69 262.77c-30.77 0.61719-89.23 25.848-80 65.23 1.2305 6.1523 8.6172 8 14.152 5.5391 9.2305-4.9219 15.383-14.152 23.383-20.922 10.461-8.6172 22.77-13.539 36.309-14.77 25.23-2.4609 52.922 6.7695 61.539 32 5.5391 16.617 33.848 15.383 32.617-4.3086-4.3086-41.23-49.844-62.77-88-62.77z"/>
  <path d="m144.46 223.38c-11.691-2.4609-20.309 14.152-8.6172 20.309 32.617 16.617 56.617 51.078 57.848 88 1.2305 38.77-21.539 80-54.152 100.92-25.848 16.617 3.0781 54.152 25.848 33.23 38.77-36.922 70.152-83.078 64.617-139.08-4.9258-48.613-36.312-94.148-85.543-103.38z"/>
  <path d="m570.31 441.23c-32.617-20.922-55.383-62.152-54.152-100.92 1.2305-36.922 25.23-71.383 57.848-88 11.691-6.1523 3.0781-22.152-8.6172-20.309-49.23 9.2305-80.617 54.77-84.922 103.38-5.5391 56 25.848 102.77 64.617 139.08 22.148 20.922 51.688-16.613 25.227-33.23z"/>
  <use x="70" y="652.308594" xlink:href="#v"/>
  <use x="92.582031" y="652.308594" xlink:href="#d"/>
  <use x="107.753906" y="652.308594" xlink:href="#b"/>
  <use x="128.625" y="652.308594" xlink:href="#j"/>
  <use x="149.386719" y="652.308594" xlink:href="#c"/>
  <use x="164.09375" y="652.308594" xlink:href="#b"/>
  <use x="184.964844" y="652.308594" xlink:href="#i"/>
  <use x="217.703125" y="652.308594" xlink:href="#g"/>
  <use x="239.726562" y="652.308594" xlink:href="#f"/>
  <use x="270.496094" y="652.308594" xlink:href="#h"/>
  <use x="293.949219" y="652.308594" xlink:href="#a"/>
  <use x="315.085938" y="652.308594" xlink:href="#e"/>
  <use x="347.148438" y="652.308594" xlink:href="#u"/>
  <use x="369.308594" y="652.308594" xlink:href="#f"/>
  <use x="389.367187" y="652.308594" xlink:href="#e"/>
  <use x="421.425781" y="652.308594" xlink:href="#g"/>
  <use x="443.453125" y="652.308594" xlink:href="#a"/>
  <use x="464.589844" y="652.308594" xlink:href="#t"/>
  <use x="475.136719" y="652.308594" xlink:href="#s"/>
  <use x="70" y="683.078125" xlink:href="#r"/>
  <use x="83.386719" y="683.078125" xlink:href="#d"/>
  <use x="98.5625" y="683.078125" xlink:href="#a"/>
  <use x="119.699219" y="683.078125" xlink:href="#e"/>
  <use x="162.472656" y="683.078125" xlink:href="#c"/>
  <use x="177.179688" y="683.078125" xlink:href="#q"/>
  <use x="199.085937" y="683.078125" xlink:href="#b"/>
  <use x="230.667969" y="683.078125" xlink:href="#p"/>
  <use x="256.417969" y="683.078125" xlink:href="#a"/>
  <use x="277.558594" y="683.078125" xlink:href="#o"/>
  <use x="299.460938" y="683.078125" xlink:href="#n"/>
  <use x="332.078125" y="683.078125" xlink:href="#m"/>
  <use x="354.628906" y="683.078125" xlink:href="#d"/>
  <use x="369.804688" y="683.078125" xlink:href="#a"/>
  <use x="390.945312" y="683.078125" xlink:href="#l"/>
  <use x="401.492187" y="683.078125" xlink:href="#b"/>
  <use x="422.359375" y="683.078125" xlink:href="#k"/>
  <use x="440.597656" y="683.078125" xlink:href="#c"/>
 </g>
</svg>
