<svg width="184" height="158" viewBox="0 0 184 158" fill="none" xmlns="http://www.w3.org/2000/svg">
<g filter="url(#filter0_d_9_2628)">
<path d="M8.16207 22.8775C16.6108 28.7913 23.3699 35.8333 30.6924 43.1557C34.0712 46.5345 40.8304 47.0994 43.9287 43.1557C51.5335 34.4246 60.5457 26.8216 69.5573 19.7796C80.5411 10.768 63.9241 -6.69475 53.7861 4.00841C47.8723 9.92223 42.52 16.4008 37.1691 22.8775C31.2553 16.9637 24.7768 11.6114 17.4543 7.10628C7.31815 0.627718 -1.41344 16.4008 8.16161 22.8775H8.16207Z" />
<path d="M114.905 22.8775C123.354 28.7913 130.113 35.8332 137.436 43.1557C140.815 46.5345 147.574 47.0994 150.672 43.1557C158.277 34.4246 167.289 26.8215 176.301 19.7796C187.284 10.7679 170.667 -6.69478 160.529 4.00838C154.616 9.9222 149.263 16.4008 143.912 22.8775C137.999 16.9637 131.52 11.6114 124.198 7.10625C114.06 0.627688 105.329 16.4008 114.905 22.8775H114.905Z" />
<path d="M31.8229 71.8831C28.1616 71.32 25.3462 75.2619 28.1616 78.3599C37.7367 88.4978 46.7502 98.9186 55.199 110.465C59.4233 116.379 63.9301 122.012 68.4352 127.645C72.3789 132.715 77.1664 139.475 83.3626 142.29C89.8393 145.388 95.4726 142.29 99.9796 137.503C105.049 131.589 110.118 125.673 116.033 120.323C121.947 114.972 127.863 109.902 134.339 105.395C141.379 100.608 148.702 97.2271 155.744 93.003C167.29 85.9629 157.153 69.9093 145.323 75.2597C132.65 80.893 120.257 91.031 109.556 99.7621C103.643 104.832 98.0098 110.183 92.6589 115.816C91.5327 116.942 90.4064 118.068 88.9977 119.194C74.6314 100.89 56.0429 75.8244 31.8229 71.8821V71.8831Z" />
</g>
<defs>
<filter id="filter0_d_9_2628" x="0.0297852" y="0.643829" width="183.884" height="156.89" filterUnits="userSpaceOnUse" color-interpolation-filters="sRGB">
<feFlood flood-opacity="0" result="BackgroundImageFix"/>
<feColorMatrix in="SourceAlpha" type="matrix" values="0 0 0 0 0 0 0 0 0 0 0 0 0 0 0 0 0 0 127 0" result="hardAlpha"/>
<feOffset dy="10"/>
<feGaussianBlur stdDeviation="2"/>
<feComposite in2="hardAlpha" operator="out"/>
<feColorMatrix type="matrix" values="0 0 0 0 0 0 0 0 0 0 0 0 0 0 0 0 0 0 0.25 0"/>
<feBlend mode="normal" in2="BackgroundImageFix" result="effect1_dropShadow_9_2628"/>
<feBlend mode="normal" in="SourceGraphic" in2="effect1_dropShadow_9_2628" result="shape"/>
</filter>
</defs>
</svg>
