<?xml version="1.0" encoding="UTF-8"?>
<svg width="700pt" height="700pt" version="1.1" viewBox="0 0 700 700" xmlns="http://www.w3.org/2000/svg" xmlns:xlink="http://www.w3.org/1999/xlink">
 <g>
  <path d="m165.38 184c18.461 12.922 33.23 28.309 49.23 44.309 7.3828 7.3828 22.152 8.6172 28.922 0 16.617-19.078 36.309-35.691 56-51.078 24-19.691-12.309-57.848-34.461-34.461-12.922 12.922-24.617 27.078-36.309 41.23-12.922-12.922-27.078-24.617-43.078-34.461-22.148-14.156-41.227 20.309-20.305 34.461z"/>
  <path d="m398.62 184c18.461 12.922 33.23 28.309 49.23 44.309 7.3828 7.3828 22.152 8.6172 28.922 0 16.617-19.078 36.309-35.691 56-51.078 24-19.691-12.309-57.848-34.461-34.461-12.922 12.922-24.617 27.078-36.309 41.23-12.922-12.922-27.078-24.617-43.078-34.461-22.152-14.156-41.23 20.309-20.305 34.461z"/>
  <path d="m217.08 291.08c-8-1.2305-14.152 7.3828-8 14.152 20.922 22.152 40.617 44.922 59.078 70.152 9.2305 12.922 19.078 25.23 28.922 37.539 8.6172 11.078 19.078 25.848 32.617 32 14.152 6.7695 26.461 0 36.309-10.461 11.078-12.922 22.152-25.848 35.078-37.539 12.922-11.691 25.848-22.77 40-32.617 15.383-10.461 31.383-17.848 46.77-27.078 25.23-15.383 3.0781-50.461-22.77-38.77-27.691 12.309-54.77 34.461-78.152 53.539-12.922 11.078-25.23 22.77-36.922 35.078-2.4609 2.4609-4.9219 4.9219-8 7.3828-31.391-39.996-72.008-94.766-124.93-103.38z"/>
</g>
</svg>
