<svg width="192" height="158" viewBox="0 0 192 158" fill="none" xmlns="http://www.w3.org/2000/svg">
<g filter="url(#filter0_d_9_2630)">
<path d="M75.0551 16.4892C84.442 8.86185 70.6548 -5.21975 61.8545 3.28861C53.933 10.6219 46.0133 19.7166 37.2128 26.4649C29.2912 19.1317 10.5169 -6.97739 5.23586 2.99639C2.59531 8.2774 8.16874 14.1433 11.1037 17.957C15.7982 24.1171 20.7853 30.2791 25.4775 36.1446C30.1721 41.7178 35.7454 46.9993 43.0787 42.3046C54.5198 35.2636 64.4955 24.9976 75.0556 16.4897L75.0551 16.4892Z" fill="white"/>
<path d="M171.28 3.28905C163.358 10.6223 155.438 19.717 146.638 26.4654C138.716 19.1321 119.942 -6.97695 114.661 2.99682C112.02 8.27784 117.594 14.1438 120.529 17.9575C125.223 24.1176 130.21 30.2795 134.903 36.145C139.597 41.7182 145.17 46.9997 152.504 42.3051C163.945 35.264 173.919 24.9961 184.481 16.4902C193.868 9.15499 180.373 -4.9247 171.28 3.28952L171.28 3.28905Z" fill="white"/>
<path d="M51.8823 142.046C59.5097 136.178 65.6698 128.845 71.8317 121.51C76.5263 115.937 82.0996 105.961 89.4329 103.909C96.7662 101.855 103.22 110.363 107.62 115.056C114.661 122.683 121.702 130.31 127.862 138.819C135.195 148.793 151.917 139.113 144.584 129.137C136.957 118.577 128.156 108.601 119.356 99.2141C112.022 91.2925 102.928 83.6651 91.7788 83.6651C80.9241 83.6651 72.124 90.1193 65.0829 98.039C56.2823 107.721 46.6008 119.162 40.7334 130.895C37.8006 137.353 44.8414 147.327 51.8823 142.046Z" fill="white"/>
</g>
<defs>
<filter id="filter0_d_9_2630" x="0.544922" y="0.64386" width="191.118" height="156.89" filterUnits="userSpaceOnUse" color-interpolation-filters="sRGB">
<feFlood flood-opacity="0" result="BackgroundImageFix"/>
<feColorMatrix in="SourceAlpha" type="matrix" values="0 0 0 0 0 0 0 0 0 0 0 0 0 0 0 0 0 0 127 0" result="hardAlpha"/>
<feOffset dy="10"/>
<feGaussianBlur stdDeviation="2"/>
<feComposite in2="hardAlpha" operator="out"/>
<feColorMatrix type="matrix" values="0 0 0 0 0 0 0 0 0 0 0 0 0 0 0 0 0 0 0.25 0"/>
<feBlend mode="normal" in2="BackgroundImageFix" result="effect1_dropShadow_9_2630"/>
<feBlend mode="normal" in="SourceGraphic" in2="effect1_dropShadow_9_2630" result="shape"/>
</filter>
</defs>
</svg>
