<?xml version="1.0" encoding="UTF-8"?>
<svg width="700pt" height="700pt" version="1.1" viewBox="0 0 700 700" xmlns="http://www.w3.org/2000/svg" xmlns:xlink="http://www.w3.org/1999/xlink">
 <g>
  <path d="m312.46 182.77c19.691-16-9.2305-45.539-27.691-27.691-16.617 15.383-33.23 34.461-51.691 48.617-16.617-15.383-56-70.152-67.078-49.23-5.5391 11.078 6.1523 23.383 12.309 31.383 9.8477 12.922 20.309 25.848 30.152 38.152 9.8477 11.691 21.539 22.77 36.922 12.922 24-14.77 44.926-36.305 67.078-54.152z"/>
  <path d="m514.31 155.08c-16.617 15.383-33.23 34.461-51.691 48.617-16.617-15.383-56-70.152-67.078-49.23-5.5391 11.078 6.1523 23.383 12.309 31.383 9.8477 12.922 20.309 25.848 30.152 38.152 9.8477 11.691 21.539 22.77 36.922 12.922 24-14.77 44.922-36.309 67.078-54.152 19.691-15.387-8.6172-44.922-27.691-27.691z"/>
  <path d="m263.85 446.15c16-12.309 28.922-27.691 41.848-43.078 9.8477-11.691 21.539-32.617 36.922-36.922 15.383-4.3086 28.922 13.539 38.152 23.383 14.77 16 29.539 32 42.461 49.848 15.383 20.922 50.461 0.61719 35.078-20.309-16-22.152-34.461-43.078-52.922-62.77-15.383-16.617-34.461-32.617-57.848-32.617-22.77 0-41.23 13.539-56 30.152-18.461 20.309-38.77 44.309-51.078 68.922-6.1523 13.547 8.6172 34.469 23.387 23.391z"/>
  <use x="70" y="652.308594" xlink:href="#v"/>
  <use x="92.582031" y="652.308594" xlink:href="#d"/>
  <use x="107.753906" y="652.308594" xlink:href="#b"/>
  <use x="128.625" y="652.308594" xlink:href="#j"/>
  <use x="149.386719" y="652.308594" xlink:href="#c"/>
  <use x="164.09375" y="652.308594" xlink:href="#b"/>
  <use x="184.964844" y="652.308594" xlink:href="#i"/>
  <use x="217.703125" y="652.308594" xlink:href="#g"/>
  <use x="239.726562" y="652.308594" xlink:href="#f"/>
  <use x="270.496094" y="652.308594" xlink:href="#h"/>
  <use x="293.949219" y="652.308594" xlink:href="#a"/>
  <use x="315.085938" y="652.308594" xlink:href="#e"/>
  <use x="347.148438" y="652.308594" xlink:href="#u"/>
  <use x="369.308594" y="652.308594" xlink:href="#f"/>
  <use x="389.367187" y="652.308594" xlink:href="#e"/>
  <use x="421.425781" y="652.308594" xlink:href="#g"/>
  <use x="443.453125" y="652.308594" xlink:href="#a"/>
  <use x="464.589844" y="652.308594" xlink:href="#t"/>
  <use x="475.136719" y="652.308594" xlink:href="#s"/>
  <use x="70" y="683.078125" xlink:href="#r"/>
  <use x="83.386719" y="683.078125" xlink:href="#d"/>
  <use x="98.5625" y="683.078125" xlink:href="#a"/>
  <use x="119.699219" y="683.078125" xlink:href="#e"/>
  <use x="162.472656" y="683.078125" xlink:href="#c"/>
  <use x="177.179688" y="683.078125" xlink:href="#q"/>
  <use x="199.085937" y="683.078125" xlink:href="#b"/>
  <use x="230.667969" y="683.078125" xlink:href="#p"/>
  <use x="256.417969" y="683.078125" xlink:href="#a"/>
  <use x="277.558594" y="683.078125" xlink:href="#o"/>
  <use x="299.460938" y="683.078125" xlink:href="#n"/>
  <use x="332.078125" y="683.078125" xlink:href="#m"/>
  <use x="354.628906" y="683.078125" xlink:href="#d"/>
  <use x="369.804688" y="683.078125" xlink:href="#a"/>
  <use x="390.945312" y="683.078125" xlink:href="#l"/>
  <use x="401.492187" y="683.078125" xlink:href="#b"/>
  <use x="422.359375" y="683.078125" xlink:href="#k"/>
  <use x="440.597656" y="683.078125" xlink:href="#c"/>
 </g>
</svg>
