<?xml version="1.0" encoding="UTF-8"?>
<svg width="700pt" height="700pt" version="1.1" viewBox="0 0 700 700" xmlns="http://www.w3.org/2000/svg" xmlns:xlink="http://www.w3.org/1999/xlink">
 <g>
  <path d="m312.46 182.77c19.691-16-9.2305-45.539-27.691-27.691-16.617 15.383-33.23 34.461-51.691 48.617-16.617-15.383-56-70.152-67.078-49.23-5.5391 11.078 6.1523 23.383 12.309 31.383 9.8477 12.922 20.309 25.848 30.152 38.152 9.8477 11.691 21.539 22.77 36.922 12.922 24-14.77 44.926-36.305 67.078-54.152z"/>
  <path d="m514.31 155.08c-16.617 15.383-33.23 34.461-51.691 48.617-16.617-15.383-56-70.152-67.078-49.23-5.5391 11.078 6.1523 23.383 12.309 31.383 9.8477 12.922 20.309 25.848 30.152 38.152 9.8477 11.691 21.539 22.77 36.922 12.922 24-14.77 44.922-36.309 67.078-54.152 19.691-15.387-8.6172-44.922-27.691-27.691z"/>
  <path d="m263.85 446.15c16-12.309 28.922-27.691 41.848-43.078 9.8477-11.691 21.539-32.617 36.922-36.922 15.383-4.3086 28.922 13.539 38.152 23.383 14.77 16 29.539 32 42.461 49.848 15.383 20.922 50.461 0.61719 35.078-20.309-16-22.152-34.461-43.078-52.922-62.77-15.383-16.617-34.461-32.617-57.848-32.617-22.77 0-41.23 13.539-56 30.152-18.461 20.309-38.77 44.309-51.078 68.922-6.1523 13.547 8.6172 34.469 23.387 23.391z"/>
 </g>
</svg>
