<?xml version="1.0" encoding="UTF-8"?>
<svg width="700pt" height="700pt" version="1.1" viewBox="0 0 700 700" xmlns="http://www.w3.org/2000/svg" xmlns:xlink="http://www.w3.org/1999/xlink">
 <g>
  <path d="m246 170.46c16.617-2.4609 16.617-31.383 0-33.848-17.23-2.4609-35.078-1.2305-52.309-0.61719-17.23 0.61719-34.461 0.61719-51.078 4.9219-12.922 3.0781-12.922 22.77 0 26.461 16.617 4.3086 33.848 4.3086 51.078 4.9219 17.23 0.007813 34.461 1.2383 52.309-1.8398z"/>
  <path d="m430 136c-17.23 0.61719-34.461 0.61719-51.078 4.9219-12.922 3.0781-12.922 22.77 0 26.461 16.617 4.3086 33.848 4.3086 51.078 4.9219 17.23 0.61719 35.078 1.8477 52.309-0.61719 16.617-2.4609 16.617-31.383 0-33.848-17.23-4.3008-35.078-3.0703-52.309-1.8398z"/>
  <path d="m532.15 205.54c-32.617-3.6914-66.461 6.1523-97.848 14.77-19.691 5.5391-37.539 12.309-56 13.539-14.77-12.922-44.309-0.61719-35.691 20.922 19.691 50.461 70.152 80 120 94.77 49.848 14.77 115.08 9.2305 137.23-45.539 19.695-48-19.691-92.922-67.691-98.461zm16 110.77c-22.152 12.922-49.848 8-72.617 0-30.77-10.461-55.383-28.922-75.691-52.922 12.922-1.8477 26.461-5.5391 36.922-7.3828 36.309-8 113.23-37.539 134.15 11.691 8.0039 18.457-6.7656 39.383-22.766 48.613z"/>
  <path d="m296.46 313.85c-35.078 4.3086-68.922 16.617-96 40.617-18.461 16.617-38.152 44.309-44.309 68.922-2.4609 11.078 9.8477 16.617 17.848 10.461 16.617-12.922 28.309-33.23 44.309-47.383 22.152-19.691 47.383-31.383 76.922-35.078 51.691-6.7695 92.309 15.383 125.54 49.23-42.461 0-86.152-0.61719-129.85-0.61719-25.848 0-25.848 40.617 0 40.617 57.848 0 115.69 0 173.54-0.61719 13.539 0 26.461-17.23 17.23-29.539-46.77-59.691-105.23-106.46-185.23-96.613z"/>
  <use x="70" y="652.308594" xlink:href="#v"/>
  <use x="92.582031" y="652.308594" xlink:href="#d"/>
  <use x="107.753906" y="652.308594" xlink:href="#b"/>
  <use x="128.625" y="652.308594" xlink:href="#j"/>
  <use x="149.386719" y="652.308594" xlink:href="#c"/>
  <use x="164.09375" y="652.308594" xlink:href="#b"/>
  <use x="184.964844" y="652.308594" xlink:href="#i"/>
  <use x="217.703125" y="652.308594" xlink:href="#g"/>
  <use x="239.726562" y="652.308594" xlink:href="#f"/>
  <use x="270.496094" y="652.308594" xlink:href="#h"/>
  <use x="293.949219" y="652.308594" xlink:href="#a"/>
  <use x="315.085938" y="652.308594" xlink:href="#e"/>
  <use x="347.148438" y="652.308594" xlink:href="#u"/>
  <use x="369.308594" y="652.308594" xlink:href="#f"/>
  <use x="389.367187" y="652.308594" xlink:href="#e"/>
  <use x="421.425781" y="652.308594" xlink:href="#g"/>
  <use x="443.453125" y="652.308594" xlink:href="#a"/>
  <use x="464.589844" y="652.308594" xlink:href="#t"/>
  <use x="475.136719" y="652.308594" xlink:href="#s"/>
  <use x="70" y="683.078125" xlink:href="#r"/>
  <use x="83.386719" y="683.078125" xlink:href="#d"/>
  <use x="98.5625" y="683.078125" xlink:href="#a"/>
  <use x="119.699219" y="683.078125" xlink:href="#e"/>
  <use x="162.472656" y="683.078125" xlink:href="#c"/>
  <use x="177.179688" y="683.078125" xlink:href="#q"/>
  <use x="199.085937" y="683.078125" xlink:href="#b"/>
  <use x="230.667969" y="683.078125" xlink:href="#p"/>
  <use x="256.417969" y="683.078125" xlink:href="#a"/>
  <use x="277.558594" y="683.078125" xlink:href="#o"/>
  <use x="299.460938" y="683.078125" xlink:href="#n"/>
  <use x="332.078125" y="683.078125" xlink:href="#m"/>
  <use x="354.628906" y="683.078125" xlink:href="#d"/>
  <use x="369.804688" y="683.078125" xlink:href="#a"/>
  <use x="390.945312" y="683.078125" xlink:href="#l"/>
  <use x="401.492187" y="683.078125" xlink:href="#b"/>
  <use x="422.359375" y="683.078125" xlink:href="#k"/>
  <use x="440.597656" y="683.078125" xlink:href="#c"/>
 </g>
</svg>
