<svg width="230" height="157" viewBox="0 0 230 157" fill="none" xmlns="http://www.w3.org/2000/svg">
<g filter="url(#filter0_d_9_2629)">
<path d="M57.5064 16.6456C65.2715 15.4957 65.2715 1.98041 57.5064 0.828525C49.4549 -0.32145 41.1145 0.253515 33.0625 0.540114C25.011 0.828526 16.959 0.828528 9.19386 2.84011C3.15543 4.2785 3.15543 13.4805 9.19386 15.2053C16.959 17.2187 25.011 17.2187 33.0625 17.5053C41.1141 17.5089 49.1661 18.0839 57.5064 16.6455V16.6456Z" fill="white"/>
<path d="M143.489 0.542503C135.438 0.830914 127.386 0.830917 119.621 2.8425C113.582 4.28089 113.582 13.4829 119.621 15.2077C127.386 17.2211 135.438 17.2211 143.489 17.5077C151.541 17.7961 159.881 18.3711 167.933 17.2193C175.698 16.0693 175.698 2.55404 167.933 1.40215C159.882 -0.607605 151.541 -0.0325935 143.489 0.542417V0.542503Z" fill="white"/>
<path d="M191.224 33.0385C175.982 31.3135 160.167 35.9134 145.5 39.9405C136.298 42.5289 127.958 45.6924 119.331 46.2672C112.429 40.2288 98.6255 45.9788 102.653 56.044C111.854 79.6244 135.435 93.4279 158.728 100.33C182.022 107.232 212.505 104.643 222.856 79.0496C232.059 56.6193 213.654 35.6273 191.224 33.0389V33.0385ZM198.701 84.8011C188.349 90.8395 175.407 88.5395 164.767 84.8011C150.388 79.9127 138.886 71.2859 129.397 60.0707C135.435 59.2073 141.762 57.4823 146.65 56.6208C163.617 52.8824 199.562 39.0789 209.338 62.0839C213.078 70.7089 206.177 80.4876 198.7 84.8007L198.701 84.8011Z" fill="white"/>
<path d="M81.0866 83.6515C64.6947 85.6649 48.8794 91.4166 36.2259 102.632C27.5991 110.397 18.3976 123.337 15.5204 134.839C14.3704 140.016 20.1222 142.604 23.8608 139.727C31.6259 133.689 37.0895 124.199 44.5663 117.585C54.9179 108.384 66.7083 102.92 80.5118 101.193C104.667 98.03 123.648 108.382 139.176 124.198C119.334 124.198 98.9177 123.91 78.4977 123.91C66.419 123.91 66.419 142.89 78.4977 142.89C105.53 142.89 132.559 142.89 159.593 142.602C165.919 142.602 171.958 134.55 167.644 128.798C145.789 100.905 118.47 79.0498 81.0866 83.6513V83.6515Z" fill="white"/>
</g>
<defs>
<filter id="filter0_d_9_2629" x="0.665039" y="0" width="228.615" height="156.89" filterUnits="userSpaceOnUse" color-interpolation-filters="sRGB">
<feFlood flood-opacity="0" result="BackgroundImageFix"/>
<feColorMatrix in="SourceAlpha" type="matrix" values="0 0 0 0 0 0 0 0 0 0 0 0 0 0 0 0 0 0 127 0" result="hardAlpha"/>
<feOffset dy="10"/>
<feGaussianBlur stdDeviation="2"/>
<feComposite in2="hardAlpha" operator="out"/>
<feColorMatrix type="matrix" values="0 0 0 0 0 0 0 0 0 0 0 0 0 0 0 0 0 0 0.25 0"/>
<feBlend mode="normal" in2="BackgroundImageFix" result="effect1_dropShadow_9_2629"/>
<feBlend mode="normal" in="SourceGraphic" in2="effect1_dropShadow_9_2629" result="shape"/>
</filter>
</defs>
</svg>
