<svg width="160" height="157" viewBox="0 0 160 157" fill="none" xmlns="http://www.w3.org/2000/svg">
<g filter="url(#filter0_d_9_2735)">
<path d="M42.5892 49.0144C48.9609 54.8761 59.1572 47.4854 54.8243 39.583C49.9819 30.9172 41.8255 23.7805 34.6871 17.1533C27.8044 10.7816 20.4134 3.89888 11.7475 0.329716C7.41454 -1.45491 3.08159 4.40863 5.62975 8.23182C10.7281 15.6245 18.1187 21.2307 23.9825 27.604C30.3558 34.4851 35.7081 42.6415 42.5892 49.0144Z" />
<path d="M148.625 1.85769C140.978 7.71945 134.095 14.0927 127.214 20.7199C122.626 25.0529 118.293 29.3858 113.96 33.7188C111.665 36.0131 107.588 38.8172 107.077 42.3847C106.058 48.2464 110.391 53.0909 116.508 51.816C120.078 51.0507 122.37 47.2275 124.92 44.6794C128.999 40.0908 133.076 35.248 137.155 30.6595C143.273 23.2669 149.39 16.1302 154.743 8.22975C157.037 4.40809 152.194 -0.945616 148.625 1.8581L148.625 1.85769Z" />
<path d="M102.491 97.6995C97.3927 92.8571 92.2947 87.2492 86.6885 82.6603C83.1193 79.8563 79.5518 78.5814 75.4728 80.366C71.1398 82.4046 68.3361 87.5027 65.2764 91.3261C61.4532 96.1685 57.3743 101.011 53.5508 105.855C45.6487 115.287 37.4923 124.718 28.5708 133.13C24.7476 136.699 29.5902 142.815 34.1787 140.266C44.3751 134.659 53.2949 127.521 61.4529 119.11C65.5319 115.031 69.0995 110.444 72.9226 106.111C74.7072 104.072 76.4918 102.032 78.021 99.9933C78.7863 99.2279 79.2959 98.4643 80.0596 97.699C82.3539 99.9933 84.3926 102.797 86.4313 104.836C90.2545 108.915 94.3334 112.992 98.4107 117.071C106.057 124.717 113.704 132.364 121.35 140.266C129.253 148.422 141.997 135.677 133.839 127.777C123.138 117.834 112.942 107.64 102.491 97.699L102.491 97.6995Z" />
</g>
<defs>
<filter id="filter0_d_9_2735" x="0.87085" y="0" width="158.466" height="156.89" filterUnits="userSpaceOnUse" color-interpolation-filters="sRGB">
<feFlood flood-opacity="0" result="BackgroundImageFix"/>
<feColorMatrix in="SourceAlpha" type="matrix" values="0 0 0 0 0 0 0 0 0 0 0 0 0 0 0 0 0 0 127 0" result="hardAlpha"/>
<feOffset dy="10"/>
<feGaussianBlur stdDeviation="2"/>
<feComposite in2="hardAlpha" operator="out"/>
<feColorMatrix type="matrix" values="0 0 0 0 0 0 0 0 0 0 0 0 0 0 0 0 0 0 0.25 0"/>
<feBlend mode="normal" in2="BackgroundImageFix" result="effect1_dropShadow_9_2735"/>
<feBlend mode="normal" in="SourceGraphic" in2="effect1_dropShadow_9_2735" result="shape"/>
</filter>
</defs>
</svg>
