<?xml version="1.0" encoding="UTF-8"?>
<svg width="700pt" height="700pt" version="1.1" viewBox="0 0 700 700" xmlns="http://www.w3.org/2000/svg" xmlns:xlink="http://www.w3.org/1999/xlink">
 <g>
  <path d="m253.38 237.54c15.383 14.152 40-3.6914 29.539-22.77-11.691-20.922-31.383-38.152-48.617-54.152-16.617-15.383-34.461-32-55.383-40.617-10.461-4.3086-20.922 9.8477-14.77 19.078 12.309 17.848 30.152 31.383 44.309 46.77 15.387 16.613 28.309 36.305 44.922 51.691z"/>
  <path d="m509.38 123.69c-18.461 14.152-35.078 29.539-51.691 45.539-11.078 10.461-21.539 20.922-32 31.383-5.5391 5.5391-15.383 12.309-16.617 20.922-2.4609 14.152 8 25.848 22.77 22.77 8.6172-1.8477 14.152-11.078 20.309-17.23 9.8477-11.078 19.691-22.77 29.539-33.848 14.77-17.848 29.539-35.078 42.461-54.152 5.5391-9.2266-6.1523-22.152-14.77-15.383z"/>
  <path d="m398 355.08c-12.309-11.691-24.617-25.23-38.152-36.309-8.6172-6.7695-17.23-9.8477-27.078-5.5391-10.461 4.9219-17.23 17.23-24.617 26.461-9.2305 11.691-19.078 23.383-28.309 35.078-19.078 22.77-38.77 45.539-60.309 65.848-9.2305 8.6172 2.4609 23.383 13.539 17.23 24.617-13.539 46.152-30.77 65.848-51.078 9.8477-9.8477 18.461-20.922 27.691-31.383 4.3086-4.9219 8.6172-9.8477 12.309-14.77 1.8477-1.8477 3.0781-3.6914 4.9219-5.5391 5.5391 5.5391 10.461 12.309 15.383 17.23 9.2305 9.8477 19.078 19.691 28.922 29.539 18.461 18.461 36.922 36.922 55.383 56 19.078 19.691 49.848-11.078 30.152-30.152-25.836-24.004-50.453-48.617-75.684-72.617z"/>
  <use x="70" y="652.308594" xlink:href="#v"/>
  <use x="92.582031" y="652.308594" xlink:href="#d"/>
  <use x="107.753906" y="652.308594" xlink:href="#b"/>
  <use x="128.625" y="652.308594" xlink:href="#j"/>
  <use x="149.386719" y="652.308594" xlink:href="#c"/>
  <use x="164.09375" y="652.308594" xlink:href="#b"/>
  <use x="184.964844" y="652.308594" xlink:href="#i"/>
  <use x="217.703125" y="652.308594" xlink:href="#g"/>
  <use x="239.726562" y="652.308594" xlink:href="#f"/>
  <use x="270.496094" y="652.308594" xlink:href="#h"/>
  <use x="293.949219" y="652.308594" xlink:href="#a"/>
  <use x="315.085938" y="652.308594" xlink:href="#e"/>
  <use x="347.148438" y="652.308594" xlink:href="#u"/>
  <use x="369.308594" y="652.308594" xlink:href="#f"/>
  <use x="389.367187" y="652.308594" xlink:href="#e"/>
  <use x="421.425781" y="652.308594" xlink:href="#g"/>
  <use x="443.453125" y="652.308594" xlink:href="#a"/>
  <use x="464.589844" y="652.308594" xlink:href="#t"/>
  <use x="475.136719" y="652.308594" xlink:href="#s"/>
  <use x="70" y="683.078125" xlink:href="#r"/>
  <use x="83.386719" y="683.078125" xlink:href="#d"/>
  <use x="98.5625" y="683.078125" xlink:href="#a"/>
  <use x="119.699219" y="683.078125" xlink:href="#e"/>
  <use x="162.472656" y="683.078125" xlink:href="#c"/>
  <use x="177.179688" y="683.078125" xlink:href="#q"/>
  <use x="199.085937" y="683.078125" xlink:href="#b"/>
  <use x="230.667969" y="683.078125" xlink:href="#p"/>
  <use x="256.417969" y="683.078125" xlink:href="#a"/>
  <use x="277.558594" y="683.078125" xlink:href="#o"/>
  <use x="299.460938" y="683.078125" xlink:href="#n"/>
  <use x="332.078125" y="683.078125" xlink:href="#m"/>
  <use x="354.628906" y="683.078125" xlink:href="#d"/>
  <use x="369.804688" y="683.078125" xlink:href="#a"/>
  <use x="390.945312" y="683.078125" xlink:href="#l"/>
  <use x="401.492187" y="683.078125" xlink:href="#b"/>
  <use x="422.359375" y="683.078125" xlink:href="#k"/>
  <use x="440.597656" y="683.078125" xlink:href="#c"/>
 </g>
</svg>
